<svg width="30" height="31" viewBox="0 0 30 31" fill="none" xmlns="http://www.w3.org/2000/svg">
<path fill-rule="evenodd" clip-rule="evenodd" d="M18.3529 4.08751C15.9081 4.02616 14.0919 4.02617 11.6471 4.08751L11.5536 4.08986C9.66686 4.13715 8.11451 4.17606 6.8633 4.39368C5.53535 4.62467 4.42345 5.07451 3.4817 6.01867C2.54487 6.95788 2.09631 8.05225 1.86907 9.3592C1.65581 10.5857 1.62354 12.0993 1.58447 13.9311L1.58246 14.0254C1.55584 15.2729 1.55585 15.9352 1.58249 17.1826L1.5845 17.2769C1.62355 19.1087 1.65582 20.6222 1.86909 21.8489C2.09634 23.1557 2.5449 24.2501 3.48171 25.1894C4.42347 26.1335 5.53536 26.5834 6.86332 26.8144C8.11452 27.032 9.66687 27.0709 11.5536 27.1181L11.6471 27.1205C14.0919 27.1819 15.9081 27.1819 18.3529 27.1205L18.4464 27.1181C20.3331 27.0709 21.8855 27.0319 23.1367 26.8142C24.4646 26.5834 25.5765 26.1335 26.5182 25.1894C27.4551 24.2501 27.9037 23.1557 28.1309 21.8487C28.3442 20.6222 28.3765 19.1087 28.4155 17.2769L28.4175 17.1826C28.4441 15.9351 28.4441 15.2729 28.4175 14.0254L28.4155 13.9312C28.3765 12.0993 28.3441 10.5857 28.1309 9.3592C27.9036 8.05225 27.4551 6.95788 26.5182 6.01867C25.9891 5.4881 25.4061 5.11362 24.7612 4.84636C24.6631 4.7928 24.558 4.75241 24.4484 4.72663C24.0361 4.5813 23.5995 4.4742 23.1366 4.3937C21.8855 4.17606 20.3331 4.13715 18.4464 4.08985L18.3529 4.08751ZM25.8497 11.6669C25.8255 11.16 25.8134 10.9065 25.6299 10.8054C25.4464 10.7042 25.2206 10.832 24.7694 11.0877L19.4747 14.0877C17.8501 15.0082 16.4762 15.604 14.9997 15.604C13.5232 15.604 12.1493 15.0082 10.5248 14.0877L5.23056 11.088C4.77929 10.8323 4.55365 10.7044 4.3701 10.8056C4.18655 10.9068 4.17446 11.1603 4.15029 11.6672C4.1177 12.3503 4.10004 13.1422 4.08004 14.0786C4.05416 15.2905 4.05417 15.9175 4.08006 17.1294C4.1217 19.0794 4.15326 20.4031 4.3304 21.4219C4.4972 22.3812 4.77547 22.9511 5.25152 23.4284C5.72262 23.9007 6.30034 24.1837 7.29194 24.3562C8.33967 24.5385 9.70621 24.576 11.7099 24.6262C14.1127 24.6865 15.8872 24.6865 18.2901 24.6262C20.2937 24.576 21.6604 24.5385 22.7081 24.3562C23.6996 24.1837 24.2774 23.9007 24.7485 23.4284C25.2245 22.9511 25.5029 22.3812 25.6696 21.4219C25.8467 20.4031 25.8784 19.0794 25.92 17.1294C25.9459 15.9175 25.9459 15.2905 25.92 14.0786C25.9 13.1421 25.8822 12.3501 25.8497 11.6669Z" fill="white"/>
</svg>
