<svg width="28" height="35" viewBox="0 0 28 35" fill="none" xmlns="http://www.w3.org/2000/svg">
<g clip-path="url(#clip0_986_17235)">
<path d="M13.7643 16.5581C12.9065 16.0984 11.519 15.274 12.0757 14.8917C12.436 14.6442 13.0842 15.337 13.2649 15.5612C13.5032 15.857 13.6688 16.1969 13.7643 16.5581ZM14.7063 16.3175C14.7938 15.7572 14.9459 15.2101 15.1788 14.6856C15.3203 14.3668 15.5142 13.8922 15.7992 13.6747C16.6934 12.9917 16.9171 14.0684 16.6618 14.5967C16.2996 15.3463 15.4471 15.8114 14.7063 16.3175ZM16.622 5.21549C20.2336 6.41947 22.3333 10.0589 22.0063 13.7825C21.6462 17.8841 19.5973 21.6202 19.0863 25.6982C18.6298 25.8279 18.1153 25.9719 17.6083 26.1136L17.5961 26.1171C16.4782 23.2257 15.5253 20.28 14.7391 17.2794C15.5198 16.5891 16.5334 16.1422 17.1577 15.2918C17.6563 14.613 17.7808 13.6108 17.1119 12.9821C16.419 12.331 15.5232 12.7069 15.0122 13.3714C14.571 13.9448 14.2786 14.6351 14.0912 15.3548C13.9696 15.1651 13.8298 14.9851 13.6693 14.8191C13.1761 14.3081 12.3768 13.8308 11.6631 14.1933C11.0681 14.4955 11.0331 15.4777 11.4391 15.9521C12.076 16.6964 13.106 17.0992 13.9442 17.5533L13.9938 17.5743C14.7757 20.547 15.7212 23.4661 16.829 26.3317C16.4082 26.45 16.0149 26.5611 15.6758 26.659C13.6634 24.1181 10.9833 22.2582 8.81755 19.8651C6.12619 16.8909 5.0022 12.8996 6.9307 9.16487C8.6992 5.73952 12.9757 4.00002 16.622 5.21549ZM20.6661 26.0642C20.8264 26.0105 21.0256 25.9438 21.1556 25.9684C21.2883 25.9935 21.3608 26.0442 21.4531 26.4001C21.6343 27.0981 21.6036 27.5226 21.3565 27.7359C21.1779 27.89 20.8839 27.9729 20.6244 28.0461L15.1985 29.5758C15.0207 29.626 14.6895 29.7194 14.5319 29.6468C14.4292 29.5996 14.3744 29.4439 14.3191 29.2082C14.2411 28.8731 14.1602 28.5266 14.2557 28.2225C14.3327 27.9778 14.6019 27.7164 14.8811 27.7164H14.8827C14.9273 27.7148 14.9687 27.71 15.0096 27.6962C15.4611 27.5453 16.6611 27.2098 17.8213 26.8851C19.0428 26.5437 20.1965 26.2209 20.6661 26.0642ZM21.5088 29.9245C21.3496 30.0435 21.0941 30.1159 20.8686 30.1796L16.1781 31.5065C16.0351 31.5473 15.7374 31.6319 15.6127 31.5878C15.5925 31.5809 15.5679 31.5588 15.5288 31.3831C15.4702 31.1193 15.437 30.9336 15.5081 30.7641C15.5768 30.6002 15.817 30.41 16.051 30.3994C16.0865 30.3977 16.1216 30.3913 16.1555 30.3804C16.5469 30.2528 17.5836 29.9615 18.5861 29.6799C19.6424 29.383 20.6404 29.1025 21.0471 28.9701C21.1679 28.9308 21.3289 28.8785 21.4398 28.8785L21.4722 28.8801C21.5576 28.8897 21.5733 28.8916 21.6211 29.079C21.7643 29.6428 21.6447 29.823 21.5088 29.9245ZM20.5268 32.4446C20.6849 33.3682 20.2299 33.7321 19.4161 33.994C18.5553 34.2705 17.8835 34.2222 17.6094 33.2363C17.4937 32.8207 17.4316 32.419 17.3047 32.0198L20.2646 31.1823C20.3304 31.6089 20.4535 32.016 20.5268 32.4446ZM6.15325 17.4633C8.10988 21.362 12.111 23.6282 14.8498 26.9065L14.8156 26.9174C14.165 26.951 13.6542 27.4807 13.4968 27.9812C13.3353 28.4951 13.4512 28.9919 13.5443 29.3914C13.6067 29.6586 13.7227 30.1557 14.2016 30.3753C14.3586 30.4477 14.5255 30.4738 14.6888 30.4738C14.7161 30.4738 14.7421 30.4701 14.7692 30.4688C14.6025 30.8813 14.6882 31.2721 14.7519 31.5582C14.7938 31.7457 14.8915 32.1845 15.3524 32.3447C15.4662 32.3845 15.584 32.4005 15.7034 32.4005C15.9321 32.4005 16.1672 32.3415 16.3939 32.2774L16.5509 32.2331C16.8335 33.0129 16.7823 33.9363 17.4205 34.5493C18.0315 35.1361 18.8968 35.0012 19.6278 34.766C20.2564 34.5639 20.9237 34.301 21.2116 33.6533C21.606 32.767 21.1159 31.8573 21.0293 30.9661L21.084 30.9507C21.3613 30.8721 21.7065 30.7747 21.9838 30.5673C22.6872 30.0411 22.4651 29.1676 22.3922 28.8806C22.3558 28.7376 22.2727 28.4247 21.9864 28.2341C22.5826 27.5864 22.3245 26.5874 22.2234 26.1977C22.1544 25.9326 21.9933 25.3124 21.3029 25.1814C20.9701 25.1186 20.6499 25.2257 20.4154 25.3039C20.2964 25.3437 20.1245 25.3965 19.916 25.4585C20.5143 21.2234 22.7695 17.3119 22.8454 12.9875C22.9077 9.4511 20.7695 6.105 17.5276 4.70933C14.1265 3.24533 9.89564 4.24589 7.44467 7.02093C4.94091 9.85574 4.46435 14.0983 6.15325 17.4633Z" fill="white"/>
<path d="M3.28733 20.9165C3.92335 20.3929 4.55964 19.8692 5.19593 19.3454C5.59262 19.0189 5.02664 18.4551 4.63314 18.7792C3.99685 19.3027 3.36057 19.8264 2.72428 20.3503C2.32759 20.6768 2.89383 21.2405 3.28733 20.9165Z" fill="white"/>
<path d="M0.576152 14.9249C1.38597 14.9249 2.19579 14.9249 3.00535 14.9249C3.51773 14.9249 3.51852 14.124 3.00535 14.124C2.19579 14.124 1.38597 14.124 0.576152 14.124C0.0640437 14.124 0.0632481 14.9249 0.576152 14.9249Z" fill="white"/>
<path d="M1.24267 8.0618C2.05248 8.41098 2.86204 8.76016 3.67187 9.10931C4.13754 9.31009 4.54351 8.62025 4.07359 8.41765C3.26404 8.06873 2.45422 7.71955 1.64439 7.37036C1.17872 7.16934 0.772747 7.85917 1.24267 8.0618Z" fill="white"/>
<path d="M6.90942 4.48226C7.28938 4.82583 7.8543 4.26122 7.4722 3.91604C6.89323 3.3928 6.31425 2.86983 5.73528 2.34659C5.35505 2.00301 4.7904 2.56763 5.17249 2.9128C5.75146 3.43604 6.33044 3.95902 6.90942 4.48226Z" fill="white"/>
<path d="M11.6308 1.95335C11.6866 2.46004 12.4834 2.46565 12.4269 1.95335C12.3691 1.42958 12.3112 0.905795 12.2533 0.382022C12.1974 -0.1244 11.4005 -0.130273 11.4574 0.382022C11.5152 0.905795 11.573 1.42958 11.6308 1.95335Z" fill="white"/>
<path d="M18.5746 3.02889C18.8806 2.36069 19.1796 1.68929 19.4855 1.02109C19.6985 0.556312 19.0126 0.148928 18.7983 0.616909C18.4923 1.28511 18.1933 1.9565 17.8873 2.62444C17.6743 3.08948 18.3602 3.49687 18.5746 3.02889Z" fill="white"/>
<path d="M24.522 14.227C25.3896 14.227 26.2573 14.227 27.125 14.227C27.6371 14.227 27.6378 13.4261 27.125 13.4261C26.2573 13.4261 25.3896 13.4261 24.522 13.4261C24.0099 13.4261 24.009 14.227 24.522 14.227Z" fill="white"/>
<path d="M24.3832 9.99923C25.0222 9.7141 25.6609 9.42898 26.2998 9.14395C26.767 8.9354 26.3627 8.24505 25.898 8.45248C25.2591 8.7376 24.6204 9.02273 23.9815 9.30785C23.5143 9.51631 23.9186 10.2067 24.3832 9.99923Z" fill="white"/>
<path d="M22.3082 5.87876C22.81 5.50741 23.3117 5.13606 23.8135 4.76446C24.2216 4.46226 23.8251 3.76683 23.4115 4.07304C22.9099 4.44438 22.4082 4.81598 21.9065 5.18732C21.4981 5.48951 21.8948 6.18495 22.3082 5.87876Z" fill="white"/>
</g>
<defs>
<clipPath id="clip0_986_17235">
<rect width="27.3171" height="35" fill="white" transform="translate(0.191772)"/>
</clipPath>
</defs>
</svg>
