<svg width="27" height="14" viewBox="0 0 27 14" fill="none" xmlns="http://www.w3.org/2000/svg">
<path d="M0.692383 4.61994C1.02134 4.57075 2.11121 4.4985 2.45708 4.54308C3.115 4.62916 3.48701 5.10723 3.55772 5.20561C4.09728 6.38618 5.95267 10.0401 10.1754 11.9969C10.2261 12.02 10.2768 12.0415 10.326 12.0646L11.7325 13.4327L12.7471 12.8747C15.1328 13.4219 17.62 13.302 19.8766 12.6057V13.4327L20.8297 12.2721C21.8611 11.8663 22.8326 11.336 23.7058 10.6888C24.9663 9.75418 25.7933 9.00249 26.3559 8.20468C26.4251 8.1063 26.5265 7.73276 26.588 7.64207C24.7172 5.79128 22.9817 5.06265 21.7919 4.73523C19.2095 4.02197 16.8283 4.53078 14.5671 5.17179L12.8839 4.23564C12.8839 4.23564 11.482 5.28093 8.86412 6.44152C7.80345 6.46611 6.75509 6.28933 5.70826 5.76822C4.60148 5.21791 3.86209 4.46622 3.45165 3.98661C3.37633 3.55927 3.30562 3.11963 3.24106 2.6677C3.16266 2.13429 2.99203 0.546365 2.94438 0.566349C2.91671 0.578647 2.79988 2.09279 2.68306 2.48016C2.39099 3.44398 0.664716 4.62301 0.69546 4.6184L0.692383 4.61994ZM23.2385 7.36845C23.1308 6.98107 23.4783 6.63059 23.8672 6.73512C24.047 6.78277 24.1884 6.93496 24.2269 7.11788C24.3007 7.47913 23.9901 7.79425 23.6258 7.72354C23.4429 7.68818 23.2892 7.5483 23.2385 7.36845Z" fill="#1D3EC0"/>
</svg>
