<svg width="150" height="150" viewBox="0 0 150 150" fill="none" xmlns="http://www.w3.org/2000/svg">
<g clip-path="url(#clip0_974_11983)">
<path d="M22.5134 131.522C51.3194 148.241 98.1746 148.156 127.168 131.333C156.156 114.511 156.303 87.3229 127.497 70.6034C98.6915 53.884 51.8362 53.9696 22.8428 70.7918C-6.14496 87.614 -6.29262 114.802 22.5134 131.522Z" fill="#2977BD"/>
<g style="mix-blend-mode:multiply">
<path d="M113.702 91.1074L119.018 88.0192L99.8617 76.9053H98.7826V75.4953H97.4309L87.3783 69.6615H79.1091L4.95856 112.69L36.5986 131.048H44.8735L50.9846 127.497H63.0306V126.088H53.4211L111.272 92.5173H123.903V91.1074H113.702Z" fill="#B6B6CD"/>
</g>
<g style="mix-blend-mode:multiply">
<path d="M50.4053 100.84C46.6682 103.009 40.5856 102.998 36.8201 100.817C33.0547 98.6309 33.0376 95.1032 36.7804 92.9341C40.5174 90.7649 46.6001 90.7764 50.3655 92.9569C54.131 95.1432 54.148 98.6709 50.4053 100.84Z" fill="#B6B6CD"/>
</g>
<path d="M52.2284 57.2062C51.5298 58.0453 51.3708 58.4848 51.1947 58.6332C51.1265 58.6903 51.0584 58.7074 50.9562 58.6903C50.8255 58.6675 50.4848 58.3478 50.0872 57.914C49.3659 57.132 48.4345 55.9675 48.1051 55.4423C48.0483 55.3567 47.9915 55.2483 47.9234 55.1227C47.3441 54.0495 46.3331 51.6806 46.4297 50.2821C46.5376 48.718 47.1453 47.0398 47.1453 47.0398C47.9631 47.1368 48.6787 47.9645 49.0479 48.5239C49.417 49.0833 50.0815 50.4134 50.5018 51.2125C50.9221 52.0117 51.3083 52.7138 51.3083 52.7138C51.3083 52.7138 52.6373 54.4148 52.8304 54.7688C53.0235 55.1284 53.1995 56.036 52.2284 57.2062Z" fill="#FFB41F"/>
<g style="mix-blend-mode:multiply">
<path d="M50.0872 57.914C49.3659 57.1319 48.4345 55.9675 48.1051 55.4423C48.0483 55.3567 47.9915 55.2482 47.9233 55.1226C48.1392 53.9068 48.3777 52.6966 48.4174 51.4694C48.4174 51.3381 48.4231 51.2068 48.4856 51.0926C48.5481 50.9785 48.6901 50.9042 48.8093 50.9613C49.258 51.789 49.3829 52.7594 49.3943 53.707C49.4057 54.489 49.3432 55.2653 49.3659 56.0474C49.3716 56.367 49.4284 56.4641 49.6726 56.6524C49.7124 56.6867 49.9963 56.8579 50.2178 56.9892C50.0588 57.3431 49.9963 57.6742 50.0872 57.9197V57.914Z" fill="#E0C7BC"/>
</g>
<path d="M50.5586 95.1659C50.6552 95.1831 50.8028 95.3372 50.8653 95.5541C50.9278 95.7767 50.8937 96.0964 50.8937 96.0964C50.8937 96.0964 50.8483 96.69 50.1667 96.9355C49.4852 97.1867 47.3213 96.4332 47.0544 96.2106C46.7875 95.9879 46.2082 95.497 46.2082 95.497C46.2082 95.497 45.4415 95.0746 45.3676 95.0746C45.2938 95.0746 44.5839 95.1888 44.4816 95.1945C44.3794 95.2002 42.846 94.6979 42.7153 94.5038C42.5847 94.3097 42.8062 93.7332 42.7892 93.5277C42.7721 93.3222 43.1924 93.1852 43.2038 93.1852C43.2094 93.1852 45.7765 93.8302 45.7765 93.8302L50.5643 95.1602L50.5586 95.1659Z" fill="#28292B"/>
<path d="M46.4524 92.3176C46.6227 92.3518 47.3156 92.7799 47.4633 92.9055C47.611 93.0368 48.7696 93.7104 49.0081 93.8531C49.2466 93.9958 50.3768 94.7493 50.5188 94.9262C50.6608 95.1032 50.7744 95.5655 50.7744 95.5655C50.7744 95.5655 50.6949 96.3362 49.8486 96.5245C49.0081 96.7072 47.3383 96.0736 47.1112 95.8281C46.884 95.5827 45.8333 94.9548 45.68 94.8577C45.5266 94.7607 43.5161 94.3154 43.3911 94.0586C43.2605 93.8074 43.4309 92.4317 43.4423 92.2605C43.4536 92.0835 44.067 91.741 44.1181 91.7125C44.1692 91.6839 46.4524 92.3233 46.4524 92.3233V92.3176Z" fill="#4D3D30"/>
<path d="M48.6049 75.4268C48.5424 79.063 48.3606 80.5243 48.1732 81.5689C47.9915 82.6135 47.3838 92.2148 47.3667 92.6942C47.3554 93.1737 45.9128 93.4706 44.9871 93.4078C44.936 93.4078 44.8905 93.4021 44.8394 93.3964C44.0159 93.305 43.1867 92.9054 43.0901 92.5858C42.9879 92.2547 43.005 85.8957 42.8346 84.8397C42.6926 83.9663 42.437 77.0879 42.3518 74.7418C42.3348 74.2509 42.3234 73.9598 42.3234 73.9598C42.3234 73.9598 42.4257 67.401 43.8909 66.4306C45.3562 65.4602 47.8381 65.563 47.8381 65.563C48.1846 66.9672 48.673 71.7849 48.6105 75.4211L48.6049 75.4268Z" fill="#1F6ECE"/>
<g style="mix-blend-mode:multiply">
<path d="M44.8394 93.3907C44.0159 93.2993 43.1867 92.8998 43.0901 92.5801C42.9879 92.249 43.0049 85.89 42.8346 84.834C42.6926 83.9607 42.437 77.0822 42.3518 74.7361C42.4995 73.4575 42.8346 72.2131 43.164 70.9801C43.2605 70.6262 43.4082 70.2152 43.7603 70.1182C44.4248 71.3511 44.4418 72.8239 44.4418 74.2281C44.4418 75.0958 44.4418 75.9691 44.2998 76.8253C44.2374 77.2021 44.1465 77.5674 44.0727 77.9442C43.9875 78.4065 43.9307 78.8746 43.8909 79.3484C43.8057 80.49 43.8512 81.6374 43.8966 82.7848C43.9477 84.0977 43.8966 85.4048 44.0784 86.7006C44.1863 87.437 44.1181 88.1905 44.1579 88.9382C44.1919 89.5719 44.2942 90.1941 44.4021 90.8163C44.5497 91.6782 44.6974 92.5402 44.8394 93.3964V93.3907Z" fill="#E0C7BC"/>
</g>
<path d="M38.2343 95.4913C38.0809 95.5084 37.6266 95.8281 37.6266 96.0336C37.6266 96.4503 37.7061 96.7072 37.9446 97.0497C38.1321 97.3179 38.3252 97.5805 38.5183 97.8374C38.7114 98.0886 38.7625 98.4139 38.9442 98.6651C39.1714 98.979 39.3986 99.2873 39.6655 99.5727C40.029 99.9609 40.4095 100.338 40.8923 100.56C41.3807 100.789 41.9089 100.966 42.4598 100.874C42.9823 100.794 43.4991 100.623 43.9648 100.372C44.0954 100.303 44.2318 100.212 44.3056 100.075C44.4249 99.8581 44.2715 99.5156 44.1863 99.3101C44.0557 99.0133 43.9023 98.7279 43.6638 98.5053C43.164 98.0315 38.24 95.4856 38.24 95.4856L38.2343 95.4913Z" fill="#28292B"/>
<path d="M38.6034 94.5038C38.3081 94.7606 37.8083 95.4342 37.8253 95.9137C37.8424 96.3361 38.1206 96.7357 38.3308 97.0782C38.433 97.238 38.5125 97.3978 38.6432 97.5348C38.7908 97.689 38.9158 97.8773 38.9953 98.0771C39.0975 98.3226 39.1657 98.6023 39.3417 98.8021C39.5121 99.0018 39.6825 99.2073 39.8529 99.4071C39.9892 99.5613 40.1766 99.7154 40.3527 99.8295C40.7616 100.098 41.2841 100.326 41.7555 100.457C42.3802 100.629 43.0333 100.412 43.6013 100.144C43.7546 100.069 43.9023 99.9837 44.0045 99.8524C44.1976 99.5898 44.0272 99.293 43.925 99.0304C43.8285 98.8021 42.9141 97.0953 42.8062 96.8556C42.6926 96.6158 41.7612 95.5027 41.551 95.2858C41.3409 95.0632 40.1028 94.498 40.1028 94.498H38.6034V94.5038Z" fill="#4D3D30"/>
<path d="M45.1177 66.7217C45.379 68.7482 45.3903 71.2255 45.4357 72.1046C45.4812 72.9837 44.1976 73.7086 44.2147 73.7885C44.2317 73.8742 43.3457 82.9046 43.0731 84.0862C42.8005 85.2678 42.0792 94.7492 42.0565 95.3143C42.0338 95.8795 39.8018 96.4731 39.0578 96.045C38.3194 95.6169 37.9332 94.9947 37.8253 94.6351C37.7174 94.2754 37.1835 89.7203 37.3596 87.4084C37.5357 85.0966 37.7288 80.8553 37.7231 80.0277C37.7231 79.2 36.6156 71.6708 36.5531 70.5919C36.4963 69.5131 36.2521 67.1727 37.4448 64.6953C38.6375 62.2179 45.1177 66.716 45.1177 66.716V66.7217Z" fill="#1F6ECE"/>
<path d="M38.859 95.8737C38.6148 94.4467 38.3592 92.9797 38.2456 91.5126C38.098 89.5205 38.2115 87.494 38.3251 85.5361C38.3535 85.0052 38.3876 84.4801 38.4103 83.9492C38.5182 81.7573 38.5523 79.4055 38.0923 77.0822C37.9957 76.6027 37.8821 76.1175 37.7685 75.6551C37.6493 75.1699 37.53 74.6676 37.4335 74.171C36.8485 71.1628 37.0984 68.0518 38.1547 65.1748L38.4785 65.2947C37.4448 68.1088 37.2006 71.157 37.7742 74.1025C37.8708 74.5934 37.99 75.09 38.1093 75.5695C38.2229 76.0433 38.3422 76.5285 38.4387 77.0137C38.9044 79.3712 38.8704 81.7515 38.7624 83.9663C38.7397 84.4972 38.7056 85.0281 38.6773 85.5532C38.5637 87.4998 38.4501 89.5148 38.5977 91.4841C38.7057 92.934 38.9612 94.3953 39.2054 95.811L38.8647 95.8737H38.859Z" fill="#3D85DB"/>
<path d="M49.1046 54.4205C48.9911 56.4583 48.5821 58.1993 48.5935 58.7416C48.6049 59.2839 48.2584 63.685 48.0824 64.0503C47.9063 64.4156 47.3497 65.2433 45.0041 65.6657C45.0041 65.6657 44.8224 65.6886 44.527 65.7114C43.8285 65.7742 42.4881 65.8655 41.25 65.7799C40.7389 65.7456 40.2448 65.6771 39.8188 65.5687C38.7511 65.289 37.9787 64.8323 37.5186 64.4613C37.1722 64.1816 37.0018 63.9475 37.0188 63.8733C37.0586 63.6964 37.1949 62.9258 37.3142 62.549C37.4334 62.1723 37.3142 58.7416 37.2801 58.3592C37.2574 58.1365 36.627 55.6363 36.1556 53.3645C35.8205 51.7433 35.5649 50.242 35.6671 49.774C35.9227 48.6494 39.2622 46.486 40.7332 46.1892C42.2042 45.8924 43.4479 46.2349 43.9818 46.1664C44.5157 46.0979 47.4576 47.1253 47.7359 47.2452C48.0142 47.3651 48.6617 48.6494 48.8434 49.3458C49.0251 50.0423 49.2126 52.3826 49.099 54.4262L49.1046 54.4205Z" fill="#FFC620"/>
<path d="M48.6049 55.3395C48.6049 55.3395 47.628 55.7619 46.2479 56.2414C44.8678 56.7209 40.8468 56.7209 40.8468 56.7209C40.8468 56.7209 40.1425 60.2714 40.1596 60.3513C40.1766 60.4312 37.6322 59.9346 37.6322 59.9346C37.6322 59.9346 37.3085 63.0171 37.1211 63.782C36.9337 64.5412 36.9223 65.8655 36.8655 66.2879C36.8087 66.7103 36.9961 68.3999 36.9961 68.3999C36.9961 68.3999 41.1364 68.634 41.693 68.6739C42.2496 68.7139 46.1798 68.9251 47.1737 68.5198C48.1676 68.1145 48.2414 66.4591 48.23 66.3621C48.2244 66.2651 48.3834 63.8961 48.3834 63.8961L48.8264 57.8169L48.9797 56.2071L48.6049 55.3395Z" fill="#1F6ECE"/>
<path d="M44.067 45.9495C44.067 45.9495 46.8897 46.5146 47.1169 49.7283C47.344 52.9421 46.9692 57.1376 46.9692 57.1376L48.1051 56.641C48.1051 56.641 48.3947 51.2696 48.2357 49.8311C48.0767 48.3869 47.5371 47.1939 46.4751 46.5089C45.4074 45.8239 44.067 45.9495 44.067 45.9495Z" fill="#1F6ECE"/>
<path d="M36.8769 48.2899C37.8538 47.9245 39.427 47.7248 40.5344 50.1679C41.6419 52.611 41.6306 58.3592 41.6703 58.4505C41.7101 58.5419 42.6585 58.0281 42.7551 57.914C42.8516 57.7998 42.6813 53.5814 42.3746 52.0801C42.0679 50.5789 41.8748 49.3687 41.0115 48.3869C40.1482 47.4051 38.7681 47.0512 38.4047 47.2396C37.956 47.4736 36.8712 48.2899 36.8712 48.2899H36.8769Z" fill="#1F6ECE"/>
<g style="mix-blend-mode:multiply">
<path d="M46.4694 69.0964C46.0491 69.1535 45.6629 68.8738 45.3278 68.6112C44.4078 67.8977 43.4593 67.2184 42.4824 66.5905C42.0622 66.3222 41.6476 66.0824 41.2557 65.7799C41.2443 65.7685 41.2273 65.7571 41.2159 65.7514C40.7843 65.4089 40.4492 64.9579 40.0403 64.5869C39.4837 64.0846 38.2286 63.5194 38.1377 62.6689C37.7799 63.1941 37.6209 63.822 37.5243 64.4613C37.1779 64.1816 37.0075 63.9476 37.0245 63.8733C37.0643 63.6964 37.2006 62.9258 37.3199 62.549C37.4391 62.1723 37.3199 58.7416 37.2858 58.3592C37.2631 58.1366 36.6326 55.6363 36.1613 53.3645C36.184 53.3302 36.201 53.2903 36.2237 53.256C36.4793 52.8336 36.786 52.4454 37.0359 52.023C37.2063 51.7319 37.3653 51.4008 37.6209 51.1725C37.7401 51.064 38.0866 50.6416 38.1888 50.6645C38.8647 50.83 39.4099 51.3552 39.7563 51.9602C39.9608 52.3084 40.1141 52.6909 40.2391 53.0905C40.5003 53.9239 40.6196 54.8372 40.7275 55.6592C40.9092 57.0977 41.0967 58.5418 41.2784 59.9803C41.3182 60.2714 41.3068 60.5511 41.4488 60.8023C41.6078 61.082 41.8748 61.3275 42.0622 61.5843C42.4711 62.1323 42.8573 62.7032 43.2094 63.2911C43.6808 64.0788 44.1011 64.8951 44.527 65.7114C45.0268 66.6704 45.5437 67.618 46.1627 68.5027C46.2933 68.6854 46.4296 68.8795 46.4637 69.0964H46.4694Z" fill="#E0C7BC"/>
</g>
<path d="M45.6346 46.3148C45.3392 46.9941 45.6232 48.6209 45.2995 48.9862C44.9758 49.3516 43.9705 49.871 42.6813 49.0661C41.392 48.2613 40.3129 46.7886 40.5628 46.3547C40.8127 45.9266 41.2103 45.7097 41.4886 45.3101C41.7669 44.9048 42.136 43.3465 42.2553 43.0782C42.3746 42.8042 42.9936 40.4125 44.0841 40.304C45.1689 40.2012 46.725 44.1057 46.5376 44.6651C46.3445 45.2188 45.6402 46.3205 45.6402 46.3205L45.6346 46.3148Z" fill="url(#paint0_linear_974_11983)"/>
<g style="mix-blend-mode:multiply">
<path d="M44.2204 47.1768C44.51 47.5364 44.8735 47.8675 45.3222 47.9588C45.7708 48.0501 46.3104 47.8218 46.424 47.3766C46.4865 47.1368 46.424 46.8856 46.3274 46.663C45.9526 45.7725 45.1064 45.1675 44.2204 44.8021C43.7092 44.5909 43.1526 44.8307 43.306 45.4357C43.465 46.0694 43.8171 46.6801 44.2204 47.1825V47.1768Z" fill="#E0C7BC"/>
</g>
<path d="M49.0024 42.165C48.9911 42.2962 48.9116 42.5417 48.8036 42.8214C48.5651 43.4664 48.1959 44.2998 48.1959 44.2998C48.1959 44.2998 48.1959 44.3341 48.2073 44.3912C48.2357 44.6195 48.3095 45.2189 48.2925 45.2931C48.2811 45.3502 48.1221 45.3616 48.0142 45.3616C47.9631 45.3616 47.9233 45.3616 47.9233 45.3616C47.9233 45.3616 47.0998 47.1825 46.9408 47.3252C46.8954 47.3652 46.8045 47.4051 46.6852 47.4451C46.3899 47.5364 45.9526 47.5935 45.839 47.565C45.6743 47.525 44.1295 46.6117 43.908 46.4005C43.6865 46.1893 42.8289 44.7965 42.7891 44.3512C42.7494 43.906 43.34 42.5874 43.7092 41.9138L43.164 39.6762C43.164 39.6762 44.9416 37.1531 46.8954 37.8096C48.8491 38.4603 49.0251 40.0129 49.116 40.521C49.2069 41.0347 49.0479 41.7483 49.0024 42.1707V42.165Z" fill="url(#paint1_linear_974_11983)"/>
<path d="M43.4309 43.0382L43.7603 43.2951L44.368 42.7129L45.1859 41.9365L45.6062 40.9091C45.6062 40.9091 46.5603 40.6122 46.6739 40.6008C46.7875 40.5894 47.9234 40.6693 48.0994 40.8406C48.2698 41.0118 48.8661 41.1716 48.8661 41.1716L49.1274 41.2516L49.0649 41.7139C49.0649 41.7139 49.4682 41.2915 49.4738 41.2002C49.4795 41.1146 49.4341 39.579 49.1501 38.8941C48.8661 38.2091 48.071 37.4042 47.5656 37.1359C47.0658 36.8676 45.9242 35.8173 43.7547 36.6507C42.6301 36.8334 41.818 38.2719 41.676 38.7342C41.534 39.1966 41.2103 40.6351 41.3863 41.5769C41.5624 42.5188 42.1303 43.4492 42.1303 43.4492C42.1303 43.4492 42.4938 42.1535 42.9084 42.0964C43.323 42.0393 43.4764 42.359 43.4764 42.359L43.4309 43.0325V43.0382Z" fill="#4A2D1C"/>
<path d="M43.1129 42.9126C43.3571 42.6044 43.2719 41.7824 42.8232 41.5769C42.3745 41.3714 41.9599 41.7539 42.0622 42.3361C42.1587 42.9126 42.0963 43.5748 42.3802 43.7175C42.6699 43.8659 42.8743 43.7974 42.9482 43.5976C43.022 43.3978 43.1129 42.9183 43.1129 42.9183V42.9126Z" fill="url(#paint2_linear_974_11983)"/>
<g style="mix-blend-mode:multiply">
<path d="M48.0142 45.3615C47.9631 45.3615 47.9234 45.3615 47.9234 45.3615C47.9234 45.3615 47.0998 47.1825 46.9408 47.3252C46.8954 47.3651 46.8045 47.4051 46.6852 47.445C46.8159 47.2453 46.9522 47.0398 46.9124 46.8171C46.8897 46.703 46.8215 46.5774 46.8727 46.4746C46.9522 46.3205 47.2248 46.3548 47.2929 46.1892C47.3157 46.1379 47.31 46.0865 47.31 46.0351C47.31 45.8639 47.3895 45.6926 47.5144 45.5727C47.5996 45.4871 47.6394 45.3901 47.77 45.3615C47.8495 45.3444 47.9347 45.3501 48.0142 45.3672V45.3615Z" fill="#E0C7BC"/>
</g>
<g style="mix-blend-mode:multiply">
<path d="M48.196 44.2998C48.196 44.2998 48.196 44.3341 48.2073 44.3911L48.1846 44.3455C48.0256 43.9973 47.9006 43.6262 47.9063 43.2381C47.9063 43.2038 47.9063 43.1696 47.929 43.141C47.9518 43.1125 47.9858 43.1011 48.0142 43.0897C48.2755 42.9983 48.5367 42.907 48.8037 42.8157C48.5651 43.4607 48.196 44.2941 48.196 44.2941V44.2998Z" fill="#E0C7BC"/>
</g>
<path d="M44.7258 46.1893C44.7258 46.1893 43.323 45.5157 43.1186 45.3559C42.9141 45.196 41.8577 44.3284 41.8577 44.3284L41.7612 44.6709L43.0447 45.6983L44.6577 46.5032L44.7202 46.1893H44.7258Z" fill="#FAEAB0"/>
<path d="M44.7258 44.9506C44.7258 44.9506 43.4934 44.3055 43.2548 44.2199C43.0163 44.1343 42.119 43.3694 42.119 43.3694L42.0167 43.7747C42.0167 43.7747 44.6009 45.2759 44.6463 45.2645C44.6917 45.2531 44.7258 44.9449 44.7258 44.9449V44.9506Z" fill="#FAEAB0"/>
<path d="M48.2244 44.5453C48.2244 44.5453 47.6905 44.5795 47.5485 44.5795C47.4122 44.5795 46.867 44.7051 46.566 44.8764C46.265 45.0533 44.8792 44.8592 44.6975 44.7793C44.5157 44.6937 44.4532 46.526 44.4419 46.6516C44.4305 46.7772 45.3563 47.4679 45.68 47.6049C46.0037 47.7419 46.8329 47.6506 46.9806 47.5307C47.1282 47.4108 48.3039 45.5785 48.355 45.3216C48.4061 45.0704 48.2244 44.5453 48.2244 44.5453Z" fill="#FAEAB0"/>
<path d="M47.4974 41.9251C47.0715 41.8681 46.6796 41.6569 46.2593 41.5655C45.5267 41.4057 44.7088 41.5826 44.0614 41.2059C43.9023 41.1089 43.7603 40.989 43.607 40.8805C42.9368 40.4182 42.0168 40.3097 41.4999 39.6818C41.4602 39.6361 41.4261 39.5791 41.3977 39.522H41.375C41.375 39.522 41.3012 39.8416 41.3409 40.1099C41.3807 40.3782 42.8914 41.3315 43.4082 41.5769C43.9251 41.8224 45.8049 42.4389 47.3895 42.3247C48.9741 42.2163 49.0479 41.9822 49.0479 41.9822L49.1672 41.6283C49.1672 41.6283 49.1558 41.6283 49.1558 41.634C48.6447 41.8338 48.054 41.9936 47.4974 41.9194V41.9251Z" fill="#78A2DE"/>
<path opacity="0.92" d="M48.8718 37.7068C48.338 37.2673 47.7246 36.9248 47.0714 36.7079C46.742 36.5994 46.4013 36.5538 46.0662 36.4738C45.7425 36.3939 45.4301 36.3026 45.1007 36.2683C44.7202 36.2284 44.334 36.2398 43.9705 36.3483C43.6808 36.4339 43.4139 36.5766 43.1242 36.6565C42.9311 36.7079 42.7267 36.7364 42.5336 36.7992C42.1133 36.9419 41.7669 37.273 41.5397 37.6554C41.4091 37.8781 41.2728 38.1521 41.25 38.4146C41.2273 38.6487 41.3807 38.8656 41.3693 39.1053C41.3693 39.1795 41.3466 39.2538 41.3466 39.328C41.3466 39.4592 41.4204 39.5734 41.5056 39.6762C42.0224 40.3098 42.9425 40.4125 43.6127 40.8749C43.766 40.9833 43.908 41.1032 44.067 41.2003C44.7145 41.577 45.5323 41.4001 46.265 41.5599C46.6852 41.6512 47.0771 41.8567 47.5031 41.9195C48.0597 41.9994 48.6503 41.8396 49.1615 41.6341C49.5818 41.4685 49.8373 41.0347 50.0304 40.6409C50.127 40.4411 50.2065 40.2299 50.2292 40.0072C50.2406 39.8931 50.2349 39.7789 50.2235 39.6647C50.1724 39.2709 49.9907 38.7914 49.6669 38.5402C49.5931 38.4831 49.4852 38.4432 49.4284 38.369C49.383 38.3062 49.3659 38.2206 49.3205 38.1521C49.2012 37.9808 49.0479 37.8381 48.8889 37.7068H48.8718Z" fill="#B3CEFF"/>
<path d="M65.0468 126.801L61.0087 126.79V127.029C61.0087 127.326 61.2075 127.629 61.6051 127.857C62.3945 128.314 63.6724 128.319 64.4561 127.857C64.848 127.629 65.0411 127.332 65.0411 127.029V126.795L65.0468 126.801Z" fill="#A7A5A3"/>
<path d="M64.4619 127.623C63.6781 128.08 62.4002 128.074 61.6108 127.623C60.8213 127.166 60.8157 126.424 61.5994 125.968C62.3832 125.511 63.6611 125.517 64.4505 125.968C65.2399 126.424 65.2456 127.166 64.4619 127.623Z" fill="#BEBDBC"/>
<path d="M63.962 99.4415H62.0935V126.63C62.0935 126.767 62.1844 126.904 62.3661 127.012C62.7296 127.224 63.3203 127.224 63.6837 127.012C63.8655 126.91 63.9564 126.767 63.9564 126.63V99.4358L63.962 99.4415Z" fill="#A7A5A3"/>
<path d="M63.6951 99.8239C63.3316 100.035 62.741 100.035 62.3775 99.8239C62.014 99.6127 62.0083 99.2702 62.3775 99.059C62.741 98.8478 63.3316 98.8478 63.6951 99.059C64.0586 99.2702 64.0643 99.6127 63.6951 99.8239Z" fill="#A7A5A3"/>
<path d="M125.714 91.5983L121.682 91.5869V91.8267C121.682 92.1235 121.881 92.426 122.278 92.6544C123.068 93.111 124.346 93.1167 125.129 92.6544C125.521 92.426 125.714 92.1292 125.714 91.8267V91.5926V91.5983Z" fill="#A7A5A3"/>
<path d="M125.129 92.4203C124.346 92.877 123.068 92.8713 122.278 92.4203C121.489 91.9636 121.483 91.2216 122.267 90.7649C123.051 90.3083 124.329 90.314 125.118 90.7649C125.907 91.2216 125.913 91.9636 125.129 92.4203Z" fill="#BEBDBC"/>
<path d="M124.63 64.2387H122.761V91.4271C122.761 91.5641 122.852 91.7011 123.034 91.8096C123.397 92.0208 123.988 92.0208 124.351 91.8096C124.533 91.7068 124.624 91.5641 124.624 91.4271V64.233L124.63 64.2387Z" fill="#A7A5A3"/>
<path d="M124.363 64.6154C123.999 64.8267 123.408 64.8267 123.045 64.6154C122.682 64.4042 122.676 64.0617 123.045 63.8505C123.414 63.6393 123.999 63.6393 124.363 63.8505C124.726 64.0617 124.732 64.4042 124.363 64.6154Z" fill="#A7A5A3"/>
<path d="M33.7021 108.54L29.664 108.529V108.769C29.664 109.066 29.8628 109.368 30.2603 109.596C31.0498 110.053 32.3276 110.059 33.1114 109.596C33.5033 109.368 33.6964 109.071 33.6964 108.769V108.535L33.7021 108.54Z" fill="#A7A5A3"/>
<path d="M33.1171 109.362C32.3334 109.819 31.0555 109.813 30.2661 109.362C29.4766 108.906 29.4709 108.164 30.2547 107.707C31.0385 107.25 32.3163 107.256 33.1058 107.707C33.8952 108.164 33.9009 108.906 33.1171 109.362Z" fill="#BEBDBC"/>
<path d="M32.6173 81.1808H30.7488V108.369C30.7488 108.506 30.8396 108.643 31.0214 108.752C31.3849 108.963 31.9755 108.963 32.339 108.752C32.5208 108.649 32.6116 108.506 32.6116 108.369V81.175L32.6173 81.1808Z" fill="#A7A5A3"/>
<path d="M32.3447 81.5575C31.9812 81.7687 31.3905 81.7687 31.0271 81.5575C30.6636 81.3463 30.6579 81.0038 31.0271 80.7926C31.3905 80.5814 31.9812 80.5814 32.3447 80.7926C32.7082 81.0038 32.7139 81.3463 32.3447 81.5575Z" fill="#A7A5A3"/>
<path d="M20.9348 82.7961V92.7342L22.0706 93.3906V83.4526L20.9348 82.7961Z" fill="#A7A5A3"/>
<path d="M20.9348 82.7962L22.0706 83.4526L102.713 36.6564L101.577 36L20.9348 82.7962Z" fill="#E4E3E0"/>
<path d="M22.0706 83.4527V93.3907L102.713 46.5945V36.6565L22.0706 83.4527Z" fill="#B7B5B3"/>
<path d="M102.713 37.9465L104.984 39.2651L26.1144 85.0281L23.8426 83.7095L102.713 37.9465Z" fill="#E4E3E0"/>
<path d="M23.8426 83.7095V91.8038L26.1144 93.1224V85.0281L23.8426 83.7095Z" fill="#A7A5A3"/>
<path d="M104.984 39.2651V47.3594L26.1144 93.1224V85.0281L104.984 39.2651Z" fill="#B7B5B3"/>
<path d="M30.107 84.0235L101.083 42.8385C101.736 42.4617 102.332 42.4446 102.781 42.73L125.368 55.8361L50.9391 104.002L28.5111 90.9875C28.4713 90.9647 28.4316 90.9418 28.3918 90.919C27.892 90.5879 27.5797 89.8801 27.5797 88.8983C27.5797 87.0203 28.7155 84.8397 30.1184 84.0292L30.107 84.0235Z" fill="#40403F"/>
<path d="M52.6713 103.917L123.647 62.7318C125.05 61.9212 126.186 59.7406 126.186 57.8626C126.186 55.9846 125.05 55.1227 123.647 55.9332L52.6713 97.1182C51.2685 97.9288 50.1326 100.109 50.1326 101.987C50.1326 103.865 51.2685 104.727 52.6713 103.917Z" fill="#40403F"/>
<path d="M101.577 36L100.856 37.7353L101.605 37.3015L102.713 36.6564L101.577 36Z" fill="#E4E3E0"/>
<path d="M129.809 53.667L132.081 54.9856L53.2109 100.754L50.9391 99.4357L129.809 53.667Z" fill="#E4E3E0"/>
<path d="M50.9391 99.4358V107.53L53.2109 108.849V100.754L50.9391 99.4358Z" fill="#A7A5A3"/>
<path d="M132.081 54.9856V63.0799L53.2109 108.849V100.754L132.081 54.9856Z" fill="#B7B5B3"/>
<path d="M51.4446 100.497V110.435L52.5748 111.092V101.154L51.4446 100.497Z" fill="#A7A5A3"/>
<path d="M51.4446 100.497L52.5748 101.154L133.217 54.3577L132.081 53.7013L51.4446 100.497Z" fill="#E4E3E0"/>
<path d="M52.5748 101.154V111.092L53.3642 110.635L133.217 64.2958V54.3634L52.5748 101.154Z" fill="#B7B5B3"/>
<path d="M107.188 69.4674L133.217 54.3577V55.271L107.188 70.375V69.4674Z" fill="#B2B0AE"/>
<path d="M55.0113 61.6928C54.7443 61.864 54.0855 62.178 53.6085 62.2579C53.404 62.2921 53.2393 62.2864 53.1427 62.2065C52.8304 61.9496 50.3257 58.5589 50.0872 57.9139C50.002 57.6742 50.0588 57.3374 50.2178 56.9835C50.4791 56.3955 51.0073 55.7505 51.5866 55.3224C52.3419 54.7629 52.677 54.6374 52.8304 54.7687C52.9894 54.8999 53.7561 56.1443 53.8924 56.5211C54.0287 56.8978 55.5565 60.3456 55.6019 60.631C55.6417 60.9164 55.3918 61.4473 55.0113 61.687V61.6928Z" fill="#FFB41F"/>
<g style="mix-blend-mode:multiply">
<path d="M53.6085 62.2579C53.404 62.2922 53.2393 62.2865 53.1427 62.2066C52.8304 61.9497 50.3257 58.559 50.0872 57.914C50.002 57.6742 50.0588 57.3374 50.2178 56.9835C50.3655 57.0749 50.4905 57.1434 50.4961 57.1434C50.4848 57.366 50.5132 57.5886 50.6097 57.7884C50.6722 57.9083 50.7574 58.0167 50.8426 58.1252C50.9675 58.2907 51.0868 58.4562 51.1947 58.6332C51.6093 59.2897 51.9444 59.9975 52.3987 60.6311C52.7565 61.1334 53.1882 61.5901 53.5176 62.1152C53.546 62.1609 53.5744 62.2066 53.6085 62.2522V62.2579Z" fill="#E0C7BC"/>
</g>
<path d="M59.4298 68.2858C59.4298 68.2858 59.4014 68.3143 59.3787 68.32C59.3503 68.3315 59.3106 68.3372 59.2765 68.3372C59.1913 68.3372 59.1061 68.32 59.0947 68.3143C59.1061 68.3486 59.2765 68.8966 59.2481 69.045C59.2311 69.1534 59.0834 69.1649 59.0039 69.1649C58.9698 69.1649 58.9471 69.1649 58.9471 69.1649C58.9471 69.1649 59.0096 69.2962 58.9471 69.4103C58.93 69.4446 58.896 69.4845 58.8449 69.5131C58.771 69.553 58.6858 69.5644 58.6006 69.553C58.4473 69.5359 58.3167 69.4674 58.3167 69.4674L58.1747 69.0164C58.1747 69.0164 57.8339 69.2448 57.6465 69.0279C57.5727 68.9422 57.4591 68.7082 57.3398 68.4513C57.1581 68.046 56.965 67.578 56.9082 67.5152C56.8514 67.4467 56.5958 67.1384 56.3629 66.9215C56.238 66.8074 56.1187 66.7274 56.0279 66.716C55.7723 66.6932 55.3123 66.9158 55.3123 66.9158C55.3123 66.9158 55.0283 67.7606 55.0283 67.8634C55.0283 67.9661 55.1987 68.8167 54.9942 68.9479C54.8295 69.0507 54.5739 68.9765 54.4831 68.9479C54.4603 68.9422 54.449 68.9365 54.449 68.9365C54.449 68.9365 54.3013 67.3896 54.3638 67.1556C54.4263 66.9158 54.5853 65.3346 54.5853 65.3346C54.5853 65.3346 54.4547 64.4784 54.4092 64.2444C54.3638 64.0103 52.9837 61.8697 52.9837 61.8697C52.9667 61.2361 53.2222 60.5854 54.307 60.3057C55.3918 60.026 55.6644 60.6539 55.7325 60.8879C55.8007 61.1219 56.5447 64.0902 56.5901 64.2615C56.6356 64.4327 58.1463 65.8084 58.2542 65.9055C58.3621 66.0025 59.0436 66.8302 59.1061 66.9444C59.1686 67.0642 59.3958 67.5038 59.4128 67.5951C59.4298 67.6864 59.498 68.183 59.4298 68.2801V68.2858Z" fill="#F1C526"/>
<g style="mix-blend-mode:multiply">
<path d="M56.221 66.7389C56.2664 66.8017 56.3119 66.8645 56.3573 66.9273C56.2324 66.8131 56.1131 66.7332 56.0222 66.7218C55.7666 66.6989 55.3066 66.9216 55.3066 66.9216C55.3066 66.9216 55.0226 67.7664 55.0226 67.8691C55.0226 67.9719 55.193 68.8224 54.9886 68.9537C54.8239 69.0565 54.5683 68.9822 54.4774 68.9537C54.5115 68.948 54.5456 68.9366 54.5796 68.9252C54.75 68.8624 54.8579 68.6797 54.8863 68.497C54.9204 68.3144 54.8977 68.1317 54.8977 67.9491C54.8977 67.7036 54.9318 67.4639 54.9715 67.2241C54.9886 67.1099 55.0056 66.9958 55.0283 66.8816C55.034 66.8302 55.0454 66.7789 55.0681 66.7332C55.1192 66.6362 55.2385 66.5905 55.3464 66.5505C55.5679 66.4763 55.8291 66.4021 56.0222 66.5277C56.1074 66.5791 56.1642 66.659 56.221 66.7389Z" fill="#E0C7BC"/>
</g>
<g style="mix-blend-mode:multiply">
<path d="M58.3167 69.1193C58.3735 69.2848 58.4757 69.4332 58.6007 69.5588C58.4473 69.5417 58.3167 69.4732 58.3167 69.4732L58.1747 69.0222C58.1747 69.0222 57.8339 69.2506 57.6465 69.0337C57.5727 68.948 57.4591 68.714 57.3398 68.4571C57.3569 68.48 57.3682 68.5028 57.3853 68.5313C57.4648 68.6683 57.5272 68.8224 57.6352 68.9366C57.709 69.0165 57.9646 69.1649 58.0611 69.0394C58.1463 68.9309 57.9986 68.5884 57.9646 68.4742C57.851 68.1318 57.7317 67.7835 57.5556 67.4696C57.3909 67.1671 57.1694 66.8816 57.0558 66.5563C57.6351 67.1613 58.0441 67.9377 58.2201 68.7597C58.2485 68.8795 58.2656 69.0051 58.311 69.125L58.3167 69.1193Z" fill="#E0C7BC"/>
</g>
<g style="mix-blend-mode:multiply">
<path d="M59.0039 69.1706C58.9698 69.1706 58.9471 69.1706 58.9471 69.1706C58.9471 69.1706 59.0096 69.3019 58.9471 69.4161C58.9414 69.3647 58.93 69.3133 58.9187 69.262C58.7881 68.7025 58.6177 68.1488 58.4075 67.6123C58.3507 67.4696 58.2883 67.3211 58.2088 67.1899C58.0838 66.9787 57.9134 66.7846 57.851 66.5505C57.8623 66.5905 57.9248 66.6476 57.9475 66.6818C57.9816 66.7275 58.0157 66.7789 58.0554 66.8245C58.1236 66.9159 58.1917 67.0015 58.2542 67.0928C58.3621 67.2641 58.47 67.441 58.5552 67.6351C58.7142 68.0004 58.7994 68.4 58.896 68.7882C58.9244 68.9137 58.9584 69.0393 59.0096 69.1592C59.0096 69.1592 59.0096 69.1706 59.0152 69.1706H59.0039Z" fill="#E0C7BC"/>
</g>
<g style="mix-blend-mode:multiply">
<path d="M59.3787 68.3201C59.3503 68.3315 59.3106 68.3372 59.2765 68.3372C59.2765 68.3372 59.2481 68.3258 59.2367 68.3201C59.1799 68.2915 59.1515 68.2287 59.1288 68.1659C59.0209 67.8977 58.913 67.6237 58.8051 67.3554C58.7256 67.1556 58.6518 66.9558 58.5438 66.7674C58.4416 66.5848 58.2996 66.4535 58.1804 66.2822C58.3223 66.3907 58.4246 66.482 58.5325 66.6247C58.7256 66.8702 58.8789 67.1499 58.9925 67.4467C59.0663 67.6522 59.1231 67.8691 59.214 68.0746C59.2538 68.1659 59.3049 68.2573 59.3787 68.3144V68.3201Z" fill="#E0C7BC"/>
</g>
<path d="M43.2435 64.6725C43.2662 64.9293 41.8236 66.4021 41.2557 66.756C41.1819 66.8016 41.1251 66.8302 41.0853 66.8359C40.7446 66.8701 37.07 62.6632 36.4566 61.4816C36.2805 61.1448 36.1726 60.8137 36.1102 60.5169C36.0988 60.4598 36.0874 60.397 36.0761 60.3285C35.9682 59.6835 36.0534 59.2268 36.0534 59.2268H36.0931L39.1714 58.656C39.4497 58.6103 40.1425 59.1126 40.4549 59.4894C40.5231 59.575 40.5742 59.6492 40.5969 59.7177C40.7275 60.0716 43.2208 64.3928 43.2435 64.6782V64.6725Z" fill="#FFB41F"/>
<path d="M40.4606 59.7178C40.4549 59.8034 37.2006 60.3343 36.326 60.477C36.1897 60.4998 36.1102 60.5112 36.1102 60.5112C36.0988 60.4542 36.0874 60.3914 36.0761 60.3229C35.8092 58.9358 35.281 55.7563 35.2639 54.5804C35.2412 53.3474 35.3321 50.7045 35.7126 49.6656C35.758 49.54 35.8375 49.4315 35.9341 49.3516C36.6383 48.7637 38.5069 49.3003 39.1714 50.4533C39.9324 51.7719 40.347 54.8658 40.3129 55.9218C40.2845 56.8066 40.4152 58.7988 40.4549 59.4838C40.4606 59.6208 40.4663 59.7007 40.4663 59.7178H40.4606Z" fill="#FFB41F"/>
<g style="mix-blend-mode:multiply">
<path d="M41.2557 66.756C41.1819 66.8017 41.1251 66.8302 41.0853 66.8359C40.7446 66.8702 37.07 62.6632 36.4566 61.4816C36.2805 61.1448 36.1726 60.8137 36.1102 60.5169C36.0988 60.4598 36.0874 60.397 36.0761 60.3285C35.8092 58.9414 35.281 55.762 35.2639 54.5861C35.2412 53.3531 35.3321 50.7102 35.7126 49.6713C35.758 49.5457 35.8375 49.4372 35.9341 49.3573C35.6842 50.8871 35.5763 52.434 35.5649 53.9867C35.5593 54.8715 35.5081 55.8533 35.6388 56.7324C35.6842 57.0463 35.8092 57.3203 35.8432 57.64C35.883 58.0624 35.9114 58.4848 36.0307 58.8901C36.059 58.9928 36.0818 59.107 36.0931 59.2211C36.1442 59.6493 36.1158 60.1288 36.326 60.4884C36.326 60.4884 36.326 60.4941 36.3317 60.4998C36.6213 60.9793 36.786 61.5387 37.0984 62.0068C37.3028 62.315 37.5357 62.6176 37.7458 62.9258C38.3763 63.8334 39.0805 64.6896 39.8472 65.4774C40.2221 65.8598 40.6423 66.1909 41.0172 66.562C41.091 66.6362 41.1705 66.7047 41.2557 66.7732V66.756Z" fill="#E0C7BC"/>
</g>
<path d="M50.4109 73.3718C50.4223 73.7657 50.3769 73.9141 50.2008 73.9826C50.0247 74.0511 49.8203 73.9598 49.8203 73.9598L49.2807 72.6241L49.1331 72.253L49.0536 72.1788L48.5879 71.7279L48.8605 72.2131L49.1444 72.7211C49.1444 72.7211 49.4454 73.5945 49.5136 73.9027C49.525 73.9484 49.5306 73.9826 49.525 73.9997C49.5079 74.1253 49.0195 74.2623 48.9116 74.0397C48.8037 73.8171 48.2244 72.567 48.2244 72.567C48.2244 72.567 47.6394 71.9105 47.5088 71.8135C47.3838 71.7279 47.5088 72.1503 47.5372 72.2245C47.5372 72.2302 47.5372 72.2359 47.5372 72.2359L47.9347 72.8809C47.9347 72.8809 48.0994 73.172 48.1676 73.4289C48.2073 73.5716 48.2187 73.6972 48.1676 73.7657C48.0142 73.9541 47.7246 73.7771 47.7246 73.7771L46.9976 72.704C46.9976 72.704 46.6569 72.1274 46.5262 71.9847C46.3956 71.842 45.7481 71.3854 45.6289 71.2598C45.5096 71.1342 45.0041 70.5634 44.811 70.2551C44.6179 69.9469 44.351 69.4617 44.2829 69.3818C44.2147 69.3019 41.1365 66.9672 41.1365 66.9672C41.0967 66.9215 41.074 66.8416 41.0797 66.7503C41.091 66.4363 41.3296 65.9112 41.7101 65.5116C42.1985 64.9921 43.005 64.661 43.323 64.7752C43.6411 64.8894 46.441 68.594 46.708 68.771C46.9749 68.9479 48.8945 70.0268 49.0252 70.141C49.1501 70.2551 50.1099 71.3112 50.144 71.3854C50.1781 71.4539 50.6665 72.7154 50.7404 72.9837C50.7404 73.0008 50.746 73.0122 50.7517 73.0179C50.7744 73.1606 50.6097 73.3433 50.4109 73.3604V73.3718Z" fill="#F1C526"/>
<g style="mix-blend-mode:multiply">
<path d="M48.1732 73.4403C48.213 73.5773 48.2244 73.7086 48.1732 73.7714C48.0199 73.9598 47.7303 73.7828 47.7303 73.7828L47.0033 72.7097C47.0033 72.7097 46.6625 72.1331 46.5319 71.9904C46.4013 71.8477 45.7538 71.3911 45.6345 71.2655C45.5153 71.1399 45.0098 70.5691 44.8167 70.2608C44.6236 69.9526 44.3567 69.4674 44.2885 69.3875C44.2204 69.3076 41.1421 66.9729 41.1421 66.9729C41.1024 66.9272 41.0797 66.8473 41.0853 66.756C41.1137 66.7788 41.1478 66.8016 41.1762 66.8245C41.3012 66.9215 41.4204 67.0243 41.5454 67.127C42.0224 67.5266 42.5165 67.909 43.0447 68.2401C43.164 68.32 43.2549 68.4399 43.3685 68.5312C43.482 68.6169 43.6013 68.6911 43.7149 68.7767C43.8228 68.8566 43.9194 68.9479 44.0159 69.0336C44.209 69.2105 44.4021 69.3875 44.5611 69.5987C44.7883 69.9012 44.936 70.2494 45.1348 70.5691C45.22 70.7004 45.3222 70.8031 45.4187 70.923C45.4982 71.02 45.5607 71.1342 45.6573 71.2084C45.839 71.3625 46.0719 71.4482 46.2593 71.5909C46.4694 71.7507 46.6228 71.9847 46.7648 72.2074C46.9919 72.5613 47.2589 72.8752 47.469 73.2405C47.5599 73.4004 47.6564 73.5602 47.8041 73.6687C47.8722 73.7143 47.9518 73.7486 48.0313 73.7257C48.1108 73.7029 48.1562 73.623 48.1732 73.5374C48.1789 73.5031 48.1789 73.4689 48.1789 73.4403H48.1732Z" fill="#E0C7BC"/>
</g>
<g style="mix-blend-mode:multiply">
<path d="M48.2017 71.2599C48.4913 71.4426 48.7355 71.688 48.9286 71.9734C48.9741 72.0419 49.0138 72.1104 49.0536 72.1846L48.5879 71.7337L48.8605 72.2189C48.8207 72.1561 48.7753 72.0876 48.7355 72.0248C48.6447 71.8878 48.5538 71.7565 48.4572 71.6195C48.3891 71.5225 48.2982 71.3398 48.196 71.2599H48.2017Z" fill="#E0C7BC"/>
</g>
<g style="mix-blend-mode:multiply">
<path d="M49.5192 73.9028C49.5306 73.9485 49.5363 73.9827 49.5306 73.9998C49.5136 74.1254 49.0251 74.2624 48.9172 74.0398C48.8093 73.8172 48.23 72.5671 48.23 72.5671C48.23 72.5671 47.645 71.9106 47.5144 71.8136C47.3895 71.728 47.5144 72.1504 47.5428 72.2246C47.4633 72.099 47.3895 71.9734 47.3156 71.8421C47.3043 71.825 47.2986 71.8079 47.2986 71.7907C47.3213 71.6538 47.5314 71.7165 47.5996 71.7622C47.7302 71.8592 47.8495 71.9734 47.9574 72.0876C48.1391 72.2817 48.3038 72.4929 48.4401 72.7212C48.5765 72.9495 48.656 73.2121 48.7582 73.4576C48.8093 73.5717 48.9967 74.1026 49.133 74.0969C49.1501 74.0969 49.1671 74.0912 49.1842 74.0855C49.275 74.0512 49.3716 74.0227 49.4454 73.9656C49.4738 73.9485 49.4965 73.9256 49.5136 73.8971L49.5192 73.9028Z" fill="#E0C7BC"/>
</g>
<g style="mix-blend-mode:multiply">
<path d="M50.4109 73.3719C50.4223 73.7657 50.3768 73.9141 50.2008 73.9826C50.0247 74.0511 49.8203 73.9598 49.8203 73.9598L49.2807 72.6241C49.3318 72.704 49.3829 72.7839 49.4284 72.8638C49.559 73.115 49.6726 73.3719 49.7691 73.6402C49.8089 73.7429 49.8032 73.8514 49.9054 73.897C50.0077 73.9427 50.1497 73.9256 50.2349 73.8514C50.2746 73.8171 50.303 73.7714 50.3314 73.7201C50.4223 73.5717 50.2178 73.2862 50.1553 73.1321C50.0645 72.9038 49.9736 72.6755 49.9054 72.4414C49.843 72.2473 49.7975 72.0475 49.7067 71.8592C49.5988 71.6366 49.4113 71.3911 49.258 71.197C49.5079 71.4082 49.7635 71.6251 49.8998 71.922C49.9736 72.0761 50.0077 72.2473 50.0588 72.4129C50.1156 72.607 50.1951 72.7953 50.286 72.978C50.3655 73.1378 50.4507 73.3547 50.6495 73.1721C50.7006 73.1264 50.7346 73.0636 50.7517 72.9951C50.7517 73.0122 50.7574 73.0237 50.763 73.0294C50.7858 73.1721 50.6211 73.3547 50.4223 73.3719H50.4109Z" fill="#E0C7BC"/>
</g>
<path d="M57.2206 74.6163C57.4534 74.4621 57.5954 74.1653 57.7772 74.3137C57.9532 74.4621 58.1747 74.6505 58.9869 75.1243C59.0039 75.1357 59.021 75.1471 59.038 75.1528C59.8956 75.6495 62.0424 76.0148 64.5697 77.3505C67.0573 78.6691 68.4374 79.9078 69.7437 81.3691C69.7607 81.3919 69.7835 81.4148 69.8005 81.4319C71.0272 82.8076 71.1465 83.2357 71.0954 83.2072C71.0443 83.1786 70.4423 82.859 70.4707 82.9788C70.4991 83.0987 70.8228 83.504 70.6751 83.5211C70.5275 83.5382 69.0849 83.4127 68.1364 83.0816C67.5174 82.8647 67.1596 83.0645 66.6087 82.7962C64.2971 81.6774 62.6047 80.2446 61.5994 79.4569C60.6566 78.7148 58.7029 76.4315 57.7999 75.6837C57.7658 75.6552 57.7374 75.6323 57.709 75.6152C57.124 75.1757 56.982 75.1471 56.8457 75.0729C56.2324 74.7533 56.9536 74.7704 57.2206 74.6163Z" fill="url(#paint3_linear_974_11983)"/>
<path d="M67.8808 80.9696C68.9088 80.7983 69.3972 81.1408 69.7494 81.3749C69.7664 81.3977 69.7891 81.4205 69.8062 81.4377C71.0329 82.8133 71.1522 83.2415 71.1011 83.2129C71.05 83.1844 70.8455 83.1901 70.8739 83.31C70.9023 83.4298 70.8228 83.5098 70.6751 83.5269C70.5274 83.544 69.1473 83.7038 68.1875 83.4241C67.5571 83.2358 67.1595 83.0702 66.6086 82.8019C67.5117 82.8476 65.8362 81.3121 67.8808 80.9696Z" fill="url(#paint4_linear_974_11983)"/>
<path d="M55.9654 73.6573C55.8235 73.8 55.4032 73.8627 54.7387 73.8C54.0685 73.7372 53.6766 74.1082 53.6766 74.1082C53.6766 74.1082 54.6365 74.8274 55.7553 75.0101C56.3403 75.1071 56.8117 75.09 57.3512 75.3469C57.6749 75.3868 58.5325 75.1585 58.5098 74.8446C58.0441 74.2338 57.692 72.8581 56.6583 72.2473C56.062 72.6069 56.2778 73.3604 55.9654 73.6458V73.6573Z" fill="url(#paint5_linear_974_11983)"/>
<path d="M67.3242 80.6614C67.5514 80.6614 67.3981 79.8793 67.2731 79.6738C66.8869 79.3656 66.8074 79.3542 66.62 79.3256C66.4326 79.2971 66.3417 79.5597 66.3019 79.6225C66.2622 79.691 66.8358 80.5187 67.3242 80.6557V80.6614Z" fill="url(#paint6_linear_974_11983)"/>
<path d="M64.246 77.1907C63.4395 76.3173 62.4116 75.9634 61.9175 75.8606C61.8891 75.9691 60.2988 75.6552 60.2988 75.6552C60.2988 75.6552 62.9227 76.6313 64.2403 77.1907H64.246Z" fill="url(#paint7_linear_974_11983)"/>
<path d="M64.5015 81.4491C64.5015 81.4491 63.3145 80.5301 63.1953 80.4387C63.076 80.3531 62.0992 79.5882 61.4574 79.0231C60.8213 78.458 59.4071 77.1793 59.4071 77.1793C59.4071 77.1793 59.498 77.596 59.7763 78.0812C60.0489 78.5664 61.4176 80.1476 62.6103 81.0324C62.9 81.2493 63.8257 81.2664 64.5015 81.4491Z" fill="url(#paint8_linear_974_11983)"/>
<path d="M68.3465 82.3224C68.4658 82.2254 68.6646 82.2254 68.7895 82.3224C68.9145 82.4137 68.9145 82.5736 68.7895 82.6649C68.6702 82.7619 68.4715 82.7619 68.3465 82.6649C68.2216 82.5679 68.2216 82.4137 68.3465 82.3224Z" fill="#707C8A"/>
<path d="M62.9852 86.5008C62.7694 86.6721 62.6501 86.986 62.457 86.849C62.2696 86.7177 62.031 86.5465 61.1791 86.1469C61.1621 86.1412 61.145 86.1298 61.1223 86.1241C60.225 85.7074 58.0554 85.5304 55.4202 84.4173C52.8247 83.3213 51.3424 82.2082 49.9168 80.8668C49.8941 80.8496 49.8714 80.8268 49.8544 80.804C48.514 79.5425 48.3607 79.1258 48.4118 79.1486C48.4686 79.1714 49.0933 79.4397 49.0592 79.3198C49.0195 79.2057 48.6617 78.8232 48.8093 78.8004C48.957 78.7718 50.4053 78.7718 51.3708 79.0173C52.0069 79.1771 52.3476 78.9488 52.9156 79.1657C55.3123 80.079 57.124 81.3577 58.1974 82.0598C59.197 82.7162 61.3438 84.8226 62.3093 85.4847C62.3434 85.5076 62.3775 85.5304 62.4059 85.5475C63.0306 85.9357 63.1726 85.9528 63.3146 86.0099C63.9507 86.2725 63.2294 86.3181 62.9795 86.4951L62.9852 86.5008Z" fill="url(#paint9_linear_974_11983)"/>
<path d="M50.746 80.1761C49.7124 80.2845 50.2917 81.0666 49.9282 80.8668C49.9055 80.8496 49.8827 80.8268 49.8657 80.804C48.5254 79.5425 48.372 79.1257 48.4231 79.1486C48.4799 79.1714 48.6787 79.1486 48.639 79.0344C48.5992 78.9203 48.673 78.8289 48.8207 78.8004C48.9684 78.7718 50.3257 78.4864 51.3083 78.6862C51.9557 78.8175 52.359 78.9488 52.9326 79.1657C53.2336 79.7023 51.9273 80.0505 50.7517 80.1704L50.746 80.1761Z" fill="url(#paint10_linear_974_11983)"/>
<path d="M64.3199 87.3513C64.4505 87.1972 64.8594 87.0945 65.5296 87.1002C66.1997 87.1002 66.5632 86.7006 66.5632 86.7006C66.5632 86.7006 65.5409 86.067 64.4164 85.9814C63.8257 85.9357 63.36 85.9928 62.7978 85.7816C62.474 85.7701 61.6335 86.0727 61.6846 86.3809C62.2014 86.946 62.6728 88.2932 63.7519 88.8069C64.3142 88.3959 64.0359 87.6653 64.3255 87.3513H64.3199Z" fill="url(#paint11_linear_974_11983)"/>
<path d="M52.3987 81.3634C52.1715 81.3805 52.3987 82.1511 52.535 82.3452C52.9496 82.6192 53.0291 82.6249 53.2166 82.6306C53.404 82.6421 53.4721 82.3738 53.5062 82.3053C53.5403 82.2368 52.8985 81.4604 52.3987 81.3634Z" fill="url(#paint12_linear_974_11983)"/>
<path d="M55.7666 84.5543C56.6469 85.3535 57.7033 85.6161 58.1974 85.6731C58.2201 85.5647 59.8274 85.7359 59.8274 85.7359C59.8274 85.7359 57.1297 84.9939 55.7666 84.5543Z" fill="url(#paint13_linear_974_11983)"/>
<path d="M55.1419 80.3302C55.1419 80.3302 56.4027 81.1465 56.5277 81.2207C56.6526 81.3006 57.6976 81.9685 58.3792 82.4822C59.0664 82.9902 60.5771 84.1376 60.5771 84.1376C60.5771 84.1376 60.4465 83.7323 60.1341 83.2699C59.8161 82.8076 58.3224 81.352 57.0559 80.5814C56.7492 80.393 55.8234 80.4501 55.1362 80.3302H55.1419Z" fill="url(#paint14_linear_974_11983)"/>
<path d="M51.5979 79.3485C51.5014 79.4284 51.314 79.4284 51.1834 79.3485C51.0527 79.2686 51.0243 79.1316 51.1209 79.0516C51.2174 78.9717 51.4049 78.9717 51.5355 79.0516C51.6661 79.1316 51.6945 79.2686 51.5979 79.3485Z" fill="#707C8A"/>
<path d="M42.8459 82.3738C43.0788 82.2197 43.2208 81.9229 43.4025 82.0713C43.5786 82.2197 43.8001 82.4081 44.6122 82.8819C44.6293 82.8933 44.6463 82.899 44.6634 82.9104C45.5209 83.407 47.6678 83.7666 50.1951 85.1081C52.6827 86.4267 54.0628 87.6654 55.3691 89.1267C55.3861 89.1495 55.4088 89.1724 55.4259 89.1952C56.6526 90.5709 56.7719 90.999 56.7208 90.9704C56.6697 90.9419 56.0676 90.6222 56.096 90.7421C56.1244 90.862 56.4482 91.2673 56.3005 91.2844C56.1528 91.3015 54.7103 91.1759 53.7618 90.8449C53.1427 90.628 52.7849 90.8277 52.234 90.5595C49.9225 89.4406 48.23 88.0079 47.2248 87.2201C46.282 86.4781 44.3283 84.1948 43.4252 83.447C43.3912 83.4184 43.3628 83.3956 43.3344 83.3785C42.7494 82.9389 42.6074 82.9104 42.4711 82.8362C41.8577 82.5165 42.579 82.5337 42.8459 82.3795V82.3738Z" fill="url(#paint15_linear_974_11983)"/>
<path d="M53.5062 88.7213C54.5342 88.55 55.0226 88.8925 55.3747 89.1266C55.3918 89.1494 55.4145 89.1722 55.4315 89.1951C56.6583 90.5708 56.7775 90.9989 56.7264 90.9703C56.6753 90.9418 56.4709 90.9475 56.4993 91.0674C56.5277 91.1873 56.4481 91.2672 56.3005 91.2843C56.1528 91.3014 54.7727 91.4612 53.8129 91.1815C53.1825 90.9932 52.7849 90.8276 52.234 90.5593C53.137 90.605 51.4616 89.0695 53.5062 88.727V88.7213Z" fill="url(#paint16_linear_974_11983)"/>
<path d="M41.5851 81.4148C41.4431 81.5575 41.0229 81.6203 40.3584 81.5575C39.6882 81.4947 39.2963 81.8658 39.2963 81.8658C39.2963 81.8658 40.2561 82.585 41.375 82.7677C41.96 82.8647 42.4314 82.8476 42.9709 83.1045C43.2946 83.1444 44.1522 82.9161 44.1295 82.6021C43.6638 81.9914 43.3117 80.6157 42.278 80.0049C41.6817 80.3645 41.8975 81.118 41.5851 81.4034V81.4148Z" fill="url(#paint17_linear_974_11983)"/>
<path d="M52.9496 88.4188C53.1768 88.4188 53.0234 87.6368 52.8985 87.4313C52.5123 87.1231 52.4328 87.1116 52.2454 87.0831C52.0579 87.0546 51.9671 87.3171 51.9273 87.3799C51.8876 87.4484 52.4612 88.2761 52.9496 88.4131V88.4188Z" fill="url(#paint18_linear_974_11983)"/>
<path d="M49.8714 84.9482C49.0649 84.0749 48.0369 83.721 47.5428 83.6182C47.5144 83.7267 45.9242 83.4127 45.9242 83.4127C45.9242 83.4127 48.5481 84.3888 49.8657 84.9482H49.8714Z" fill="url(#paint19_linear_974_11983)"/>
<path d="M50.127 89.2065C50.127 89.2065 48.94 88.2875 48.8207 88.1962C48.7014 88.1106 47.7246 87.3456 47.0828 86.7805C46.4467 86.2154 45.0325 84.9368 45.0325 84.9368C45.0325 84.9368 45.1234 85.3535 45.4017 85.8387C45.6743 86.3239 47.043 87.9051 48.2357 88.7898C48.5254 89.0067 49.4511 89.0239 50.127 89.2065Z" fill="url(#paint20_linear_974_11983)"/>
<path d="M53.9719 90.0799C54.0912 89.9828 54.29 89.9828 54.4149 90.0799C54.5399 90.1769 54.5399 90.331 54.4149 90.4224C54.2957 90.5194 54.0969 90.5194 53.9719 90.4224C53.847 90.3253 53.847 90.1712 53.9719 90.0799Z" fill="#707C8A"/>
<path d="M70.8114 66.4078C71.0443 66.2536 71.1862 65.9568 71.368 66.1052C71.544 66.2536 71.7655 66.442 72.5777 66.9158C72.5947 66.9272 72.6118 66.9386 72.6288 66.9443C73.4864 67.441 75.6332 67.8063 78.1606 69.142C80.6482 70.4606 82.0283 71.6993 83.3345 73.1606C83.3516 73.1835 83.3743 73.2063 83.3913 73.2291C84.6181 74.6048 84.7373 75.0329 84.6862 75.0044C84.6351 74.9758 84.0331 74.6562 84.0615 74.7761C84.0899 74.8959 84.4136 75.3012 84.2659 75.3183C84.1183 75.3355 82.6757 75.2099 81.7272 74.8788C81.1082 74.6619 80.7504 74.8617 80.1995 74.5934C77.888 73.4746 76.1955 72.0418 75.1902 71.2541C74.2474 70.512 72.2937 68.2287 71.3907 67.4809C71.3566 67.4524 71.3282 67.4295 71.2998 67.4124C70.7148 66.9729 70.5729 66.9443 70.4366 66.8701C69.8232 66.5505 70.5445 66.5676 70.8114 66.4135V66.4078Z" fill="url(#paint21_linear_974_11983)"/>
<path d="M81.4717 72.7554C82.4996 72.5841 82.9881 72.9266 83.3402 73.1606C83.3572 73.1835 83.3799 73.2063 83.397 73.2291C84.6237 74.6048 84.743 75.0329 84.6919 75.0044C84.6408 74.9759 84.4363 74.9816 84.4647 75.1014C84.4931 75.2213 84.4136 75.3012 84.2659 75.3184C84.1183 75.3355 82.7382 75.4953 81.7783 75.2156C81.1479 75.0272 80.7504 74.8617 80.1995 74.5934C81.1025 74.6391 79.4271 73.1036 81.4717 72.7611V72.7554Z" fill="url(#paint22_linear_974_11983)"/>
<path d="M69.5563 65.4431C69.4143 65.5858 68.994 65.6486 68.3295 65.5858C67.6593 65.5231 67.2675 65.8941 67.2675 65.8941C67.2675 65.8941 68.2273 66.6133 69.3461 66.796C69.9311 66.893 70.4025 66.8759 70.942 67.1328C71.2658 67.1727 72.1234 66.9444 72.1006 66.6305C71.6349 66.0197 71.2828 64.644 70.2492 64.0332C69.6528 64.3928 69.8686 65.1463 69.5563 65.4317V65.4431Z" fill="url(#paint23_linear_974_11983)"/>
<path d="M80.9151 72.4471C81.1423 72.4471 80.9889 71.6651 80.864 71.4596C80.4778 71.1514 80.3983 71.14 80.2109 71.1114C80.0235 71.0829 79.9326 71.3455 79.8928 71.4082C79.8531 71.4767 80.4267 72.3044 80.9151 72.4414V72.4471Z" fill="url(#paint24_linear_974_11983)"/>
<path d="M77.8368 68.9766C77.0304 68.1032 76.0024 67.7493 75.5083 67.6465C75.4799 67.755 73.8896 67.441 73.8896 67.441C73.8896 67.441 76.5135 68.4171 77.8312 68.9766H77.8368Z" fill="url(#paint25_linear_974_11983)"/>
<path d="M78.0924 73.2349C78.0924 73.2349 76.9054 72.3158 76.7862 72.2245C76.6669 72.1389 75.69 71.374 75.0483 70.8089C74.4122 70.2437 72.998 68.9651 72.998 68.9651C72.998 68.9651 73.0889 69.3818 73.3671 69.867C73.6398 70.3522 75.0085 71.9334 76.2012 72.8182C76.4908 73.0351 77.4166 73.0522 78.0924 73.2349Z" fill="url(#paint26_linear_974_11983)"/>
<path d="M81.9374 74.1139C82.0567 74.0169 82.2554 74.0169 82.3804 74.1139C82.5053 74.2052 82.5053 74.3651 82.3804 74.4564C82.2554 74.5477 82.0623 74.5535 81.9374 74.4564C81.8125 74.3651 81.8125 74.2052 81.9374 74.1139Z" fill="#707C8A"/>
<path d="M76.576 78.2924C76.3545 78.4637 76.2409 78.7776 76.0478 78.6406C75.8604 78.5094 75.6218 78.3381 74.7699 77.9385C74.7529 77.9328 74.7359 77.9214 74.7131 77.9157C73.8158 77.499 71.6406 77.322 69.011 76.2089C66.4155 75.1129 64.9332 73.9998 63.5076 72.6584C63.4849 72.6413 63.4622 72.6184 63.4452 72.5956C62.1048 71.3341 61.9515 70.9174 62.0026 70.9402C62.0594 70.9631 62.6841 71.2313 62.6501 71.1115C62.6103 70.9973 62.2525 70.6148 62.4002 70.592C62.5478 70.5635 63.9961 70.5635 64.9673 70.8089C65.6034 70.9688 65.9441 70.7404 66.5121 70.9573C68.9088 71.8707 70.7205 73.1493 71.7939 73.8514C72.7935 74.5079 74.9403 76.6142 75.9058 77.2764C75.9399 77.2992 75.974 77.322 76.0024 77.3392C76.6271 77.7273 76.7691 77.7445 76.9111 77.8015C77.5472 78.0641 76.8259 78.1098 76.576 78.2867V78.2924Z" fill="url(#paint27_linear_974_11983)"/>
<path d="M64.3368 71.962C63.3032 72.0704 63.8825 72.8524 63.519 72.6527C63.4963 72.6355 63.4736 72.6127 63.4565 72.5899C62.1162 71.3283 61.9628 70.9116 62.014 70.9345C62.0707 70.9573 62.2695 70.9345 62.2298 70.8203C62.19 70.7061 62.2638 70.6148 62.4115 70.5863C62.5592 70.5577 63.9166 70.2723 64.8991 70.4721C65.5466 70.6034 65.9498 70.7347 66.5234 70.9516C66.8244 71.4882 65.5182 71.8364 64.3425 71.9562L64.3368 71.962Z" fill="url(#paint28_linear_974_11983)"/>
<path d="M77.9107 79.1372C78.0413 78.9831 78.4502 78.8803 79.1204 78.8861C79.7906 78.8861 80.154 78.4865 80.154 78.4865C80.154 78.4865 79.1318 77.8529 78.0072 77.7672C77.4166 77.7216 76.9509 77.7787 76.3886 77.5675C76.0649 77.556 75.2243 77.8586 75.2754 78.1668C75.7923 78.7319 76.2636 80.0791 77.3427 80.5928C77.905 80.1818 77.6267 79.4512 77.9107 79.1372Z" fill="url(#paint29_linear_974_11983)"/>
<path d="M65.9896 73.1493C65.7624 73.1664 65.9896 73.937 66.1259 74.1311C66.5405 74.4051 66.62 74.4051 66.8074 74.4165C66.9949 74.4279 67.063 74.1597 67.0971 74.0912C67.1312 74.0227 66.4894 73.2463 65.9896 73.1493Z" fill="url(#paint30_linear_974_11983)"/>
<path d="M69.3575 76.3402C70.2378 77.1394 71.2942 77.4019 71.7883 77.459C71.811 77.3506 73.4183 77.5218 73.4183 77.5218C73.4183 77.5218 70.7205 76.7797 69.3575 76.3402Z" fill="url(#paint31_linear_974_11983)"/>
<path d="M68.7327 72.1218C68.7327 72.1218 69.9936 72.9381 70.1185 73.0123C70.2435 73.0922 71.2885 73.7601 71.97 74.2738C72.6572 74.7819 74.1679 75.9292 74.1679 75.9292C74.1679 75.9292 74.0373 75.5239 73.7249 75.0616C73.4069 74.5992 71.9132 73.1436 70.6467 72.373C70.34 72.1846 69.4143 72.2417 68.7271 72.1218H68.7327Z" fill="url(#paint32_linear_974_11983)"/>
<path d="M65.1888 71.14C65.0922 71.2199 64.9048 71.2199 64.7742 71.14C64.6435 71.0601 64.6151 70.9231 64.7117 70.8431C64.8082 70.7632 64.9957 70.7632 65.1263 70.8431C65.2569 70.9231 65.2853 71.0601 65.1888 71.14Z" fill="#707C8A"/>
<path d="M84.5953 58.3078C84.8282 58.1537 84.9702 57.8568 85.1519 58.0053C85.328 58.1537 85.5495 58.342 86.3616 58.8158C86.3787 58.8272 86.3957 58.8387 86.4127 58.8444C87.2703 59.341 89.4172 59.7063 91.9445 61.042C94.4321 62.3606 95.8122 63.5993 97.1185 65.0606C97.1355 65.0835 97.1582 65.1063 97.1752 65.1291C98.402 66.5048 98.5213 66.9329 98.4702 66.9044C98.419 66.8759 97.817 66.5562 97.8454 66.6761C97.8738 66.796 98.1975 67.2012 98.0499 67.2184C97.9022 67.2355 96.4596 67.1099 95.5112 66.7788C94.8921 66.5619 94.5343 66.7617 93.9834 66.4934C91.6719 65.3746 89.9794 63.9418 88.9742 63.1541C88.0314 62.412 86.0777 60.1287 85.1746 59.3809C85.1406 59.3524 85.1122 59.3296 85.0838 59.3124C84.4988 58.8729 84.3568 58.8444 84.2205 58.7702C83.6071 58.4505 84.3284 58.4676 84.5953 58.3135V58.3078Z" fill="url(#paint33_linear_974_11983)"/>
<path d="M95.2557 64.6554C96.2836 64.4841 96.7721 64.8266 97.1242 65.0607C97.1412 65.0835 97.1639 65.1063 97.181 65.1292C98.4077 66.5048 98.527 66.933 98.4759 66.9044C98.4248 66.8759 98.2203 66.8816 98.2487 67.0015C98.2771 67.1213 98.1976 67.2013 98.0499 67.2184C97.9023 67.2355 96.5222 67.3953 95.5623 67.1156C94.9319 66.9273 94.5344 66.7617 93.9835 66.4934C94.8865 66.5391 93.2111 65.0036 95.2557 64.6611V64.6554Z" fill="url(#paint34_linear_974_11983)"/>
<path d="M83.3402 57.3488C83.1982 57.4915 82.7779 57.5543 82.1134 57.4915C81.4433 57.4287 81.0514 57.7997 81.0514 57.7997C81.0514 57.7997 82.0112 58.519 83.1301 58.7016C83.715 58.7987 84.1864 58.7815 84.726 59.0384C85.0497 59.0784 85.9073 58.85 85.8846 58.5361C85.4189 57.9253 85.0667 56.5496 84.0331 55.9388C83.4367 56.2985 83.6526 57.052 83.3402 57.3374V57.3488Z" fill="url(#paint35_linear_974_11983)"/>
<path d="M94.7047 64.3472C94.9319 64.3472 94.7786 63.5651 94.6536 63.3596C94.2674 63.0514 94.1879 63.04 94.0005 63.0114C93.8131 62.9829 93.7222 63.2455 93.6824 63.3083C93.6427 63.3768 94.2163 64.2045 94.7047 64.3415V64.3472Z" fill="url(#paint36_linear_974_11983)"/>
<path d="M91.6208 60.8766C90.8143 60.0032 89.7863 59.6493 89.2922 59.5466C89.2638 59.655 87.6736 59.3411 87.6736 59.3411C87.6736 59.3411 90.2975 60.3172 91.6151 60.8766H91.6208Z" fill="url(#paint37_linear_974_11983)"/>
<path d="M91.8764 65.1406C91.8764 65.1406 90.6894 64.2216 90.5701 64.1303C90.4508 64.0446 89.474 63.2797 88.8322 62.7146C88.1961 62.1495 86.7819 60.8708 86.7819 60.8708C86.7819 60.8708 86.8728 61.2876 87.1511 61.7728C87.4237 62.258 88.7924 63.8391 89.9851 64.7239C90.2748 64.9408 91.2005 64.958 91.8764 65.1406Z" fill="url(#paint38_linear_974_11983)"/>
<path d="M95.7213 66.0139C95.8406 65.9169 96.0394 65.9169 96.1643 66.0139C96.2893 66.111 96.2893 66.2651 96.1643 66.3564C96.0451 66.4535 95.8463 66.4535 95.7213 66.3564C95.5964 66.2651 95.5964 66.1053 95.7213 66.0139Z" fill="#707C8A"/>
<path d="M90.3599 70.1923C90.1441 70.3636 90.0249 70.6775 89.8318 70.5405C89.6443 70.4093 89.4058 70.238 88.5539 69.8384C88.5368 69.8327 88.5198 69.8213 88.4971 69.8156C87.5997 69.3989 85.4302 69.2219 82.7949 68.1088C80.1995 67.0128 78.7171 65.8997 77.2916 64.5583C77.2689 64.5412 77.2462 64.5183 77.2291 64.4955C75.8888 63.234 75.7354 62.8173 75.7865 62.8401C75.8433 62.863 76.4681 63.1312 76.434 63.0114C76.3942 62.8972 76.0364 62.5148 76.1841 62.4919C76.3318 62.4634 77.78 62.4634 78.7512 62.7088C79.3873 62.8687 79.7281 62.6403 80.296 62.8572C82.6927 63.7706 84.5045 65.0492 85.5779 65.7513C86.5774 66.4078 88.7243 68.5141 89.6898 69.1763C89.7238 69.1991 89.7579 69.2219 89.7863 69.2391C90.411 69.6272 90.553 69.6444 90.695 69.7014C91.3311 69.964 90.6098 70.0097 90.3599 70.1866V70.1923Z" fill="url(#paint39_linear_974_11983)"/>
<path d="M78.1208 63.8676C77.0872 63.9761 77.6665 64.7581 77.303 64.5583C77.2803 64.5412 77.2576 64.5183 77.2405 64.4955C75.9002 63.234 75.7468 62.8173 75.798 62.8401C75.8547 62.8629 76.0535 62.8401 76.0138 62.7259C75.974 62.6118 76.0478 62.5205 76.1955 62.4919C76.3432 62.4634 77.7006 62.178 78.6831 62.3777C79.3306 62.509 79.7338 62.6403 80.3074 62.8572C80.6084 63.3938 79.3022 63.742 78.1265 63.8619L78.1208 63.8676Z" fill="url(#paint40_linear_974_11983)"/>
<path d="M91.7003 71.0372C91.8309 70.8831 92.2398 70.7804 92.91 70.7861C93.5802 70.7861 93.9437 70.3865 93.9437 70.3865C93.9437 70.3865 92.9214 69.7529 91.7968 69.6673C91.2062 69.6216 90.7405 69.6787 90.1782 69.4675C89.8545 69.4561 89.0139 69.7586 89.065 70.0668C89.5819 70.632 90.0533 71.9791 91.1323 72.4928C91.6946 72.0819 91.4163 71.3512 91.706 71.0372H91.7003Z" fill="url(#paint41_linear_974_11983)"/>
<path d="M79.7735 65.0549C79.5464 65.0721 79.7735 65.8427 79.9098 66.0367C80.3244 66.3107 80.404 66.3107 80.5914 66.3222C80.7788 66.3336 80.8469 66.0653 80.881 65.9968C80.9151 65.9283 80.2733 65.152 79.7735 65.0549Z" fill="url(#paint42_linear_974_11983)"/>
<path d="M83.1414 68.2458C84.0217 69.045 85.0781 69.3076 85.5722 69.3647C85.5949 69.2562 87.2022 69.4275 87.2022 69.4275C87.2022 69.4275 84.5045 68.6854 83.1414 68.2458Z" fill="url(#paint43_linear_974_11983)"/>
<path d="M82.5223 64.0217C82.5223 64.0217 83.7832 64.838 83.9081 64.9122C84.0331 64.9864 85.0781 65.66 85.7596 66.1737C86.4468 66.6818 87.9575 67.8291 87.9575 67.8291C87.9575 67.8291 87.8269 67.4238 87.5146 66.9615C87.1965 66.4991 85.7028 65.0435 84.4363 64.2729C84.1296 64.0845 83.2039 64.1416 82.5167 64.0217H82.5223Z" fill="url(#paint44_linear_974_11983)"/>
<path d="M78.9727 63.04C78.8762 63.1199 78.6887 63.1199 78.5581 63.04C78.4275 62.9601 78.3991 62.8231 78.4956 62.7432C78.5922 62.6632 78.7796 62.6632 78.9102 62.7432C79.0409 62.8231 79.0693 62.9601 78.9727 63.04Z" fill="#707C8A"/>
<path d="M98.9756 50.5503C99.2085 50.3962 99.3505 50.0994 99.5322 50.2478C99.7083 50.3962 99.9298 50.5846 100.742 51.0584C100.759 51.0698 100.776 51.0812 100.793 51.0869C101.651 51.5835 103.797 51.9432 106.325 53.2846C108.812 54.6032 110.192 55.8419 111.499 57.3032C111.516 57.326 111.539 57.3489 111.556 57.3717C112.782 58.7474 112.902 59.1755 112.85 59.147C112.799 59.1184 112.197 58.7988 112.226 58.9186C112.254 59.0385 112.578 59.4438 112.43 59.4609C112.283 59.478 110.84 59.3525 109.891 59.0214C109.272 58.8045 108.915 59.0043 108.364 58.736C106.052 57.6172 104.36 56.1844 103.354 55.3966C102.412 54.6546 100.458 52.3713 99.5549 51.6235C99.5209 51.595 99.4925 51.5721 99.4641 51.555C98.8791 51.1155 98.7371 51.0869 98.6008 51.0127C97.9874 50.6931 98.7087 50.7102 98.9756 50.5561V50.5503Z" fill="url(#paint45_linear_974_11983)"/>
<path d="M109.636 56.8979C110.664 56.7267 111.152 57.0692 111.504 57.3032C111.521 57.326 111.544 57.3489 111.561 57.3717C112.788 58.7474 112.907 59.1755 112.856 59.147C112.805 59.1184 112.601 59.1241 112.629 59.244C112.657 59.3639 112.578 59.4438 112.43 59.4609C112.283 59.4781 110.902 59.6379 109.943 59.3582C109.312 59.1698 108.915 59.0043 108.364 58.736C109.267 58.7817 107.591 57.2461 109.636 56.9036V56.8979Z" fill="url(#paint46_linear_974_11983)"/>
<path d="M97.7148 49.5914C97.5728 49.7341 97.1526 49.7969 96.4881 49.7341C95.8179 49.6713 95.426 50.0423 95.426 50.0423C95.426 50.0423 96.3858 50.7616 97.5047 50.9499C98.0897 51.047 98.5611 51.0298 99.1006 51.2867C99.4243 51.3267 100.282 51.0983 100.259 50.7844C99.7935 50.1736 99.4414 48.7979 98.4077 48.1871C97.8114 48.5468 98.0272 49.3002 97.7148 49.5857V49.5914Z" fill="url(#paint47_linear_974_11983)"/>
<path d="M109.079 56.5953C109.306 56.5953 109.153 55.8133 109.028 55.6078C108.642 55.2996 108.562 55.2881 108.375 55.2596C108.188 55.2311 108.097 55.4936 108.057 55.5564C108.017 55.6192 108.591 56.4526 109.079 56.5896V56.5953Z" fill="url(#paint48_linear_974_11983)"/>
<path d="M106.001 53.1248C105.195 52.2514 104.167 51.8975 103.673 51.7947C103.644 51.9032 102.054 51.5892 102.054 51.5892C102.054 51.5892 104.678 52.5653 105.995 53.1248H106.001Z" fill="url(#paint49_linear_974_11983)"/>
<path d="M106.257 57.383C106.257 57.383 105.07 56.464 104.95 56.3727C104.831 56.2871 103.854 55.5222 103.213 54.957C102.576 54.3919 101.162 53.1133 101.162 53.1133C101.162 53.1133 101.253 53.53 101.531 54.0152C101.804 54.5004 103.173 56.0816 104.365 56.9663C104.655 57.1833 105.581 57.2004 106.257 57.383Z" fill="url(#paint50_linear_974_11983)"/>
<path d="M110.102 58.2565C110.221 58.1595 110.42 58.1595 110.545 58.2565C110.67 58.3478 110.67 58.5077 110.545 58.599C110.425 58.696 110.227 58.696 110.102 58.599C109.977 58.5019 109.977 58.3478 110.102 58.2565Z" fill="#707C8A"/>
<path d="M104.74 62.4349C104.524 62.6062 104.405 62.9201 104.212 62.7831C104.025 62.6518 103.786 62.4806 102.934 62.081C102.917 62.0753 102.9 62.0639 102.877 62.0582C101.98 61.6415 99.8105 61.4645 97.1753 60.3514C94.5798 59.2554 93.0974 58.1423 91.6719 56.8009C91.6492 56.7838 91.6265 56.7609 91.6094 56.7381C90.2691 55.4766 90.1157 55.0599 90.1668 55.0827C90.2236 55.1055 90.8484 55.3681 90.8143 55.254C90.7745 55.1398 90.4167 54.7573 90.5644 54.7345C90.7121 54.7117 92.1603 54.706 93.1315 54.9514C93.7676 55.1112 94.1084 54.8829 94.6763 55.0998C97.073 56.0131 98.8848 57.2918 99.9582 57.9939C100.958 58.6504 103.105 60.7567 104.07 61.4189C104.104 61.4417 104.138 61.4645 104.167 61.4816C104.791 61.8698 104.933 61.8869 105.075 61.944C105.711 62.2066 104.99 62.2523 104.74 62.4292V62.4349Z" fill="url(#paint51_linear_974_11983)"/>
<path d="M92.4954 56.1102C91.4618 56.2186 92.0411 57.0006 91.6776 56.8008C91.6549 56.7837 91.6321 56.7609 91.6151 56.7381C90.2748 55.4765 90.1214 55.0598 90.1725 55.0827C90.2293 55.1055 90.4281 55.0827 90.3883 54.9685C90.3486 54.8543 90.4224 54.763 90.5701 54.7345C90.7178 54.7059 92.0751 54.4205 93.0577 54.6203C93.7051 54.7516 94.1084 54.8829 94.682 55.0998C94.983 55.6364 93.6767 55.9846 92.5011 56.1044L92.4954 56.1102Z" fill="url(#paint52_linear_974_11983)"/>
<path d="M106.075 63.2854C106.206 63.1313 106.614 63.0285 107.285 63.0343C107.955 63.0343 108.318 62.6347 108.318 62.6347C108.318 62.6347 107.296 62.0011 106.171 61.9154C105.581 61.8698 105.115 61.9269 104.553 61.7156C104.229 61.7042 103.389 62.0068 103.44 62.315C103.956 62.8801 104.428 64.2273 105.507 64.741C106.069 64.33 105.791 63.5994 106.081 63.2854H106.075Z" fill="url(#paint53_linear_974_11983)"/>
<path d="M94.1481 57.2975C93.9209 57.3146 94.1481 58.0852 94.2844 58.2793C94.699 58.5533 94.7785 58.5533 94.966 58.5647C95.1534 58.5761 95.2215 58.3078 95.2556 58.2393C95.2897 58.1708 94.6479 57.3945 94.1481 57.2975Z" fill="url(#paint54_linear_974_11983)"/>
<path d="M97.5161 60.4884C98.3964 61.2876 99.4527 61.5501 99.9468 61.6072C99.9696 61.4988 101.577 61.67 101.577 61.67C101.577 61.67 98.8791 60.9279 97.5161 60.4884Z" fill="url(#paint55_linear_974_11983)"/>
<path d="M96.897 56.2643C96.897 56.2643 98.1578 57.0806 98.2828 57.1548C98.4077 57.2347 99.4527 57.9025 100.134 58.4163C100.821 58.9243 102.332 60.0717 102.332 60.0717C102.332 60.0717 102.202 59.6664 101.889 59.204C101.571 58.7417 100.077 57.2861 98.8109 56.5154C98.5043 56.3271 97.5785 56.3842 96.8913 56.2643H96.897Z" fill="url(#paint56_linear_974_11983)"/>
<path d="M93.353 55.2824C93.2565 55.3623 93.069 55.3623 92.9384 55.2824C92.8078 55.2025 92.7794 55.0655 92.8759 54.9856C92.9725 54.9057 93.1599 54.9057 93.2905 54.9856C93.4212 55.0655 93.4496 55.2025 93.353 55.2824Z" fill="#707C8A"/>
<g style="mix-blend-mode:multiply">
<path d="M116.718 106.805C112.981 108.974 106.898 108.963 103.133 106.782C99.3675 104.596 99.3505 101.068 103.093 98.8992C106.83 96.73 112.913 96.7414 116.678 98.922C120.444 101.108 120.461 104.636 116.718 106.805Z" fill="#B6B6CD"/>
</g>
<path d="M105.388 65.055C105.388 65.055 103.758 66.0653 103.559 66.0882C103.36 66.1167 102.304 66.345 102.304 66.345C102.304 66.345 101.673 67.0015 101.333 67.0414C100.992 67.0814 101.054 66.756 101.054 66.756L101.463 66.0082C101.463 66.0082 101.287 66.2366 101.088 66.2594L100.89 66.2879C100.89 66.2879 100.589 66.5277 100.35 66.385C100.117 66.2423 100.163 66.111 100.163 66.111L100.651 65.3518C100.651 65.3518 101.69 64.1702 101.73 64.1474C101.77 64.1245 104.485 62.4577 104.604 62.4178C104.729 62.3778 106.279 63.0913 106.291 63.1655C106.308 63.234 106.518 64.8723 106.518 64.8723L105.382 65.0607L105.388 65.055Z" fill="#F1C526"/>
<path d="M101.923 65.5973L102.826 65.0607C102.826 65.0607 103.979 64.4613 104.388 64.4442C104.797 64.4271 104.933 65.0207 104.894 65.2034C104.854 65.3861 103.894 65.9398 103.894 65.9398L102.446 66.3907C102.446 66.3907 101.866 66.9387 101.6 66.9901C101.333 67.0415 100.969 66.9273 100.969 66.9273L101.213 66.4706L101.918 65.603L101.923 65.5973Z" fill="#F1E326"/>
<path d="M116.446 101.479C116.656 101.651 116.803 101.805 116.866 101.964C116.928 102.13 117.053 102.752 117.042 102.855C117.031 102.958 116.536 103.551 115.764 103.591C114.992 103.631 114.452 103.283 114.407 103.255C114.361 103.226 113.901 102.821 113.901 102.821C113.901 102.821 113.68 102.45 113.606 102.398C113.532 102.347 112.873 101.925 112.657 101.896C112.442 101.867 111.431 101.297 111.431 101.297C111.431 101.297 110.374 100.246 110.34 100.109C110.306 99.9723 110.374 99.7839 110.601 99.744C110.829 99.704 112.158 99.6812 112.532 99.881C112.907 100.081 116.446 101.479 116.446 101.479Z" fill="#28292B"/>
<path d="M116.377 100.315C116.377 100.372 116.798 101.708 116.661 101.982C116.525 102.256 115.804 102.775 115.043 102.718C114.276 102.655 113.413 101.776 113.22 101.679C113.027 101.576 112.084 101.262 112.084 101.262C112.084 101.262 110.897 100.515 110.783 100.463C110.67 100.412 110.266 99.8296 110.266 99.8296C110.266 99.8296 111.067 99.3673 111.578 99.0476C112.089 98.7279 113.555 98.8478 113.952 99.1047C114.356 99.3616 116.377 100.321 116.377 100.321V100.315Z" fill="#4D3D30"/>
<path d="M116.565 100.84C116.474 101.188 114.736 101.576 113.861 101.297C113.822 101.285 113.776 101.268 113.742 101.257C112.964 100.966 112.703 100.44 112.623 99.921C112.544 99.373 111.169 87.7853 111.124 86.929C111.101 86.4495 111.033 82.6193 110.971 79.3542C110.925 76.8026 110.891 74.5935 110.891 74.5935L111.135 70.5406L115.605 70.6434C115.702 71.6024 116.57 73.8514 116.519 75.2956C116.474 76.7398 116.605 77.8358 115.94 79.554C115.332 82.4195 115.895 87.1916 116.11 88.5102C116.326 89.8231 116.536 93.2252 116.565 94.618C116.593 96.0108 116.639 100.498 116.548 100.846L116.565 100.84Z" fill="#1F6ECE"/>
<g style="mix-blend-mode:multiply">
<path d="M113.617 98.7622C113.657 99.5899 113.697 100.423 113.742 101.251C112.964 100.96 112.703 100.435 112.623 99.9152C112.544 99.3672 111.169 87.7795 111.124 86.9233C111.101 86.4438 111.033 82.6136 110.971 79.3484C111.243 78.9032 111.567 78.4865 111.987 78.184C112.328 77.9328 112.907 77.6531 113.35 77.7558C113.799 77.8643 113.844 78.4237 113.89 78.8575C114.003 79.9307 113.674 81.0038 113.418 82.0313C112.566 85.4677 112.549 89.1095 113.367 92.5516C113.521 93.1966 113.702 93.8417 113.731 94.5038C113.753 95.0861 113.651 95.6569 113.606 96.2334C113.538 97.0725 113.577 97.9231 113.623 98.7679L113.617 98.7622Z" fill="#E0C7BC"/>
</g>
<path d="M112.033 103.369C112.561 103.506 112.822 103.671 112.93 103.871C113.038 104.071 113.191 104.619 113.174 104.841C113.163 105.064 112.527 105.869 111.414 105.852C110.3 105.829 109.71 105.555 109.71 105.555L109.369 105.178C109.369 105.178 107.977 105.03 107.557 105.155C107.137 105.281 105.819 104.967 105.501 104.847C105.183 104.727 104.576 104.242 104.36 103.94C104.144 103.637 104.093 102.901 104.093 102.901C104.093 102.901 104.24 102.284 104.831 102.227C105.422 102.176 112.027 103.369 112.027 103.369H112.033Z" fill="#28292B"/>
<path d="M109 101.468C109 101.468 104.95 101.822 104.825 101.885C104.701 101.947 104.309 102.501 104.348 102.849C104.388 103.197 104.712 103.728 104.712 103.728C104.712 103.728 105.751 104.351 106.546 104.488C107.341 104.625 109.136 104.682 109.136 104.682L109.227 104.659C109.227 104.659 111.096 105.001 111.243 105.007C111.391 105.007 112.004 104.853 112.203 104.71C112.402 104.567 112.589 104.065 112.618 103.888C112.64 103.711 112.175 101.907 112.135 101.748C112.095 101.588 110.073 101.445 110.073 101.445L109.006 101.474L109 101.468Z" fill="#4D3D30"/>
<path d="M112.76 70.084C112.76 70.084 105.973 70.7576 105.819 71.865C105.672 72.9781 105.183 74.9189 105.257 77.8814C105.331 80.844 105.524 85.2337 106.058 88.4931C106.592 91.7525 108.426 101.885 108.511 102.221C108.597 102.558 108.892 103.494 110.459 103.357C112.027 103.22 112.447 102.906 112.476 102.661C112.504 102.415 112.356 95.8967 112.112 92.8313C111.868 89.766 112.396 82.0599 112.561 81.5461C112.725 81.0267 114.753 78.7491 114.781 76.9853C114.81 75.2214 114.111 72.4814 113.998 72.0305C113.884 71.5853 112.76 70.084 112.76 70.084Z" fill="#1F6ECE"/>
<path d="M109.738 103.226L108.381 95.4971C108.279 94.9034 108.182 94.3098 108.091 93.7161C107.943 92.7685 107.79 91.7924 107.591 90.8391C107.512 90.4624 107.432 90.0857 107.353 89.7146C107.001 88.0764 106.637 86.3867 106.484 84.6685C106.37 83.407 106.279 82.1341 106.211 80.8897C106.194 80.5472 106.171 80.2047 106.143 79.8622C106.075 78.9375 106.007 77.9785 106.069 77.0309C106.166 75.6095 106.467 74.1996 106.773 72.8867L107.109 72.9666C106.808 74.2681 106.507 75.6609 106.41 77.0594C106.348 77.9785 106.416 78.926 106.484 79.8394C106.507 80.1876 106.535 80.5301 106.552 80.8726C106.62 82.1169 106.705 83.3842 106.819 84.64C106.972 86.3353 107.319 87.9451 107.682 89.6461C107.762 90.0172 107.841 90.3939 107.921 90.7706C108.12 91.7296 108.273 92.7115 108.421 93.6647C108.511 94.2584 108.608 94.8463 108.71 95.44L110.068 103.169L109.727 103.232L109.738 103.226Z" fill="#3D85DB"/>
<path d="M117.275 62.6803C117.235 63.1598 116.122 68.9023 115.934 69.4674C115.747 70.0383 113.986 71.003 110.511 71.5909C108.392 71.9505 107.069 71.7336 106.336 71.4197C105.865 71.2199 105.638 70.9801 105.592 70.8203C105.473 70.415 105.649 65.6657 105.66 65.2319C105.672 64.7981 105.592 62.3778 105.592 62.3778C105.592 62.3778 105.683 60.9964 105.791 59.6378C105.887 58.4676 106.001 57.3089 106.081 57.0577C106.262 56.5097 107.87 55.7505 107.87 55.7505L109.437 54.9057C109.437 54.9057 110.357 54.1465 111.55 53.8497C112.743 53.5471 113.68 53.1647 113.986 53.1419C114.293 53.119 114.969 53.4558 115.026 53.4615C115.088 53.4672 116.497 53.6956 116.724 53.941C117.905 55.0199 117.837 56.1901 117.905 58.0624C117.968 59.9347 117.309 62.2065 117.269 62.686L117.275 62.6803Z" fill="#FFC620"/>
<path d="M117.36 62.2066C117.36 62.2066 116.798 61.8184 116.616 61.8298C116.434 61.847 112.845 63.4053 111.964 63.6736C111.084 63.9476 110.556 66.425 110.369 66.699C110.181 66.9673 108.443 67.9491 107.444 67.6237C106.45 67.2983 106.223 62.121 106.223 62.121L105.433 63.0229C105.433 63.0229 105.348 71.0487 105.547 72.1446C105.74 73.2406 110.777 72.5271 112.175 72.1446C113.572 71.7622 116.15 72.2074 116.105 71.4254C116.059 70.6434 116.463 67.892 116.463 67.892L117.36 62.2066Z" fill="#1F6ECE"/>
<g style="mix-blend-mode:multiply">
<path d="M110.357 60.2715C110.346 60.4427 110.323 60.6083 110.272 60.7681C110.238 60.8823 110.187 60.9964 110.136 61.1106C110.107 61.1677 110.079 61.2248 110.051 61.2819C109.642 62.1038 109.312 63.1998 108.511 63.725C107.904 64.1303 107.069 64.2616 106.643 64.9066C106.313 65.4032 106.251 66.1396 106.262 66.7161C106.274 67.344 106.206 67.9719 106.217 68.6055C106.228 69.5417 106.331 70.4835 106.331 71.4197C105.859 71.2199 105.632 70.9802 105.586 70.8203C105.467 70.415 105.643 65.6658 105.655 65.232C105.666 64.7981 105.586 62.3778 105.586 62.3778C105.586 62.3778 105.677 60.9964 105.785 59.6379C106.058 59.4267 106.359 59.2383 106.66 59.0613C107.228 58.736 107.847 58.4163 108.494 58.4848C109.017 58.5362 109.784 58.7189 110.119 59.1527C110.357 59.4609 110.386 59.8776 110.352 60.2658L110.357 60.2715Z" fill="#E0C7BC"/>
</g>
<path d="M113.986 53.1419C113.986 53.1419 112.919 53.4787 112.197 53.6785C111.584 53.844 110.266 54.4434 109.88 54.6203C109.812 54.6489 109.772 54.6717 109.772 54.6717L109.329 53.0448C109.329 53.0448 108.557 53.1305 108.301 53.0334C108.227 53.0049 108.125 52.8451 108.012 52.6338C107.722 52.0916 107.375 51.1897 107.37 51.1497C107.358 51.0926 107.023 49.8539 107.023 49.8539C107.023 49.8539 106.603 48.1129 106.58 48.073C106.558 48.033 105.785 45.8068 106.586 45.2588C107.387 44.7165 111.374 45.1846 111.981 45.9324C112.584 46.6801 113.328 49.9453 113.328 49.9453C113.293 50.1451 113.31 51.2296 113.339 51.3723C113.367 51.515 113.992 53.159 113.992 53.159L113.986 53.1419Z" fill="url(#paint57_linear_974_11983)"/>
<path d="M108.171 49.2089C108.171 49.2089 108.273 48.17 109.153 48.7865C110.039 49.403 110.618 50.1793 110.919 50.6531C111.22 51.1212 111.635 51.0812 111.726 51.0184C111.817 50.9556 113.225 50.6931 113.305 50.5618C113.384 50.4305 113.844 49.2489 114.072 48.8322C114.299 48.4212 114.174 46.5717 114.066 45.6698C113.958 44.7622 113.299 43.7347 112.203 43.2666C110.971 42.4561 109.352 42.77 108.421 43.181C107.489 43.592 106.103 45.1504 106.052 45.8125C106.001 46.469 106.529 47.2053 106.529 47.2053C106.529 47.2053 106.802 47.4736 106.904 47.6962C107.006 47.9189 107.552 48.3812 107.631 48.6153C107.705 48.8493 107.779 49.2774 107.779 49.2774L108.159 49.2146L108.171 49.2089Z" fill="#4A2D1C"/>
<path d="M113.685 49.6826C113.685 49.6826 112.998 49.4828 112.004 49.6484C111.01 49.8082 109.863 49.9909 109.261 50.5503C108.665 51.1097 107.943 51.4237 107.943 51.4237L107.796 50.9841C107.796 50.9841 108.335 50.8757 108.835 50.4647C109.335 50.0537 109.982 49.5399 111.885 49.3344C113.788 49.1289 113.788 49.4372 113.788 49.4372L113.68 49.6826H113.685Z" fill="#FAEAB0"/>
<path d="M108.841 50.4646C108.954 50.6016 109.221 50.6073 109.312 50.1963C109.403 49.7854 109.358 49.2317 109.21 48.9234C109.062 48.6152 108.954 48.3126 108.494 48.324C108.034 48.3355 108.279 49.1118 108.279 49.1118C108.279 49.1118 108.636 49.8424 108.653 50.008C108.67 50.1735 108.835 50.4646 108.835 50.4646H108.841Z" fill="url(#paint58_linear_974_11983)"/>
<g style="mix-blend-mode:multiply">
<path d="M109.88 54.6146C109.812 54.6432 109.772 54.666 109.772 54.666L109.329 53.0392C109.329 53.0392 108.557 53.1248 108.301 53.0278C108.227 52.9992 108.125 52.8394 108.012 52.6282C108.085 52.6681 108.165 52.7024 108.256 52.7252C108.597 52.8108 108.988 52.7766 109.329 52.6967C109.517 53.336 109.698 53.981 109.886 54.6204L109.88 54.6146Z" fill="#E0C7BC"/>
</g>
<path d="M107.046 49.9281L106.972 50.5446C106.972 50.5446 107.171 51.9717 107.194 52.0402C107.217 52.1029 108.12 53.2046 108.341 53.2046C108.563 53.2046 108.949 53.0619 108.949 53.0619L108.733 52.5368L108.097 51.886L107.5 50.0708L107.052 49.9281H107.046Z" fill="#FAEAB0"/>
<path d="M108.409 55.4652C109.244 55.1569 110.391 54.7516 111.522 56.6753C112.652 58.599 112.635 60.0774 112.419 62.4178C112.209 64.7582 111.919 65.9626 111.919 65.9626L113.316 65.5459C113.316 65.5459 114.066 61.7728 113.748 59.5237C113.43 57.2747 112.896 56.4812 112.129 55.6535C111.362 54.8258 109.874 54.6146 109.874 54.6146L109.431 54.9057L108.404 55.4594L108.409 55.4652Z" fill="#1F6ECE"/>
<path d="M115.031 53.4558C115.912 54.2264 116.906 54.7858 116.849 57.5372C116.792 60.2886 115.94 64.9522 115.94 64.9522L116.849 63.6735C116.849 63.6735 117.763 58.3649 117.706 57.3431C117.65 56.3213 117.502 54.5518 116.366 53.7526C115.741 53.5129 115.026 53.4501 115.026 53.4501L115.031 53.4558Z" fill="#1F6ECE"/>
<path d="M98.4077 64.193C98.4077 64.193 97.0049 64.3186 96.8686 64.3586C96.7323 64.3985 96.3802 64.6154 96.3518 64.6097C96.3234 64.6097 96.312 64.7924 96.4881 64.9522C96.6641 65.1121 97.0447 65.1805 97.0844 65.2034C97.1299 65.2262 97.5558 65.2719 97.6012 65.3404C97.641 65.4032 97.5217 65.6372 97.5217 65.6372C97.5217 65.6372 97.6126 65.7571 97.4025 65.8598C97.1923 65.9626 96.4143 65.9626 96.4143 65.9626C96.4143 65.9626 95.7384 65.5973 95.6589 65.563C95.5851 65.5288 94.8865 64.8666 94.8638 64.7638C94.8411 64.6611 94.8751 64.0446 94.8638 64.0104C94.8581 63.9704 94.9887 63.0628 95.108 62.8516C95.2329 62.6404 95.4601 62.549 95.4601 62.549C95.4601 62.549 96.3631 62.0981 96.579 62.0524C96.7948 62.0068 97.9193 61.8127 97.9193 61.8127L98.7201 61.6814L98.3964 64.1987L98.4077 64.193Z" fill="#F1C526"/>
<path d="M110.874 59.8548C110.823 60.5226 109.994 61.5901 109.108 62.315C108.829 62.5433 108.545 62.7374 108.284 62.8744C107.171 63.4567 103.815 64.8438 103.468 64.9522C103.241 65.0264 102.769 65.0721 102.383 65.0036C102.179 64.9693 102.003 64.9066 101.889 64.7981C101.81 64.7182 101.696 64.5584 101.577 64.3357C101.213 63.685 100.787 62.5662 100.969 61.8812C101.128 61.2818 101.673 60.808 102.02 60.5512L102.031 60.5455C102.207 60.4199 102.338 60.3457 102.338 60.3457L102.656 60.1801C102.656 60.1801 105.967 57.1148 106.399 56.8294C106.83 56.544 108.523 55.1626 109.63 56.3727C110.732 57.5829 110.936 58.9757 110.868 59.8491L110.874 59.8548Z" fill="#FFB41F"/>
<path d="M102.957 65.0321C102.957 65.0321 102.735 65.0264 102.383 65.0093C101.276 64.9465 98.8791 64.7524 98.0386 64.193C98.0215 64.1416 98.0045 64.0903 97.9931 64.0389C97.5217 62.4463 98.1692 61.9211 98.7258 61.6757L100.679 61.259C100.679 61.259 101.821 60.6824 102.026 60.5569L102.037 60.5512C102.043 60.5512 102.048 60.5455 102.048 60.5455C102.122 60.4884 102.616 63.177 102.843 64.4213C102.912 64.7924 102.951 65.0378 102.951 65.0378L102.957 65.0321Z" fill="#FFB41F"/>
<g style="mix-blend-mode:multiply">
<path d="M109.113 62.315C108.835 62.5434 108.551 62.7374 108.29 62.8744C107.177 63.4567 103.82 64.8438 103.474 64.9522C103.247 65.0265 102.775 65.0721 102.389 65.0036C101.281 64.9408 98.8848 64.7467 98.0442 64.1873C98.0272 64.136 98.0101 64.0846 97.9988 64.0332C98.2032 63.9133 98.4759 63.9533 98.7541 64.0732C99.3789 64.3529 100.077 64.4499 100.77 64.4442C101.054 64.4442 101.321 64.3871 101.588 64.3358C101.793 64.2958 101.997 64.2558 102.207 64.2444C102.44 64.2273 102.645 64.33 102.855 64.41C103.014 64.4728 103.173 64.5241 103.354 64.507C103.718 64.4728 104.059 64.33 104.394 64.193C104.916 63.9761 105.456 63.7821 105.967 63.5309C106.416 63.3083 106.91 63.2284 107.393 63.0742C107.995 62.8859 108.574 62.629 109.119 62.3093L109.113 62.315Z" fill="#E0C7BC"/>
</g>
<path d="M112.726 47.1539C112.3 47.2395 111.851 47.1767 111.419 47.2281C110.664 47.3194 109.937 47.7761 109.193 47.6277C109.005 47.5934 108.829 47.5192 108.648 47.4678C107.847 47.2509 106.933 47.4621 106.223 47.034C106.166 46.9998 106.115 46.9655 106.069 46.9198H106.041C106.041 46.9198 106.081 47.2623 106.211 47.5021C106.336 47.7475 108.108 48.1471 108.687 48.2099C109.267 48.267 111.277 48.2213 112.76 47.5763C114.242 46.9313 114.236 46.6858 114.236 46.6858V46.3033C114.236 46.3033 114.225 46.3091 114.225 46.3148C113.805 46.6801 113.288 47.034 112.731 47.1482L112.726 47.1539Z" fill="#78A2DE"/>
<path opacity="0.92" d="M112.623 42.6387C111.964 42.3933 111.26 42.2791 110.556 42.2962C110.204 42.3019 109.863 42.3761 109.517 42.4104C109.182 42.4446 108.852 42.4618 108.517 42.5417C108.142 42.633 107.773 42.7757 107.461 43.0041C107.217 43.181 107.006 43.4093 106.756 43.5863C106.586 43.7062 106.399 43.7975 106.24 43.9231C105.882 44.2028 105.66 44.6366 105.575 45.0819C105.524 45.3387 105.49 45.6527 105.552 45.9096C105.609 46.1436 105.831 46.3034 105.899 46.5317C105.922 46.606 105.927 46.6802 105.956 46.7544C106.001 46.88 106.109 46.9656 106.223 47.0341C106.933 47.4622 107.847 47.2567 108.648 47.4679C108.829 47.5193 109.006 47.5878 109.193 47.6277C109.943 47.7704 110.664 47.3195 111.425 47.2282C111.857 47.1768 112.305 47.2396 112.731 47.1539C113.288 47.0398 113.805 46.6859 114.225 46.3205C114.571 46.018 114.674 45.5157 114.725 45.0761C114.753 44.8535 114.759 44.6195 114.702 44.4026C114.674 44.2884 114.634 44.18 114.583 44.0715C114.401 43.7062 114.066 43.3123 113.668 43.181C113.577 43.1525 113.458 43.1525 113.379 43.0954C113.311 43.0497 113.271 42.9755 113.203 42.9241C113.032 42.8043 112.833 42.7186 112.635 42.6444L112.623 42.6387Z" fill="#B3CEFF"/>
<path d="M113.305 50.8072C113.305 50.8072 112.964 50.6188 112.339 50.7273C111.715 50.8357 110.124 51.4237 109.835 51.6463C109.545 51.8632 108.534 52.6224 108.534 52.6224L108.273 52.3941C108.273 52.3941 109.454 51.418 109.63 51.3381C109.806 51.2581 111.448 50.5731 112.22 50.459C112.987 50.3448 113.305 50.5617 113.305 50.5617V50.8072Z" fill="#FAEAB0"/>
</g>
<defs>
<linearGradient id="paint0_linear_974_11983" x1="40.5231" y1="44.8991" x2="46.5433" y2="44.8991" gradientUnits="userSpaceOnUse">
<stop offset="0.06" stop-color="#F7A986"/>
<stop offset="1" stop-color="#FDB797"/>
</linearGradient>
<linearGradient id="paint1_linear_974_11983" x1="42.7891" y1="42.6273" x2="49.1444" y2="42.6273" gradientUnits="userSpaceOnUse">
<stop offset="0.06" stop-color="#F7A986"/>
<stop offset="1" stop-color="#FDB797"/>
</linearGradient>
<linearGradient id="paint2_linear_974_11983" x1="42.0508" y1="42.6558" x2="43.2492" y2="42.6558" gradientUnits="userSpaceOnUse">
<stop offset="0.06" stop-color="#F7A986"/>
<stop offset="1" stop-color="#FDB797"/>
</linearGradient>
<linearGradient id="paint3_linear_974_11983" x1="397.422" y1="311.126" x2="395.274" y2="314.151" gradientUnits="userSpaceOnUse">
<stop offset="0.01" stop-color="#FEFEFE"/>
<stop offset="0.24" stop-color="#EAEFF2"/>
<stop offset="0.51" stop-color="#CFDBE1"/>
<stop offset="0.59" stop-color="#BBC6CE"/>
<stop offset="0.75" stop-color="#89929E"/>
<stop offset="0.86" stop-color="#666E7D"/>
</linearGradient>
<linearGradient id="paint4_linear_974_11983" x1="402.049" y1="314.977" x2="400.327" y2="317.402" gradientUnits="userSpaceOnUse">
<stop offset="0.01" stop-color="#FEFEFE"/>
<stop offset="0.29" stop-color="#EAEFF2"/>
<stop offset="0.61" stop-color="#CFDBE1"/>
<stop offset="0.69" stop-color="#BBC6CE"/>
<stop offset="0.86" stop-color="#89929E"/>
<stop offset="0.96" stop-color="#666E7D"/>
</linearGradient>
<linearGradient id="paint5_linear_974_11983" x1="390.574" y1="308.984" x2="387.621" y2="306.909" gradientUnits="userSpaceOnUse">
<stop offset="0.01" stop-color="#C2CDD4"/>
<stop offset="0.1" stop-color="#A5AFB9"/>
<stop offset="0.23" stop-color="#7E8896"/>
<stop offset="0.35" stop-color="#626B7C"/>
<stop offset="0.46" stop-color="#515A6C"/>
<stop offset="0.53" stop-color="#4B5467"/>
<stop offset="1" stop-color="#3C3C43"/>
</linearGradient>
<linearGradient id="paint6_linear_974_11983" x1="398.478" y1="312.421" x2="399.503" y2="314.174" gradientUnits="userSpaceOnUse">
<stop offset="0.02" stop-color="#D9E2E7"/>
<stop offset="1" stop-color="#A0ABB5"/>
</linearGradient>
<linearGradient id="paint7_linear_974_11983" x1="393.584" y1="310.142" x2="395.047" y2="309.506" gradientUnits="userSpaceOnUse">
<stop offset="0.02" stop-color="#4B5467"/>
<stop offset="1" stop-color="#606670"/>
</linearGradient>
<linearGradient id="paint8_linear_974_11983" x1="325.093" y1="272.696" x2="326.787" y2="272.007" gradientUnits="userSpaceOnUse">
<stop offset="0.21" stop-color="#4B5467"/>
<stop offset="1" stop-color="#3C3C43"/>
</linearGradient>
<linearGradient id="paint9_linear_974_11983" x1="-789.841" y1="-405.271" x2="-787.968" y2="-408.468" gradientUnits="userSpaceOnUse">
<stop offset="0.01" stop-color="#FEFEFE"/>
<stop offset="0.24" stop-color="#EAEFF2"/>
<stop offset="0.51" stop-color="#CFDBE1"/>
<stop offset="0.59" stop-color="#BBC6CE"/>
<stop offset="0.75" stop-color="#89929E"/>
<stop offset="0.86" stop-color="#666E7D"/>
</linearGradient>
<linearGradient id="paint10_linear_974_11983" x1="-795.153" y1="-408.92" x2="-793.648" y2="-411.487" gradientUnits="userSpaceOnUse">
<stop offset="0.01" stop-color="#FEFEFE"/>
<stop offset="0.29" stop-color="#EAEFF2"/>
<stop offset="0.61" stop-color="#CFDBE1"/>
<stop offset="0.69" stop-color="#BBC6CE"/>
<stop offset="0.86" stop-color="#89929E"/>
<stop offset="0.96" stop-color="#666E7D"/>
</linearGradient>
<linearGradient id="paint11_linear_974_11983" x1="-782.835" y1="-403.735" x2="-779.714" y2="-401.924" gradientUnits="userSpaceOnUse">
<stop offset="0.01" stop-color="#C2CDD4"/>
<stop offset="0.1" stop-color="#A5AFB9"/>
<stop offset="0.23" stop-color="#7E8896"/>
<stop offset="0.35" stop-color="#626B7C"/>
<stop offset="0.46" stop-color="#515A6C"/>
<stop offset="0.53" stop-color="#4B5467"/>
<stop offset="1" stop-color="#3C3C43"/>
</linearGradient>
<linearGradient id="paint12_linear_974_11983" x1="-791.005" y1="-406.47" x2="-792.181" y2="-408.122" gradientUnits="userSpaceOnUse">
<stop offset="0.02" stop-color="#D9E2E7"/>
<stop offset="1" stop-color="#A0ABB5"/>
</linearGradient>
<linearGradient id="paint13_linear_974_11983" x1="-785.933" y1="-404.626" x2="-787.337" y2="-403.865" gradientUnits="userSpaceOnUse">
<stop offset="0.02" stop-color="#4B5467"/>
<stop offset="1" stop-color="#606670"/>
</linearGradient>
<linearGradient id="paint14_linear_974_11983" x1="-740.761" y1="-402.248" x2="-742.385" y2="-401.41" gradientUnits="userSpaceOnUse">
<stop offset="0.21" stop-color="#4B5467"/>
<stop offset="1" stop-color="#3C3C43"/>
</linearGradient>
<linearGradient id="paint15_linear_974_11983" x1="388.167" y1="322.474" x2="386.019" y2="325.5" gradientUnits="userSpaceOnUse">
<stop offset="0.01" stop-color="#FEFEFE"/>
<stop offset="0.24" stop-color="#EAEFF2"/>
<stop offset="0.51" stop-color="#CFDBE1"/>
<stop offset="0.59" stop-color="#BBC6CE"/>
<stop offset="0.75" stop-color="#89929E"/>
<stop offset="0.86" stop-color="#666E7D"/>
</linearGradient>
<linearGradient id="paint16_linear_974_11983" x1="392.791" y1="326.329" x2="391.069" y2="328.755" gradientUnits="userSpaceOnUse">
<stop offset="0.01" stop-color="#FEFEFE"/>
<stop offset="0.29" stop-color="#EAEFF2"/>
<stop offset="0.61" stop-color="#CFDBE1"/>
<stop offset="0.69" stop-color="#BBC6CE"/>
<stop offset="0.86" stop-color="#89929E"/>
<stop offset="0.96" stop-color="#666E7D"/>
</linearGradient>
<linearGradient id="paint17_linear_974_11983" x1="381.32" y1="320.34" x2="378.367" y2="318.265" gradientUnits="userSpaceOnUse">
<stop offset="0.01" stop-color="#C2CDD4"/>
<stop offset="0.1" stop-color="#A5AFB9"/>
<stop offset="0.23" stop-color="#7E8896"/>
<stop offset="0.35" stop-color="#626B7C"/>
<stop offset="0.46" stop-color="#515A6C"/>
<stop offset="0.53" stop-color="#4B5467"/>
<stop offset="1" stop-color="#3C3C43"/>
</linearGradient>
<linearGradient id="paint18_linear_974_11983" x1="389.225" y1="323.778" x2="390.253" y2="325.527" gradientUnits="userSpaceOnUse">
<stop offset="0.02" stop-color="#D9E2E7"/>
<stop offset="1" stop-color="#A0ABB5"/>
</linearGradient>
<linearGradient id="paint19_linear_974_11983" x1="384.33" y1="321.498" x2="385.79" y2="320.858" gradientUnits="userSpaceOnUse">
<stop offset="0.02" stop-color="#4B5467"/>
<stop offset="1" stop-color="#606670"/>
</linearGradient>
<linearGradient id="paint20_linear_974_11983" x1="315.578" y1="284.008" x2="317.267" y2="283.315" gradientUnits="userSpaceOnUse">
<stop offset="0.21" stop-color="#4B5467"/>
<stop offset="1" stop-color="#3C3C43"/>
</linearGradient>
<linearGradient id="paint21_linear_974_11983" x1="405.916" y1="299.335" x2="403.768" y2="302.36" gradientUnits="userSpaceOnUse">
<stop offset="0.01" stop-color="#FEFEFE"/>
<stop offset="0.24" stop-color="#EAEFF2"/>
<stop offset="0.51" stop-color="#CFDBE1"/>
<stop offset="0.59" stop-color="#BBC6CE"/>
<stop offset="0.75" stop-color="#89929E"/>
<stop offset="0.86" stop-color="#666E7D"/>
</linearGradient>
<linearGradient id="paint22_linear_974_11983" x1="410.543" y1="303.185" x2="408.821" y2="305.611" gradientUnits="userSpaceOnUse">
<stop offset="0.01" stop-color="#FEFEFE"/>
<stop offset="0.29" stop-color="#EAEFF2"/>
<stop offset="0.61" stop-color="#CFDBE1"/>
<stop offset="0.69" stop-color="#BBC6CE"/>
<stop offset="0.86" stop-color="#89929E"/>
<stop offset="0.96" stop-color="#666E7D"/>
</linearGradient>
<linearGradient id="paint23_linear_974_11983" x1="399.068" y1="297.193" x2="396.114" y2="295.118" gradientUnits="userSpaceOnUse">
<stop offset="0.01" stop-color="#C2CDD4"/>
<stop offset="0.1" stop-color="#A5AFB9"/>
<stop offset="0.23" stop-color="#7E8896"/>
<stop offset="0.35" stop-color="#626B7C"/>
<stop offset="0.46" stop-color="#515A6C"/>
<stop offset="0.53" stop-color="#4B5467"/>
<stop offset="1" stop-color="#3C3C43"/>
</linearGradient>
<linearGradient id="paint24_linear_974_11983" x1="406.973" y1="300.63" x2="407.998" y2="302.384" gradientUnits="userSpaceOnUse">
<stop offset="0.02" stop-color="#D9E2E7"/>
<stop offset="1" stop-color="#A0ABB5"/>
</linearGradient>
<linearGradient id="paint25_linear_974_11983" x1="402.078" y1="298.351" x2="403.541" y2="297.714" gradientUnits="userSpaceOnUse">
<stop offset="0.02" stop-color="#4B5467"/>
<stop offset="1" stop-color="#606670"/>
</linearGradient>
<linearGradient id="paint26_linear_974_11983" x1="333.859" y1="260.958" x2="335.549" y2="260.265" gradientUnits="userSpaceOnUse">
<stop offset="0.21" stop-color="#4B5467"/>
<stop offset="1" stop-color="#3C3C43"/>
</linearGradient>
<linearGradient id="paint27_linear_974_11983" x1="-781.404" y1="-416.469" x2="-779.527" y2="-419.671" gradientUnits="userSpaceOnUse">
<stop offset="0.01" stop-color="#FEFEFE"/>
<stop offset="0.24" stop-color="#EAEFF2"/>
<stop offset="0.51" stop-color="#CFDBE1"/>
<stop offset="0.59" stop-color="#BBC6CE"/>
<stop offset="0.75" stop-color="#89929E"/>
<stop offset="0.86" stop-color="#666E7D"/>
</linearGradient>
<linearGradient id="paint28_linear_974_11983" x1="-786.72" y1="-420.12" x2="-785.215" y2="-422.687" gradientUnits="userSpaceOnUse">
<stop offset="0.01" stop-color="#FEFEFE"/>
<stop offset="0.29" stop-color="#EAEFF2"/>
<stop offset="0.61" stop-color="#CFDBE1"/>
<stop offset="0.69" stop-color="#BBC6CE"/>
<stop offset="0.86" stop-color="#89929E"/>
<stop offset="0.96" stop-color="#666E7D"/>
</linearGradient>
<linearGradient id="paint29_linear_974_11983" x1="-774.401" y1="-414.935" x2="-771.28" y2="-413.125" gradientUnits="userSpaceOnUse">
<stop offset="0.01" stop-color="#C2CDD4"/>
<stop offset="0.1" stop-color="#A5AFB9"/>
<stop offset="0.23" stop-color="#7E8896"/>
<stop offset="0.35" stop-color="#626B7C"/>
<stop offset="0.46" stop-color="#515A6C"/>
<stop offset="0.53" stop-color="#4B5467"/>
<stop offset="1" stop-color="#3C3C43"/>
</linearGradient>
<linearGradient id="paint30_linear_974_11983" x1="-782.572" y1="-417.67" x2="-783.746" y2="-419.327" gradientUnits="userSpaceOnUse">
<stop offset="0.02" stop-color="#D9E2E7"/>
<stop offset="1" stop-color="#A0ABB5"/>
</linearGradient>
<linearGradient id="paint31_linear_974_11983" x1="-777.5" y1="-415.826" x2="-778.899" y2="-415.062" gradientUnits="userSpaceOnUse">
<stop offset="0.02" stop-color="#4B5467"/>
<stop offset="1" stop-color="#606670"/>
</linearGradient>
<linearGradient id="paint32_linear_974_11983" x1="-732.078" y1="-413.428" x2="-733.707" y2="-412.594" gradientUnits="userSpaceOnUse">
<stop offset="0.21" stop-color="#4B5467"/>
<stop offset="1" stop-color="#3C3C43"/>
</linearGradient>
<linearGradient id="paint33_linear_974_11983" x1="414.597" y1="287.649" x2="412.45" y2="290.674" gradientUnits="userSpaceOnUse">
<stop offset="0.01" stop-color="#FEFEFE"/>
<stop offset="0.24" stop-color="#EAEFF2"/>
<stop offset="0.51" stop-color="#CFDBE1"/>
<stop offset="0.59" stop-color="#BBC6CE"/>
<stop offset="0.75" stop-color="#89929E"/>
<stop offset="0.86" stop-color="#666E7D"/>
</linearGradient>
<linearGradient id="paint34_linear_974_11983" x1="419.221" y1="291.504" x2="417.503" y2="293.925" gradientUnits="userSpaceOnUse">
<stop offset="0.01" stop-color="#FEFEFE"/>
<stop offset="0.29" stop-color="#EAEFF2"/>
<stop offset="0.61" stop-color="#CFDBE1"/>
<stop offset="0.69" stop-color="#BBC6CE"/>
<stop offset="0.86" stop-color="#89929E"/>
<stop offset="0.96" stop-color="#666E7D"/>
</linearGradient>
<linearGradient id="paint35_linear_974_11983" x1="407.754" y1="285.51" x2="404.801" y2="283.435" gradientUnits="userSpaceOnUse">
<stop offset="0.01" stop-color="#C2CDD4"/>
<stop offset="0.1" stop-color="#A5AFB9"/>
<stop offset="0.23" stop-color="#7E8896"/>
<stop offset="0.35" stop-color="#626B7C"/>
<stop offset="0.46" stop-color="#515A6C"/>
<stop offset="0.53" stop-color="#4B5467"/>
<stop offset="1" stop-color="#3C3C43"/>
</linearGradient>
<linearGradient id="paint36_linear_974_11983" x1="415.658" y1="288.948" x2="416.684" y2="290.701" gradientUnits="userSpaceOnUse">
<stop offset="0.02" stop-color="#D9E2E7"/>
<stop offset="1" stop-color="#A0ABB5"/>
</linearGradient>
<linearGradient id="paint37_linear_974_11983" x1="410.76" y1="286.673" x2="412.223" y2="286.029" gradientUnits="userSpaceOnUse">
<stop offset="0.02" stop-color="#4B5467"/>
<stop offset="1" stop-color="#606670"/>
</linearGradient>
<linearGradient id="paint38_linear_974_11983" x1="342.808" y1="249.327" x2="344.502" y2="248.638" gradientUnits="userSpaceOnUse">
<stop offset="0.21" stop-color="#4B5467"/>
<stop offset="1" stop-color="#3C3C43"/>
</linearGradient>
<linearGradient id="paint39_linear_974_11983" x1="-772.772" y1="-427.553" x2="-770.895" y2="-430.755" gradientUnits="userSpaceOnUse">
<stop offset="0.01" stop-color="#FEFEFE"/>
<stop offset="0.24" stop-color="#EAEFF2"/>
<stop offset="0.51" stop-color="#CFDBE1"/>
<stop offset="0.59" stop-color="#BBC6CE"/>
<stop offset="0.75" stop-color="#89929E"/>
<stop offset="0.86" stop-color="#666E7D"/>
</linearGradient>
<linearGradient id="paint40_linear_974_11983" x1="-778.086" y1="-431.209" x2="-776.584" y2="-433.772" gradientUnits="userSpaceOnUse">
<stop offset="0.01" stop-color="#FEFEFE"/>
<stop offset="0.29" stop-color="#EAEFF2"/>
<stop offset="0.61" stop-color="#CFDBE1"/>
<stop offset="0.69" stop-color="#BBC6CE"/>
<stop offset="0.86" stop-color="#89929E"/>
<stop offset="0.96" stop-color="#666E7D"/>
</linearGradient>
<linearGradient id="paint41_linear_974_11983" x1="-765.77" y1="-426.019" x2="-762.649" y2="-424.208" gradientUnits="userSpaceOnUse">
<stop offset="0.01" stop-color="#C2CDD4"/>
<stop offset="0.1" stop-color="#A5AFB9"/>
<stop offset="0.23" stop-color="#7E8896"/>
<stop offset="0.35" stop-color="#626B7C"/>
<stop offset="0.46" stop-color="#515A6C"/>
<stop offset="0.53" stop-color="#4B5467"/>
<stop offset="1" stop-color="#3C3C43"/>
</linearGradient>
<linearGradient id="paint42_linear_974_11983" x1="-773.94" y1="-428.753" x2="-775.113" y2="-430.41" gradientUnits="userSpaceOnUse">
<stop offset="0.02" stop-color="#D9E2E7"/>
<stop offset="1" stop-color="#A0ABB5"/>
</linearGradient>
<linearGradient id="paint43_linear_974_11983" x1="-768.865" y1="-426.915" x2="-770.271" y2="-426.149" gradientUnits="userSpaceOnUse">
<stop offset="0.02" stop-color="#4B5467"/>
<stop offset="1" stop-color="#606670"/>
</linearGradient>
<linearGradient id="paint44_linear_974_11983" x1="-723.205" y1="-424.506" x2="-724.829" y2="-423.669" gradientUnits="userSpaceOnUse">
<stop offset="0.21" stop-color="#4B5467"/>
<stop offset="1" stop-color="#3C3C43"/>
</linearGradient>
<linearGradient id="paint45_linear_974_11983" x1="423.855" y1="276.296" x2="421.708" y2="279.321" gradientUnits="userSpaceOnUse">
<stop offset="0.01" stop-color="#FEFEFE"/>
<stop offset="0.24" stop-color="#EAEFF2"/>
<stop offset="0.51" stop-color="#CFDBE1"/>
<stop offset="0.59" stop-color="#BBC6CE"/>
<stop offset="0.75" stop-color="#89929E"/>
<stop offset="0.86" stop-color="#666E7D"/>
</linearGradient>
<linearGradient id="paint46_linear_974_11983" x1="428.48" y1="280.151" x2="426.758" y2="282.577" gradientUnits="userSpaceOnUse">
<stop offset="0.01" stop-color="#FEFEFE"/>
<stop offset="0.29" stop-color="#EAEFF2"/>
<stop offset="0.61" stop-color="#CFDBE1"/>
<stop offset="0.69" stop-color="#BBC6CE"/>
<stop offset="0.86" stop-color="#89929E"/>
<stop offset="0.96" stop-color="#666E7D"/>
</linearGradient>
<linearGradient id="paint47_linear_974_11983" x1="417.005" y1="274.159" x2="414.051" y2="272.083" gradientUnits="userSpaceOnUse">
<stop offset="0.01" stop-color="#C2CDD4"/>
<stop offset="0.1" stop-color="#A5AFB9"/>
<stop offset="0.23" stop-color="#7E8896"/>
<stop offset="0.35" stop-color="#626B7C"/>
<stop offset="0.46" stop-color="#515A6C"/>
<stop offset="0.53" stop-color="#4B5467"/>
<stop offset="1" stop-color="#3C3C43"/>
</linearGradient>
<linearGradient id="paint48_linear_974_11983" x1="424.91" y1="277.596" x2="425.938" y2="279.345" gradientUnits="userSpaceOnUse">
<stop offset="0.02" stop-color="#D9E2E7"/>
<stop offset="1" stop-color="#A0ABB5"/>
</linearGradient>
<linearGradient id="paint49_linear_974_11983" x1="420.015" y1="275.317" x2="421.482" y2="274.676" gradientUnits="userSpaceOnUse">
<stop offset="0.02" stop-color="#4B5467"/>
<stop offset="1" stop-color="#606670"/>
</linearGradient>
<linearGradient id="paint50_linear_974_11983" x1="352.328" y1="238.019" x2="354.018" y2="237.325" gradientUnits="userSpaceOnUse">
<stop offset="0.21" stop-color="#4B5467"/>
<stop offset="1" stop-color="#3C3C43"/>
</linearGradient>
<linearGradient id="paint51_linear_974_11983" x1="-763.552" y1="-438.299" x2="-761.675" y2="-441.5" gradientUnits="userSpaceOnUse">
<stop offset="0.01" stop-color="#FEFEFE"/>
<stop offset="0.24" stop-color="#EAEFF2"/>
<stop offset="0.51" stop-color="#CFDBE1"/>
<stop offset="0.59" stop-color="#BBC6CE"/>
<stop offset="0.75" stop-color="#89929E"/>
<stop offset="0.86" stop-color="#666E7D"/>
</linearGradient>
<linearGradient id="paint52_linear_974_11983" x1="-768.864" y1="-441.947" x2="-767.359" y2="-444.515" gradientUnits="userSpaceOnUse">
<stop offset="0.01" stop-color="#FEFEFE"/>
<stop offset="0.29" stop-color="#EAEFF2"/>
<stop offset="0.61" stop-color="#CFDBE1"/>
<stop offset="0.69" stop-color="#BBC6CE"/>
<stop offset="0.86" stop-color="#89929E"/>
<stop offset="0.96" stop-color="#666E7D"/>
</linearGradient>
<linearGradient id="paint53_linear_974_11983" x1="-756.546" y1="-436.762" x2="-753.425" y2="-434.951" gradientUnits="userSpaceOnUse">
<stop offset="0.01" stop-color="#C2CDD4"/>
<stop offset="0.1" stop-color="#A5AFB9"/>
<stop offset="0.23" stop-color="#7E8896"/>
<stop offset="0.35" stop-color="#626B7C"/>
<stop offset="0.46" stop-color="#515A6C"/>
<stop offset="0.53" stop-color="#4B5467"/>
<stop offset="1" stop-color="#3C3C43"/>
</linearGradient>
<linearGradient id="paint54_linear_974_11983" x1="-764.721" y1="-439.496" x2="-765.895" y2="-441.153" gradientUnits="userSpaceOnUse">
<stop offset="0.02" stop-color="#D9E2E7"/>
<stop offset="1" stop-color="#A0ABB5"/>
</linearGradient>
<linearGradient id="paint55_linear_974_11983" x1="-759.643" y1="-437.653" x2="-761.046" y2="-436.892" gradientUnits="userSpaceOnUse">
<stop offset="0.02" stop-color="#4B5467"/>
<stop offset="1" stop-color="#606670"/>
</linearGradient>
<linearGradient id="paint56_linear_974_11983" x1="-713.744" y1="-435.237" x2="-715.372" y2="-434.403" gradientUnits="userSpaceOnUse">
<stop offset="0.21" stop-color="#4B5467"/>
<stop offset="1" stop-color="#3C3C43"/>
</linearGradient>
<linearGradient id="paint57_linear_974_11983" x1="106.223" y1="49.8368" x2="113.986" y2="49.8368" gradientUnits="userSpaceOnUse">
<stop offset="0.06" stop-color="#F7A986"/>
<stop offset="1" stop-color="#FDB797"/>
</linearGradient>
<linearGradient id="paint58_linear_974_11983" x1="108.216" y1="49.4372" x2="109.363" y2="49.4372" gradientUnits="userSpaceOnUse">
<stop offset="0.06" stop-color="#F7A986"/>
<stop offset="1" stop-color="#FDB797"/>
</linearGradient>
<clipPath id="clip0_974_11983">
<rect width="148" height="108" fill="white" transform="translate(1 36)"/>
</clipPath>
</defs>
</svg>
