<svg width="150" height="150" viewBox="0 0 150 150" fill="none" xmlns="http://www.w3.org/2000/svg">
<g clip-path="url(#clip0_974_11984)">
<path d="M22.5136 130.948C51.3196 147.579 98.1749 147.494 127.168 130.761C156.156 114.028 156.304 86.9839 127.498 70.3533C98.6917 53.7226 51.8365 53.8078 22.843 70.5406C-6.15041 87.2735 -6.29239 114.317 22.5136 130.948Z" fill="#299CFF"/>
<path d="M132.2 88.5226H132.166L131.365 88.3295C131.286 88.3182 131.189 88.375 131.087 88.5112L130.326 89.5049C130.059 89.8569 129.838 90.595 129.838 91.1571V96.0742C129.838 96.6363 130.053 96.8067 130.326 96.4547L131.087 95.461C131.354 95.109 131.576 94.3709 131.576 93.8087V91.2423L132.206 88.5226H132.2Z" fill="#2E2E3B"/>
<path d="M131.956 95.654L131.195 96.6477C130.928 96.9997 130.707 96.8294 130.707 96.2672V91.3502C130.707 90.788 130.922 90.0499 131.195 89.6979L131.956 88.7042C132.223 88.3522 132.376 88.5282 132.445 89.0847C132.836 92.4801 132.445 94.0017 132.445 94.0017C132.308 94.6604 132.229 95.302 131.956 95.654Z" fill="url(#paint0_linear_974_11984)"/>
<g style="mix-blend-mode:multiply">
<path d="M129.718 115.061C127.1 112.495 55.4543 70.393 51.9785 70.251C51.0868 70.2169 49.0763 71.0686 46.566 72.3745C43.9989 71.0459 42.2951 70.268 41.8066 70.251C38.3308 70.1091 18.0042 83.4124 16.9308 84.4515C15.8574 85.4906 14.4659 87.2961 16.4196 88.426L88.8947 130.312C88.8947 130.312 90.9166 131.68 94.2447 131.902C97.5728 132.123 106.495 132.316 108.517 131.397C108.528 131.397 108.545 131.38 108.557 131.374C110.141 130.903 111.533 130.227 112.657 129.716C114.679 128.796 128.565 120.677 129.639 119.91C131.439 118.633 132.331 117.622 129.713 115.056L129.718 115.061Z" fill="#B6B6CD"/>
</g>
<path d="M89.4342 112.194L33.6509 80V77.4222L89.4342 109.622V112.194Z" fill="#1B1B1B"/>
<path d="M40.9661 82.8901L42.1133 83.5545L39.9097 84.7184L38.7625 84.0598L40.9661 82.8901Z" fill="#602929"/>
<path d="M45.4812 85.0874L40.4833 88.4261V82.0043L45.4812 78.6714V85.0874Z" fill="#1A1A1A"/>
<path d="M39.9097 88.0911L40.4833 88.4261V82.0044L39.9097 81.675V88.0911Z" fill="#292929"/>
<path d="M45.2711 84.7695L42.1531 87.5403L41.8407 90.277L44.2658 88.8746L44.5782 86.1378L47.6962 83.3727L45.2711 84.7695Z" fill="#292929"/>
<path d="M88.6505 114.919L92.0865 112.569L101.707 118.843L100.18 109.576L89.8715 107.016L88.6505 114.919Z" fill="#222222"/>
<path d="M103.394 121.023C103.394 117.929 101.208 114.158 98.5099 112.597C97.1639 111.819 95.9485 111.74 95.0625 112.239C95.0625 112.239 95.0512 112.245 95.0398 112.251L91.9559 114.033V116.424L98.8848 125.934L101.776 124.254C101.912 124.191 102.043 124.117 102.162 124.027C102.923 123.476 103.389 122.448 103.389 121.023H103.394Z" fill="#23222D"/>
<path d="M90.6042 117.122C90.6042 120.217 92.7908 123.987 95.4885 125.548C98.1862 127.104 100.373 125.861 100.373 122.766C100.373 119.672 98.1862 115.902 95.4885 114.34C92.7908 112.784 90.6042 114.028 90.6042 117.122Z" fill="#393843"/>
<path d="M100.106 122.681C100.106 125.656 98.0045 126.86 95.409 125.361C92.8135 123.862 90.7121 120.234 90.7121 117.259C90.7121 114.283 92.8135 113.08 95.409 114.579C98.0045 116.078 100.106 119.706 100.106 122.681Z" fill="#2D2C37"/>
<path d="M92.6545 118.309C92.6545 120.103 93.921 122.295 95.4885 123.198C97.056 124.1 98.3225 123.379 98.3225 121.579C98.3225 119.78 97.056 117.594 95.4885 116.691C93.921 115.788 92.6545 116.509 92.6545 118.309Z" fill="#C4C2BB"/>
<path d="M93.0634 118.542C93.0634 120.08 94.1481 121.954 95.4885 122.726C96.8288 123.499 97.9136 122.88 97.9136 121.341C97.9136 119.802 96.8288 117.929 95.4885 117.156C94.1481 116.384 93.0634 117.003 93.0634 118.542Z" fill="#B7B4A9"/>
<path d="M94.0289 119.848C94.1936 120.342 94.3356 120.592 94.6763 120.995C94.7956 121.137 94.8751 121.335 94.8354 121.455C94.7956 121.574 94.6252 121.54 94.4605 121.352C94.1084 120.955 93.7563 120.33 93.6029 119.831C93.5234 119.598 93.5916 119.439 93.7165 119.473C93.8415 119.507 93.9721 119.677 94.0289 119.853V119.848Z" fill="#504F58"/>
<path d="M96.9538 119.791C96.7891 119.297 96.6471 119.047 96.3063 118.644C96.1871 118.502 96.1075 118.303 96.1473 118.184C96.1871 118.065 96.3574 118.099 96.5221 118.286C96.8743 118.684 97.2264 119.308 97.3797 119.808C97.4592 120.041 97.3911 120.2 97.2662 120.166C97.1412 120.132 97.0106 119.961 96.9538 119.785V119.791Z" fill="#504F58"/>
<path d="M96.2496 121.937C96.596 121.949 96.7437 121.875 96.9197 121.585C96.9822 121.483 97.1128 121.472 97.2378 121.585C97.3627 121.699 97.4195 121.931 97.3343 122.068C97.1639 122.374 96.8005 122.567 96.4427 122.539C96.278 122.533 96.1076 122.357 96.0735 122.198C96.0394 122.034 96.1246 121.937 96.2439 121.943L96.2496 121.937Z" fill="#504F58"/>
<path d="M96.6584 122.471C96.4937 122.465 96.3234 122.289 96.2893 122.13C96.2722 122.051 96.2893 121.983 96.3177 121.937C96.295 121.937 96.2779 121.937 96.2495 121.937C96.1246 121.937 96.0451 122.034 96.0791 122.193C96.1132 122.357 96.2836 122.528 96.4483 122.533C96.6016 122.545 96.755 122.516 96.897 122.454C96.8175 122.471 96.7379 122.477 96.6584 122.471Z" fill="#999585"/>
<path d="M97.1355 121.523C97.0503 121.489 96.9708 121.517 96.9254 121.591C96.8402 121.727 96.7607 121.818 96.6641 121.869C96.8743 121.841 96.9992 121.744 97.1355 121.523Z" fill="#999585"/>
<path d="M94.7332 117.701C94.3867 117.69 94.2391 117.764 94.063 118.053C94.0005 118.156 93.8699 118.167 93.7449 118.053C93.62 117.94 93.5632 117.707 93.6484 117.571C93.8188 117.264 94.1823 117.071 94.5401 117.1C94.7048 117.105 94.8752 117.281 94.9092 117.44C94.9433 117.605 94.8581 117.701 94.7388 117.696L94.7332 117.701Z" fill="#504F58"/>
<path d="M94.5741 121.188C94.222 120.79 93.8699 120.166 93.7165 119.666C93.6881 119.587 93.6881 119.524 93.6881 119.467C93.5802 119.462 93.5291 119.609 93.5973 119.825C93.7506 120.325 94.1027 120.949 94.4549 121.347C94.6139 121.534 94.79 121.568 94.8297 121.449C94.8354 121.426 94.824 121.386 94.8183 121.358C94.7445 121.347 94.6593 121.296 94.5741 121.193V121.188Z" fill="#B7B4A9"/>
<path d="M97.3854 120.018C97.2605 119.984 97.1298 119.814 97.0731 119.638C96.9083 119.144 96.7664 118.894 96.4256 118.491C96.329 118.377 96.2779 118.241 96.2723 118.127C96.2098 118.116 96.1643 118.133 96.1473 118.19C96.1075 118.309 96.1871 118.508 96.3063 118.65C96.6471 119.047 96.7891 119.303 96.9538 119.797C97.0106 119.973 97.1412 120.143 97.2662 120.177C97.3513 120.2 97.4025 120.132 97.4081 120.018C97.4025 120.018 97.3911 120.018 97.3854 120.018Z" fill="#B7B4A9"/>
<path d="M93.8585 117.9C93.7392 117.787 93.6824 117.565 93.7563 117.429C93.7165 117.474 93.6711 117.52 93.6427 117.577C93.5575 117.713 93.6143 117.946 93.7392 118.059C93.8642 118.173 93.9948 118.161 94.0573 118.059C94.0913 118.002 94.1254 117.957 94.1652 117.912C94.097 118.002 93.9777 118.008 93.8585 117.9Z" fill="#B7B4A9"/>
<path d="M94.8467 117.548C94.5117 117.537 94.364 117.611 94.1936 117.872C94.3242 117.735 94.4719 117.69 94.7275 117.701C94.824 117.701 94.8808 117.633 94.8865 117.525C94.8695 117.525 94.8638 117.548 94.8411 117.548H94.8467Z" fill="#B7B4A9"/>
<path d="M95.6248 122.539C94.3356 121.795 93.2905 119.995 93.2905 118.513C93.2905 117.338 93.9494 116.725 94.8637 116.895C93.8244 116.611 93.0577 117.253 93.0577 118.542C93.0577 120.081 94.1424 121.954 95.4828 122.726C96.6187 123.385 97.5728 123.033 97.8341 121.977C97.5274 122.868 96.6528 123.135 95.6191 122.539H95.6248Z" fill="#999585"/>
<path d="M93.921 119.036C93.921 120.029 94.6252 121.244 95.4942 121.744C96.3631 122.244 97.0617 121.846 97.0617 120.847C97.0617 119.848 96.3574 118.638 95.4942 118.139C94.6252 117.639 93.921 118.036 93.921 119.036Z" fill="#C4C2BB"/>
<path d="M94.1879 119.195C94.1879 120.018 94.7729 121.029 95.4885 121.443C96.2098 121.858 96.7891 121.528 96.7891 120.699C96.7891 119.87 96.2041 118.865 95.4885 118.451C94.7672 118.036 94.1879 118.366 94.1879 119.195Z" fill="#B7B4A9"/>
<path d="M95.6646 121.233C94.9944 120.847 94.4435 119.905 94.4435 119.132C94.4435 118.633 94.6707 118.332 95.0114 118.281C94.5287 118.218 94.1823 118.559 94.1823 119.195C94.1823 120.018 94.7672 121.029 95.4828 121.443C96.0508 121.773 96.5392 121.631 96.7153 121.148C96.5051 121.443 96.1132 121.5 95.6589 121.239L95.6646 121.233Z" fill="#999585"/>
<path d="M125.192 105.375V105.823L132.212 109.605V109.15L125.192 105.375Z" fill="#292929"/>
<path d="M132.212 112.234L125.192 108.458V109.105L126.299 111.064L130.695 113.324L132.212 112.569V112.234Z" fill="#292929"/>
<path d="M125.192 105.823V108.458L132.212 112.234V109.605L125.192 105.823Z" fill="#222222"/>
<path d="M103.002 119.189V121.818L109.789 125.736V123.101L103.002 119.189Z" fill="#222222"/>
<path d="M101.526 119.036V119.484L108.307 123.402V122.948L101.526 119.036Z" fill="#292929"/>
<path d="M131.439 114.539L133.45 112.387L131.257 114.545L112.782 125.208L106.103 125.151L106.399 126.099L108.273 126.985C108.273 126.985 111.584 126.088 112.464 125.736C117.161 123.856 125.163 118.934 129.576 116.066C129.849 115.89 131.439 114.539 131.439 114.539Z" fill="#B9B3C0"/>
<path d="M133.279 112.853C133.279 112.853 132.138 113.903 131.797 114.176C129.548 115.981 118.581 122.812 112.311 125.423C111.823 125.628 109.897 126.275 109.897 126.275C109.023 126.593 108.301 126.4 107.569 125.98L106.098 125.151V122.505L129.684 112.96L131.928 110.928L132.973 111.257C133.705 111.683 133.399 112.716 133.274 112.847L133.279 112.853Z" fill="#D0CCD5"/>
<path d="M133.45 109.491V112.381C133.45 112.381 131.786 114.068 131.257 114.539C128.497 116.975 117.564 122.993 112.782 125.202C111.976 125.571 109.448 126.394 109.448 126.394V123.504L112.782 122.312L131.257 111.649L133.45 109.491Z" fill="#D0CCD5"/>
<path d="M133.279 110.207C133.279 110.207 132.138 111.257 131.797 111.529C129.548 113.335 118.581 120.166 112.311 122.777C111.823 122.982 110.323 123.504 110.323 123.504C109.449 123.822 108.307 123.754 107.569 123.328L106.098 122.499L106.711 122.051L110.198 121.557L129.696 110.428L132.121 108.117L132.973 108.605C133.705 109.031 133.399 110.065 133.274 110.195L133.279 110.207Z" fill="#E0DAD3"/>
<path d="M109.136 123.482C108.591 123.482 108.063 123.357 107.682 123.135L106.512 122.477L106.802 122.266L110.272 121.778L129.826 110.615L132.149 108.401L132.859 108.81C133.041 108.912 133.149 109.065 133.194 109.281C133.268 109.616 133.154 109.974 133.103 110.053C132.978 110.173 131.956 111.109 131.644 111.354C129.429 113.131 118.411 119.984 112.214 122.567C111.737 122.766 110.255 123.289 110.238 123.289C109.903 123.413 109.522 123.476 109.125 123.476L109.136 123.482Z" fill="#E9E7EB"/>
<path d="M56.8173 94.0643C56.8173 90.9698 54.6307 87.1996 51.933 85.6382C50.587 84.8603 49.3716 84.7809 48.4856 85.2805C48.4856 85.2805 48.4743 85.2862 48.4629 85.2919L45.379 87.0747V89.4651L52.3079 98.9757L55.1987 97.295C55.335 97.2325 55.4656 97.1587 55.5849 97.0679C56.3459 96.5171 56.8116 95.4894 56.8116 94.0643H56.8173Z" fill="#23222D"/>
<path d="M44.033 90.1692C44.033 93.2636 46.2195 97.0338 48.9173 98.5952C51.615 100.151 53.8016 98.9075 53.8016 95.813C53.8016 92.7186 51.615 88.9484 48.9173 87.387C46.2195 85.8312 44.033 87.0747 44.033 90.1692Z" fill="#393843"/>
<path d="M53.529 95.7278C53.529 98.7031 51.4276 99.9068 48.8321 98.4078C46.2366 96.9088 44.1352 93.2806 44.1352 90.3054C44.1352 87.3302 46.2366 86.1265 48.8321 87.6254C51.4276 89.1244 53.529 92.7526 53.529 95.7278Z" fill="#2D2C37"/>
<path d="M51.7513 94.6263C51.7513 96.4205 50.4847 97.1473 48.9172 96.2445C47.3497 95.3417 46.0832 93.1501 46.0832 91.3558C46.0832 89.5616 47.3497 88.8348 48.9172 89.7376C50.4847 90.6404 51.7513 92.8321 51.7513 94.6263Z" fill="#C4C2BB"/>
<path d="M51.4673 94.4617C51.4673 96.0743 50.3257 96.7272 48.9173 95.9153C47.5088 95.1033 46.3672 93.1331 46.3672 91.5206C46.3672 89.908 47.5088 89.2551 48.9173 90.067C49.0479 90.1408 49.1728 90.226 49.2978 90.3169C50.3996 91.1402 51.2685 92.6335 51.4389 93.9905C51.4616 94.1495 51.4673 94.3084 51.4673 94.4617Z" fill="#B0AC9E"/>
<path d="M49.8373 95.2566C48.5026 94.4901 47.4236 92.622 47.4236 91.0947C47.4236 90.4758 47.5996 90.0102 47.9006 89.7206C46.9976 89.6525 46.3672 90.3168 46.3672 91.5205C46.3672 93.133 47.5088 95.1033 48.9173 95.9152C49.9452 96.5057 50.8255 96.324 51.2344 95.5518C50.8426 95.6427 50.3598 95.5518 49.843 95.2566H49.8373Z" fill="#B7B4A9"/>
<g style="mix-blend-mode:multiply">
<path d="M51.3197 94.1777C51.3197 95.1714 50.6211 95.5688 49.7578 95.0692C48.8946 94.5695 48.196 93.3658 48.196 92.3722C48.196 91.3785 48.8946 90.9811 49.7578 91.4807C50.6211 91.9804 51.3197 93.1898 51.3197 94.1777Z" fill="#CDC6BC"/>
</g>
<path d="M51.4332 93.9904C51.1663 94.3822 50.6551 94.4503 50.0701 94.1153C49.2069 93.6156 48.5083 92.4063 48.5083 91.4183C48.5083 90.754 48.8263 90.3565 49.2921 90.3168C50.3939 91.1401 51.2628 92.6334 51.4332 93.9904Z" fill="#9D9783"/>
<path d="M48.9173 90.4474L47.7416 91.1231L50.0532 94.8762L51.2118 94.2062L50.4223 92.3211L48.9173 90.4474Z" fill="#9D9783"/>
<path d="M50.4791 93.8939C50.4791 94.8875 49.7805 95.285 48.9172 94.7853C48.054 94.2857 47.3554 93.0763 47.3554 92.0883C47.3554 91.1003 48.054 90.6972 48.9172 91.1969C49.7805 91.6965 50.4791 92.9002 50.4791 93.8939Z" fill="#B7B4A9"/>
<path d="M50.3258 93.8655C50.3258 94.8137 49.6556 95.1942 48.8321 94.7172C48.0086 94.2403 47.3384 93.0876 47.3384 92.1394C47.3384 91.1912 48.0086 90.8108 48.8321 91.2877C49.6556 91.7647 50.3258 92.9173 50.3258 93.8655Z" fill="#D5D2C9"/>
<path d="M112.833 54.2109V91.3957L112.106 91.8158L85.8051 106.999L84.5159 107.742V70.5577L112.833 54.2109Z" fill="#E0DAD3"/>
<g style="mix-blend-mode:multiply">
<path d="M112.107 70.8075V91.8158L85.8051 106.999V85.9903L86.8956 84.5026L110.925 70.6315L112.107 70.8075Z" fill="#D4D4D4"/>
</g>
<g style="mix-blend-mode:multiply">
<path d="M88.4233 69.3936L86.4298 72.7436V83.7304L109.608 70.268V65.2544L88.4233 69.3936Z" fill="#D4D4D4"/>
</g>
<path d="M110.88 72.2155L111.578 85.1669V93.2466L121.466 99.9522L124.692 105.085L131.439 108.708V103.586L132.001 104.16L131.763 100.066L132.001 99.2084L131.842 98.4078L131.388 96.5341C131.388 96.5341 130.672 93.4907 129.838 90.5893C129.003 87.6879 126.084 80.8744 126.084 80.8744L125.538 80.193L111.226 71.9316L110.874 72.2269L110.88 72.2155Z" fill="#98AC9F"/>
<path d="M111.578 85.167V93.2467L121.466 99.9523L124.692 105.085L131.439 108.708V103.586L131.996 104.154L131.763 100.06L126.106 96.5456L117.218 88.4261L111.578 85.167Z" fill="#7B9685"/>
<path d="M131.155 108.361L125.288 105.244L125.277 105.199C125.277 105.199 125.107 104.455 124.056 102.365C122.846 99.9579 120.467 97.7776 120.438 97.7605L113.526 93.7406C113.072 93.4794 112.72 92.8662 112.72 92.3438L112.021 74.1177C112.021 73.8792 112.106 73.6975 112.26 73.6066C112.419 73.5158 112.618 73.5328 112.828 73.6521L125.095 80.7324C125.391 80.9028 125.658 81.2264 125.817 81.6012C126.044 82.1462 126.458 83.1739 127.117 84.9625C128.276 88.091 130.707 95.4667 130.775 95.8584C130.837 96.2161 130.996 98.1807 131.002 98.2659V98.2772L131.155 108.367V108.361ZM125.459 105.119L130.956 108.021L130.803 98.2772C130.792 98.1693 130.638 96.2332 130.576 95.8925C130.513 95.5348 128.066 88.1081 126.924 85.0306C126.265 83.2478 125.851 82.2201 125.624 81.675C125.487 81.3457 125.243 81.0504 124.987 80.9028L112.72 73.8224C112.578 73.7372 112.447 73.7202 112.356 73.777C112.266 73.8281 112.214 73.9473 112.214 74.112L112.913 92.3381C112.913 92.7923 113.231 93.3374 113.623 93.5646L120.552 97.5959C120.592 97.6299 123.005 99.833 124.226 102.274C125.158 104.137 125.402 104.926 125.453 105.113L125.459 105.119Z" fill="#6F8B79"/>
<path d="M114.304 103.427C114.304 106.505 116.48 110.252 119.16 111.802C121.841 113.352 124.016 112.109 124.016 109.031C124.016 105.954 121.841 102.206 119.16 100.656C116.48 99.1063 114.304 100.35 114.304 103.427Z" fill="#222222"/>
<path d="M113.719 88.3522L114.889 89.0279C114.986 89.0847 115.071 89.238 115.071 89.3686V92.2359C115.071 92.3665 114.992 92.429 114.889 92.3722L113.719 91.6965C113.623 91.6397 113.538 91.4864 113.538 91.3558V88.4885C113.538 88.3579 113.617 88.2954 113.719 88.3522Z" fill="#383838"/>
<path d="M113.748 90.2203L114.867 90.8619V91.9804C114.867 92.0429 114.827 92.0713 114.781 92.0429L113.833 91.4921C113.788 91.4637 113.748 91.3956 113.748 91.3332V90.2146V90.2203Z" fill="#222222"/>
<path d="M57.0218 22L112.833 54.2166L84.5159 70.5576L28.7042 38.3468L57.0218 22Z" fill="#FCFBFA"/>
<path d="M84.5159 69.7173L29.4369 37.9209L28.7042 38.3467L84.5159 70.5576L112.833 54.2165L112.101 53.7907L84.5159 69.7173Z" fill="#F2EFEC"/>
<path d="M111.294 99.7365L113.123 100.793L114.055 98.8053L115.633 97.4086L120.841 100.412C120.841 100.412 122.92 101.752 124.499 105.727C124.931 106.794 125.43 109.253 125.43 109.253L125.805 109.185C125.805 109.185 125.896 107.992 125.277 105.681C124.658 103.365 122.329 100.106 120.66 98.7088C118.984 97.3177 111.578 93.2523 111.578 93.2523L111.3 97.0679V99.7422L111.294 99.7365Z" fill="#292929"/>
<path d="M132.178 107.924L126.935 112.529L113.276 120.415L107.535 122.505V117.06L132.212 104.966L132.178 107.924Z" fill="#EAE6E1"/>
<path d="M132.178 107.754V108.219L130.565 109.849L128.594 111.501L126.935 112.529L129.281 108.588L132.178 107.754Z" fill="#EAE6E1"/>
<path d="M88.6051 85.0705L87.9065 98.8281V106.908L97.7944 113.613L101.02 118.746L107.529 122.505V117.384L108.517 117.707V112.75L107.932 112.2L107.716 110.19C107.716 110.19 106.853 107.186 106.166 104.245C105.479 101.292 103.849 93.7123 103.809 93.7236L103.264 93.0423L88.9515 84.7809L88.5994 85.0761L88.6051 85.0705Z" fill="#D4CEC7"/>
<path d="M87.9065 98.828V106.908L97.8 113.613L101.02 118.746L107.535 122.505L108.307 122.051L108.523 120.961V113.471L102.44 110.207L93.5518 102.087L87.9065 98.828Z" fill="#D4CEC7"/>
<path d="M107.285 122.249L107.472 121.528V117.645V112.932L107.404 112.16L103.548 94.121L102.877 93.2466L88.6846 85.0079L88.9572 84.7751L103.275 93.0422L103.809 93.7179L107.87 111.331L108.296 112.024L107.938 112.194L108.523 112.75V121.937L107.733 122.386H107.535L107.285 122.249Z" fill="#E0DAD3"/>
<path d="M107.535 122.505L101.02 118.746V118.633L107.535 122.386V122.505Z" fill="#292929"/>
<path d="M93.2849 88.9257L102.27 94.1096C102.633 94.3197 102.889 94.6717 102.968 95.0862C103.252 96.4887 103.956 99.9181 104.587 102.729C105.388 106.277 105.552 107.862 105.552 107.862V110.502C105.552 110.757 105.371 110.86 105.149 110.735L103.031 109.514C102.628 109.281 96.6528 101.957 95.8463 101.491L92.5806 99.6059C92.3591 99.4753 92.1774 99.1687 92.1774 98.9132L92.8759 89.1585C92.8759 88.903 93.0577 88.8008 93.2792 88.9313L93.2849 88.9257Z" fill="#2E2E3B"/>
<path d="M103.19 109.247C103.014 109.111 101.815 107.714 100.662 106.363C98.2373 103.529 96.4881 101.502 96.0053 101.224L92.7396 99.339C92.609 99.2652 92.4897 99.0551 92.4897 98.9075L93.1826 89.2096L102.122 94.3708C102.412 94.5355 102.61 94.8194 102.679 95.143C102.957 96.5057 103.667 99.9749 104.297 102.791C105.041 106.096 105.24 107.708 105.257 107.879V110.445L103.19 109.253V109.247Z" fill="#494760"/>
<path d="M92.0752 104.069L93.2451 104.744C93.3417 104.801 93.4269 104.955 93.4269 105.085V107.952C93.4269 108.083 93.3474 108.146 93.2451 108.089L92.0752 107.413C91.9786 107.356 91.8934 107.203 91.8934 107.072V104.205C91.8934 104.074 91.9729 104.012 92.0752 104.069Z" fill="#383838"/>
<path d="M92.1036 105.937L93.2224 106.578V107.697C93.2224 107.759 93.1827 107.788 93.1372 107.759L92.1888 107.209C92.1433 107.18 92.1036 107.112 92.1036 107.05V105.931V105.937Z" fill="#222222"/>
<path d="M55.3918 97.8457L55.0851 95.0862L52.677 88.8405L53.0518 88.6929L55.4826 95.0181L55.7893 97.8003L55.3918 97.8457Z" fill="#292929"/>
<path d="M55.7893 97.8003L55.4827 95.0408L53.0746 88.7951L56.0052 86.9895L58.436 93.309L58.7483 96.0969L55.7893 97.8003Z" fill="#1D1D1D"/>
<path d="M28.7042 38.3468L84.5159 70.5577V107.737L28.7042 75.5259V38.3468Z" fill="#D4CEC7"/>
<path d="M83.2777 71.3014V105.562L29.9423 74.782V40.5214L30.7772 40.9983L31.3622 41.3333L83.2777 71.3014Z" fill="#E0DAD3"/>
<path d="M83.2778 78.2456V105.568L29.948 74.7877L31.72 73.76L46.4865 65.2374L62.3661 63.4886L83.2778 78.2456Z" fill="#BCB6BA"/>
<path d="M83.2778 71.3015V104.705L30.692 74.3505V40.9473L83.2778 71.3015Z" fill="#CFC9C2"/>
<path d="M38.7625 87.4324L39.9097 88.091V84.7183L38.7625 84.0597V87.4324Z" fill="#862929"/>
<path d="M87.6282 113.398L88.8492 113.721L89.7807 111.734L91.9729 111.07L97.1809 114.073C97.1809 114.073 99.2596 115.413 100.838 119.388C101.27 120.455 101.548 123.186 101.548 123.186L102.139 122.846C102.139 122.846 102.23 121.653 101.611 119.342C100.992 117.026 98.6633 113.767 96.9935 112.37C95.3181 110.979 87.9121 106.913 87.9121 106.913L87.3215 107.254L87.6338 113.403L87.6282 113.398Z" fill="#404040"/>
<path d="M86.8217 113.863L88.6505 114.919L89.5819 112.932L91.3766 111.41L96.5846 114.414C96.5846 114.414 98.6633 115.754 100.242 119.728C100.674 120.796 101.174 123.254 101.174 123.254L101.548 123.186C101.548 123.186 101.639 121.994 101.02 119.683C100.401 117.366 98.0726 114.107 96.4029 112.711C94.7275 111.319 87.3215 107.254 87.3215 107.254L86.8274 111.189V113.863H86.8217Z" fill="#222222"/>
<path d="M125.538 80.1874L125.254 80.3464L104.541 92.3098L103.275 93.0422L88.9572 84.7752L89.9908 83.6907L90.3145 83.3443L109.397 72.3348L111.232 71.926L125.061 79.9092L125.538 80.1874Z" fill="#FCFBFA"/>
<path d="M132.212 104.966L127.327 108.702L125.527 109.349L115.65 115.05L111.061 117.185L108.523 118.093V112.932L132.212 99.5718V102.093V104.966Z" fill="#EAE6E1"/>
<path d="M108.847 113.108L108.392 112.773L132.212 99.0211V99.7422L130.508 101.661L126.623 104.427L115.117 111.07L111.294 112.75L108.847 113.108Z" fill="#F2EFEC"/>
<path d="M132.212 99.0211L129.525 101.224L126.186 103.632L114.787 110.212L111.578 111.586L108.364 112.887L107.938 112.194L131.57 97.2893L131.842 98.3965L132.212 99.0211Z" fill="#F2EFEC"/>
<path d="M107.938 112.194H107.234L105.564 111.569L107.228 112.614L108.846 113.108L107.938 112.194Z" fill="#F2EFEC"/>
<path d="M107.251 122.159L101.617 118.905L101.605 118.86C101.605 118.86 101.435 118.116 100.384 116.027C99.1744 113.619 96.7947 111.439 96.7663 111.416L91.4334 108.31C90.979 108.049 90.6269 107.436 90.6269 106.913L91.9445 88.2274C91.9445 87.9946 92.0297 87.8186 92.1831 87.7277C92.3364 87.6369 92.5409 87.6539 92.7453 87.7732L102.815 93.5874C103.11 93.7577 103.377 94.0813 103.536 94.4561C103.661 94.757 103.724 95.0579 103.832 95.5519C103.922 95.9778 104.042 96.5683 104.269 97.4256C105.07 100.52 107.046 109.185 107.103 109.514C107.165 109.872 107.324 111.836 107.33 111.921V111.933L107.245 122.159H107.251ZM101.793 118.78L107.052 121.818L107.131 111.938C107.12 111.831 106.967 109.894 106.904 109.554C106.847 109.224 104.871 100.571 104.07 97.4824C103.849 96.6137 103.724 96.0289 103.633 95.5973C103.531 95.1147 103.468 94.8195 103.349 94.5356C103.212 94.2062 102.968 93.911 102.713 93.7634L92.6431 87.9492C92.5011 87.864 92.3705 87.847 92.2796 87.9037C92.1887 87.9548 92.1376 88.0741 92.1376 88.2387L90.82 106.925C90.82 107.368 91.138 107.913 91.5299 108.14L96.8799 111.263C96.9197 111.297 99.3334 113.5 100.555 115.941C101.486 117.804 101.73 118.593 101.781 118.78H101.793Z" fill="#A1988C"/>
<path d="M131.064 99.2368L130.212 100.162L128.298 101.758L125.743 103.711L114.912 109.974L110.062 111.569L108.296 112.024L107.87 111.331L103.815 93.7179L126.084 80.863L128.662 87.0577L131.388 96.5228L131.57 97.2893V98.5555L131.064 99.2368Z" fill="#EAE6E1"/>
<path d="M108.699 109.343L108.932 110.144L109.233 110.757L110.028 111.172L114.81 109.565L125.606 103.359L128.128 101.411L130.133 99.7194L130.826 98.7201L130.922 98.1069L130.673 96.642L108.699 109.343Z" fill="#2E2E3B"/>
<path d="M130.565 96.767L127.424 100.27L125.124 102.11L116.94 106.749L113.169 108.356L108.699 109.344L108.114 107.731L109.784 106.164L113.572 104.262L118.49 101.326L119.581 97.613L125.544 94.3027L130.377 96.625L130.565 96.767Z" fill="#5C5973"/>
<path d="M130.241 95.0125L130.144 95.1204L126.998 98.6293L124.703 100.463L116.514 105.108L112.748 106.715L108.279 107.703L107.688 106.084L106.671 102.394L104.774 94.7456L105.365 93.9564L107.603 93.1728L111.59 91.3332L118.325 87.4495L120.722 86.0698L123.806 83.8327L125.606 82.1293L125.942 82.1804L128.861 89.7774L130.241 95.0125Z" fill="#383844"/>
<path d="M129.911 94.9273L129.23 95.6938L128.276 96.7556L126.793 98.4078L124.533 100.213L116.383 104.841L112.657 106.425L108.472 107.351L107.978 105.994L106.961 102.314L105.098 94.808L105.552 94.2119L107.716 93.451L111.726 91.6L118.479 87.7106L118.553 87.6709L120.887 86.3252L123.999 84.0654L125.294 82.8447L125.737 82.4869L128.571 89.8739L129.911 94.9273Z" fill="#494760"/>
<path d="M129.23 94.2005V95.6938L128.276 96.7555L126.708 95.8527C126.385 95.6654 121.074 90.1124 118.553 87.6709L120.887 86.3252L123.999 84.0654L125.294 82.8446L125.589 82.6005C126.299 84.2073 127.6 87.3188 128.298 89.6752C129.332 93.1614 129.23 94.1948 129.23 94.1948V94.2005Z" fill="#7D7C8E"/>
<g style="mix-blend-mode:screen">
<path d="M111.573 91.8158C109.835 92.5255 107.909 93.4567 107.909 93.4567L105.621 94.1494L105.058 94.8762L108.426 107.368L108.92 108.901L113.015 108.038L116.701 106.488L116.616 104.972L111.578 91.8158H111.573Z" fill="#1B1A1F"/>
</g>
<path d="M130.672 96.642L130.565 96.7669L127.424 100.27L125.124 102.11L116.94 106.754L113.169 108.356L108.699 109.344L108.114 107.731L106.944 103.507L106.671 102.394L107.688 106.084L108.279 107.703L112.748 106.715L116.514 105.108L124.703 100.463L126.998 98.6293L130.144 95.1203L130.241 95.0125L130.672 96.642Z" fill="#2E2E3B"/>
<path d="M126.084 80.863L123.522 82.7197L119.62 85.3316L111.067 90.2657L108.25 91.5319L103.809 93.7179L103.275 93.0422L104.541 92.3098L125.254 80.3464L125.538 80.1874L126.084 80.863Z" fill="#FCFBFA"/>
<path d="M126.084 80.8631L123.522 82.7198L119.62 85.3316L111.067 90.2657L108.25 91.5319L103.809 93.7179L103.275 93.0422L88.9572 84.7752L89.9908 83.6907L89.7466 84.4118L103.718 92.4915L104.541 92.3098L104.945 92.2189L110.618 89.7888L116.843 86.2003L122.931 82.3223L125.254 80.3577V80.3464L125.061 79.9092L125.538 80.1874L126.084 80.8631Z" fill="#F2EFEC"/>
<path d="M117.576 89.4083L116.707 89.908C116.224 90.1862 115.741 90.5042 115.276 90.8448C115.122 90.9584 115.037 91.1855 115.077 91.3786L115.185 91.8839C115.224 92.077 115.378 92.1678 115.543 92.0997C116.037 91.8896 116.531 91.6398 117.019 91.3615L117.888 90.8619C118.371 90.5837 118.854 90.2657 119.319 89.925C119.473 89.8115 119.558 89.5843 119.518 89.3913L119.41 88.886C119.37 88.6929 119.217 88.6021 119.052 88.6702C118.558 88.8803 118.064 89.1301 117.576 89.4083Z" fill="#5C5973"/>
<path d="M117.763 90.05C117.752 89.8001 117.701 89.1188 117.701 89.1188L116.837 89.1358C116.837 89.1358 116.934 90.1067 116.945 90.1408C116.996 90.2998 117.207 90.4701 117.297 90.4644C117.508 90.4417 117.775 90.3168 117.769 90.05H117.763Z" fill="#5C5973"/>
<path d="M117.627 88.9086C117.757 89.0903 117.706 89.3288 117.508 89.448C117.309 89.5673 117.042 89.5105 116.911 89.3288C116.781 89.1471 116.832 88.9086 117.031 88.7951C117.229 88.6815 117.496 88.7326 117.627 88.9143V88.9086Z" fill="#5F5C75"/>
<path d="M103.894 105.306C103.661 105.028 103.298 104.807 103.298 104.807V104.818C103.133 104.716 102.934 104.676 102.684 104.733L101.452 105.006C100.878 105.13 100.418 105.693 100.418 106.249V111.166C100.418 111.371 100.481 111.547 100.589 111.683L100.594 111.694C100.748 111.921 101.208 112.228 101.208 112.228L101.344 111.967C101.378 111.967 101.412 111.967 101.452 111.955L102.684 111.683C103.258 111.558 103.479 111.552 103.769 111.007C103.769 111.007 103.752 107.515 103.735 106.101L103.9 105.306H103.894Z" fill="#2E2E3B"/>
<path d="M103.843 108.316L104.638 108.906L105.768 109.61C105.768 109.61 106.291 109.86 106.189 110.513C106.035 111.45 105.32 111.121 105.32 111.121L103.724 110.553L103.849 108.316H103.843Z" fill="#2E2E3B"/>
<path d="M103.139 112.075L101.906 112.347C101.333 112.472 100.873 112.12 100.873 111.558V106.641C100.873 106.079 101.338 105.522 101.906 105.397L103.139 105.125C103.712 105 104.042 105.301 104.172 105.914C104.201 106.033 104.223 111.399 104.223 111.399C103.939 111.95 103.712 111.95 103.139 112.075Z" fill="url(#paint1_linear_974_11984)"/>
<g style="mix-blend-mode:multiply">
<path d="M64.9843 51.0426L86.4412 63.4261H88.4062L80.1597 43.3717H78.2742L64.9843 51.0426Z" fill="#E8E8E8"/>
</g>
<path d="M66.9494 50.4294L88.4062 62.813L101.696 55.1478L80.2392 42.7585L66.9494 50.4294Z" fill="#FAF9F8"/>
<path d="M66.9494 51.0425L88.4062 63.4261V62.8129L66.9494 50.4293V51.0425Z" fill="#BFBFBF"/>
<path d="M101.696 55.7552L88.4062 63.4261V62.8129L101.696 55.1477V55.7552Z" fill="#E0DAD3"/>
<path d="M81.182 41.7422L69.5506 48.4535L68.71 50.4862L80.3358 43.7749L81.182 41.7422Z" fill="#E0DAD3"/>
<path d="M99.9412 55.091L88.3097 61.8023L87.5601 58.8441L99.1858 52.1328L99.9412 55.091Z" fill="#E0DAD3"/>
<path d="M99.1858 52.1328L87.56 58.8441L69.5506 48.4535L81.182 41.7422L99.1858 52.1328Z" fill="#FCFBFA"/>
<path d="M85.629 56.2663L85.8732 56.4082L94.966 51.1618L94.7161 51.0199L85.629 56.2663Z" fill="#493F41"/>
<path d="M84.7714 55.7723L85.0213 55.9142L94.1084 50.6678L93.8642 50.5259L84.7714 55.7723Z" fill="#493F41"/>
<path d="M83.9195 55.2784L84.1694 55.4203L93.2565 50.1739L93.0122 50.032L83.9195 55.2784Z" fill="#493F41"/>
<path d="M83.0676 54.79L83.3118 54.932L92.4046 49.6799L92.1604 49.538L83.0676 54.79Z" fill="#493F41"/>
<path d="M82.2157 54.2961L82.4599 54.438L91.5527 49.1916L91.3084 49.0497L82.2157 54.2961Z" fill="#493F41"/>
<path d="M81.3638 53.8021L81.608 53.944L90.7007 48.6976L90.4508 48.5557L81.3638 53.8021Z" fill="#493F41"/>
<path d="M80.5062 53.308L80.7561 53.45L89.8432 48.2036L89.599 48.0616L80.5062 53.308Z" fill="#493F41"/>
<path d="M79.6543 52.8198L79.9042 52.9617L88.9913 47.7153L88.747 47.5734L79.6543 52.8198Z" fill="#493F41"/>
<path d="M78.8024 52.3258L79.0466 52.4677L88.1393 47.2213L87.8951 47.0793L78.8024 52.3258Z" fill="#493F41"/>
<path d="M77.9504 51.8319L78.1947 51.9738L87.2874 46.7274L87.0432 46.5854L77.9504 51.8319Z" fill="#493F41"/>
<path d="M77.0985 51.3435L77.3427 51.4855L86.4355 46.2334L86.1856 46.0914L77.0985 51.3435Z" fill="#493F41"/>
<path d="M76.2466 50.8496L76.4909 50.9915L85.5779 45.7451L85.3337 45.6031L76.2466 50.8496Z" fill="#493F41"/>
<path d="M75.389 50.3555L75.6389 50.4975L84.726 45.2511L84.4818 45.1091L75.389 50.3555Z" fill="#493F41"/>
<path d="M74.5371 49.8616L74.7813 50.0036L83.8741 44.7572L83.6299 44.6152L74.5371 49.8616Z" fill="#493F41"/>
<path d="M73.6852 49.3732L73.9294 49.5152L83.0221 44.2688L82.7779 44.1268L73.6852 49.3732Z" fill="#493F41"/>
<path d="M77.905 46.9375L90.0931 53.9724L90.7405 53.5977L78.5525 46.5627L77.905 46.9375Z" fill="#FCFBFA"/>
<path d="M68.71 50.4862L88.3097 61.8023L87.56 58.8441L69.5506 48.4535L68.71 50.4862Z" fill="#BFBFBF"/>
<path d="M107.376 90.9925L92.45 82.345L92.7169 82.186L107.472 90.9925H107.376Z" fill="#CDC3B7"/>
<path d="M107.472 90.9073L92.5466 82.2541L92.8135 82.1008L107.739 90.7483L107.472 90.9073Z" fill="#FFFFFE"/>
<path d="M107.472 90.9073V90.9924L107.739 90.8391V90.7483L107.472 90.9073Z" fill="#F4F1EE"/>
<path d="M107.472 90.9925L92.5466 82.345V82.2542L107.472 90.9073V90.9925Z" fill="#CDC3B7"/>
<path d="M110.34 89.2834L95.4147 80.6302L95.6816 80.4769L110.431 89.2834H110.34Z" fill="#CDC3B7"/>
<path d="M110.431 89.1926L95.5056 80.5451L95.7782 80.3861L110.704 89.0393L110.431 89.1926Z" fill="#FFFFFE"/>
<path d="M110.431 89.1926V89.2835L110.704 89.1245V89.0393L110.431 89.1926Z" fill="#F4F1EE"/>
<path d="M110.431 89.2834L95.5056 80.6302V80.545L110.431 89.1925V89.2834Z" fill="#CDC3B7"/>
<path d="M113.305 87.5744L98.3737 78.9212L98.6463 78.7679L113.396 87.5744H113.305Z" fill="#CDC3B7"/>
<path d="M113.396 87.4835L98.4702 78.836L98.7371 78.677L113.668 87.3302L113.396 87.4835Z" fill="#FFFFFE"/>
<path d="M113.396 87.4835V87.5744L113.668 87.4154V87.3302L113.396 87.4835Z" fill="#F4F1EE"/>
<path d="M113.396 87.5744L98.4702 78.9212V78.8361L113.396 87.4835V87.5744Z" fill="#CDC3B7"/>
<path d="M116.264 85.8597L101.338 77.2122L101.611 77.0532L116.36 85.8597H116.264Z" fill="#CDC3B7"/>
<path d="M116.36 85.7745L101.435 77.1213L101.702 76.968L116.627 85.6155L116.36 85.7745Z" fill="#FFFFFE"/>
<path d="M116.36 85.7745V85.8596L116.627 85.7063V85.6155L116.36 85.7745Z" fill="#F4F1EE"/>
<path d="M116.36 85.8597L101.435 77.2122V77.1213L116.36 85.7745V85.8597Z" fill="#CDC3B7"/>
<path d="M119.228 84.1506L104.303 75.5031L104.57 75.3441L119.325 84.1506H119.228Z" fill="#CDC3B7"/>
<path d="M119.325 84.0654L104.394 75.4122L104.666 75.2589L119.592 83.9064L119.325 84.0654Z" fill="#FFFFFE"/>
<path d="M119.325 84.0654V84.1505L119.592 83.9972V83.9064L119.325 84.0654Z" fill="#F4F1EE"/>
<path d="M119.325 84.1506L104.394 75.5031V75.4122L119.325 84.0654V84.1506Z" fill="#CDC3B7"/>
<path d="M122.193 82.4415L107.268 73.7883L107.535 73.635L122.284 82.4415H122.193Z" fill="#CDC3B7"/>
<path d="M122.284 82.3507L107.359 73.7032L107.631 73.5442L122.557 82.1973L122.284 82.3507Z" fill="#FFFFFE"/>
<path d="M122.284 82.3507V82.4415L122.557 82.2882V82.1974L122.284 82.3507Z" fill="#F4F1EE"/>
<path d="M122.284 82.4416L107.359 73.7884V73.7032L122.284 82.3507V82.4416Z" fill="#CDC3B7"/>
<path d="M110.874 88.8405L110.045 88.3636L110.704 87.9718L111.345 88.8405H110.874Z" fill="#EBE7E3"/>
<path d="M111.345 88.8405L112.004 88.4488V88.1251L111.345 88.5112V88.8405Z" fill="#E07427"/>
<path d="M111.345 88.5112L110.516 88.04L111.175 87.6482L112.004 88.1251L111.345 88.5112Z" fill="#FF9A2E"/>
<path d="M111.345 88.5112L110.516 88.0399V88.3636L111.345 88.8405V88.5112Z" fill="#E06F2E"/>
<path d="M114.157 86.8873L113.328 86.4104L113.981 86.0243L114.628 86.8873H114.157Z" fill="#EBE7E3"/>
<path d="M114.628 86.8873L115.281 86.4955V86.1719L114.628 86.5637V86.8873Z" fill="#E07427"/>
<path d="M114.628 86.5637L113.799 86.0867L114.452 85.6949L115.281 86.1719L114.628 86.5637Z" fill="#FF9A2E"/>
<path d="M114.628 86.5637L113.799 86.0868V86.4104L114.628 86.8874V86.5637Z" fill="#E06F2E"/>
<path d="M117.434 84.9341L116.605 84.4628L117.263 84.071L117.905 84.9341H117.434Z" fill="#EBE7E3"/>
<path d="M117.905 84.9342L118.564 84.5481V84.2188L117.905 84.6105V84.9342Z" fill="#E07427"/>
<path d="M117.905 84.6105L117.076 84.1392L117.735 83.7474L118.564 84.2187L117.905 84.6105Z" fill="#FF9A2E"/>
<path d="M117.905 84.6105L117.076 84.1393V84.4629L117.905 84.9342V84.6105Z" fill="#E06F2E"/>
<path d="M132.178 108.219V109.031L131.286 109.962L129.315 111.734L127.583 112.96L119.166 117.724L113.487 120.853L108.943 122.505H107.535L107.733 122.386L108.307 122.051L115.213 118.814L128.179 111.53L132.178 108.219Z" fill="#EAE6E1"/>
<path d="M132.178 108.912V109.031L131.286 109.962L129.315 111.734L127.583 112.96L115.503 119.797L113.487 120.853L108.943 122.505H107.535V122.386H108.943L113.487 120.733L115.503 119.683L127.583 112.847L129.315 111.62L131.286 109.843L132.178 108.912Z" fill="#292929"/>
<path d="M128.719 111.694L128.043 112.302L115.809 119.286L115.105 119.552L116.059 116.441L116.525 114.391L127.583 107.947L127.986 109.633L128.719 111.694Z" fill="#42424D"/>
<path d="M128.043 111.047L115.809 118.031L115.259 118.241L115.105 118.729L115.809 118.462L128.043 111.478L128.719 110.877L128.605 110.547L128.043 111.047Z" fill="#EAE6E1"/>
<path d="M128.043 109.9L115.809 116.884L115.259 117.094L115.105 117.588L115.809 117.321L128.043 110.331L128.719 109.73L128.605 109.4L128.043 109.9Z" fill="#EAE6E1"/>
<path d="M128.043 109.792L115.809 116.782L115.259 116.992L115.105 117.315L115.809 117.048L128.043 110.065L128.719 109.463L128.605 109.298L128.043 109.792Z" fill="#EAE6E1"/>
<path d="M121.818 115.941L122.329 115.646V112.608L121.818 112.904V115.941Z" fill="#EAE6E1"/>
<path d="M128.054 109.809L115.98 116.702L116.525 114.391L127.583 107.947L128.054 109.809Z" fill="#2E2E3B"/>
<path d="M113.095 59.8831L92.5295 71.7614L88.4233 69.3937L108.994 57.5211L113.095 59.8831Z" fill="#FCFBFA"/>
<path d="M114.532 61.8023V66.9636L112.186 68.3035L93.9664 78.8191L91.6151 80.1818L88.4233 69.3937L92.5295 71.7614L113.095 59.8832L114.532 61.8023Z" fill="#EAE6E1"/>
<path d="M93.9664 73.6748V78.8361L91.6151 80.1817L88.4233 78.3364V69.3937L92.5295 71.7614L93.9664 73.6748Z" fill="#E0DAD3"/>
<path d="M88.4233 78.3364V69.9104L92.1547 72.0567L93.5177 73.8793V78.8361L91.3936 80.0512L88.4233 78.3364Z" fill="#BCB6BA"/>
<path d="M114.532 61.8023L93.9664 73.6749L92.5295 71.7614L113.095 59.8832L114.532 61.8023Z" fill="#F2EFEC"/>
<path d="M104.252 69.6776L103.531 70.0921V69.388L104.252 68.9735V69.6776Z" fill="#42424D"/>
<path d="M105.558 68.9223L104.837 69.3368V68.6327L105.558 68.2183V68.9223Z" fill="#42424D"/>
<path d="M106.87 68.1672L106.149 68.5817V67.8776L106.87 67.4631V68.1672Z" fill="#42424D"/>
<path d="M108.176 67.4121L107.455 67.8266V67.1225L108.176 66.708V67.4121Z" fill="#42424D"/>
<path d="M109.488 66.6513L108.767 67.0714V66.3674L109.488 65.9529V66.6513Z" fill="#42424D"/>
<path d="M110.795 65.896L110.079 66.3105V65.6121L110.795 65.1976V65.896Z" fill="#42424D"/>
<path d="M112.106 65.1409L111.385 65.5554V64.857L112.106 64.4425V65.1409Z" fill="#42424D"/>
<path d="M113.413 64.3858L112.697 64.8003V64.1019L113.413 63.6874V64.3858Z" fill="#42424D"/>
<path d="M104.252 70.7904L103.531 71.2049V70.5008L104.252 70.0863V70.7904Z" fill="#42424D"/>
<path d="M105.558 70.0352L104.837 70.4497V69.7457L105.558 69.3312V70.0352Z" fill="#42424D"/>
<path d="M106.87 69.2801L106.149 69.6946V68.9905L106.87 68.576V69.2801Z" fill="#42424D"/>
<path d="M108.176 68.5249L107.455 68.9394V68.2353L108.176 67.8208V68.5249Z" fill="#42424D"/>
<path d="M109.488 67.7641L108.767 68.1842V67.4802L109.488 67.0657V67.7641Z" fill="#42424D"/>
<path d="M110.795 67.0089L110.079 67.4291V66.725L110.795 66.3105V67.0089Z" fill="#42424D"/>
<path d="M112.106 66.2538L111.385 66.6683V65.9699L112.106 65.5554V66.2538Z" fill="#42424D"/>
<path d="M113.413 65.4986L112.697 65.913V65.2147L113.413 64.8002V65.4986Z" fill="#42424D"/>
<path d="M104.252 71.9033L103.531 72.3178V71.6137L104.252 71.1992V71.9033Z" fill="#42424D"/>
<path d="M105.558 71.1482L104.837 71.5626V70.8586L105.558 70.4441V71.1482Z" fill="#42424D"/>
<path d="M106.87 70.3929L106.149 70.8074V70.1033L106.87 69.6888V70.3929Z" fill="#42424D"/>
<path d="M108.176 69.6378L107.455 70.0523V69.3482L108.176 68.9337V69.6378Z" fill="#42424D"/>
<path d="M109.488 68.877L108.767 69.2971V68.5931L109.488 68.1786V68.877Z" fill="#42424D"/>
<path d="M110.795 68.1218L110.079 68.542V67.838L110.795 67.4235V68.1218Z" fill="#42424D"/>
<path d="M112.106 67.3666L111.385 67.7811V67.0827L112.106 66.6682V67.3666Z" fill="#42424D"/>
<path d="M113.413 66.6115L112.697 67.026V66.3276L113.413 65.9131V66.6115Z" fill="#42424D"/>
<path d="M129.832 110.218L129.014 107.828L132.189 104.302L132.155 108.043L129.832 110.218Z" fill="#B9B3C0"/>
<path d="M129.758 110.002L128.935 107.612L132.212 104.029L132.178 107.737L129.758 110.002Z" fill="#42424D"/>
<path d="M132.212 104.222L132.178 107.589L129.809 109.809L129.696 109.412L129.111 107.759L129.065 107.634L132.212 104.222Z" fill="#C1E2EE"/>
<path d="M113.867 119.689L114.969 115.555L109.426 117.156L108.829 117.452L108.171 117.344L107.779 117.156V121.04L108.188 121.227L108.67 121.381L109.403 121.301L113.867 119.689Z" fill="#B9B3C0"/>
<path d="M113.56 119.49L114.588 115.663L109.045 117.259H108.523L107.864 117.145L107.472 116.958V120.841L107.881 121.029L108.364 121.182L109.096 121.103L113.56 119.49Z" fill="#42424D"/>
<path d="M114.429 115.822L113.47 119.41L109.074 120.995L108.375 121.068L107.915 120.921L107.586 120.773V117.139L107.824 117.253L108.506 117.372H109.062L109.653 117.202L113.339 116.134L114.429 115.822Z" fill="#C1E2EE"/>
<path d="M107.574 117.145L107.784 117.236L108.5 117.344H109.062L109.471 117.242V120.745L109.057 120.892L108.341 120.972L107.864 120.824L107.574 120.677V117.145Z" fill="#FF9A2E"/>
<path d="M132.212 104.279L131.774 104.727L131.786 107.822L132.189 107.481L132.212 104.279Z" fill="#FF9A2E"/>
<path d="M113.339 116.134L112.39 119.002L109.653 119.95V117.202L113.339 116.134Z" fill="#EBF4F7"/>
<path d="M131.479 105.114V107.39L129.582 109.094L129.111 107.759L131.479 105.114Z" fill="#EBF4F7"/>
<path d="M117.349 121.074L121.744 118.525V118.956L117.349 121.494V121.074Z" fill="#42424D"/>
<path d="M126.935 115.504V115.958L122.545 118.496V118.054L126.935 115.504Z" fill="#42424D"/>
<path d="M117.349 121.778L121.744 119.223V119.859L117.349 122.397V121.778Z" fill="#42424D"/>
<path d="M126.935 116.203V116.861L122.545 119.399V118.752L126.935 116.203Z" fill="#42424D"/>
<path d="M123.096 108.628C123.096 108.952 122.619 109.485 122.028 109.832C121.438 110.172 120.961 110.19 120.961 109.866C120.961 109.542 121.438 109.009 122.028 108.662C122.619 108.321 123.096 108.304 123.096 108.628Z" fill="#B9B3C0"/>
<path d="M76.6953 81.2776C76.6953 86.4672 67.8638 85.5701 56.965 79.2846C46.0719 72.9935 37.2347 63.693 37.2347 58.5034C37.2347 53.3138 46.0662 54.2109 56.965 60.4964C67.8581 66.7875 76.6953 76.0879 76.6953 81.2776Z" fill="#9CB1BD"/>
<path d="M74.6166 80.0795C74.6166 84.7184 66.7165 83.9234 56.9707 78.2966C47.2248 72.6698 39.3247 64.346 39.3247 59.7071C39.3247 55.0682 47.2248 55.8688 56.9707 61.49C66.7165 67.1168 74.6166 75.4406 74.6166 80.0795Z" fill="#9CB1BD"/>
<path d="M70.6013 83.4693C67.2107 83.4693 62.2014 81.7489 56.7776 78.6203C46.9408 72.9424 38.9385 64.4596 38.9385 59.7072C38.9385 58.4694 39.461 57.5155 40.4549 56.942C43.306 55.2954 49.8601 56.9534 57.1524 61.1607C66.9892 66.8386 74.9915 75.3215 74.9915 80.0739C74.9915 81.3117 74.469 82.2656 73.4751 82.839C72.7424 83.2592 71.7656 83.4636 70.5956 83.4636L70.6013 83.4693ZM43.3344 57.0612C42.3064 57.0612 41.4602 57.2373 40.8355 57.595C40.0801 58.0322 39.6996 58.7419 39.6996 59.7015C39.6996 64.2154 47.5315 72.4087 57.1581 77.9617C64.1154 81.976 70.5218 83.6737 73.1059 82.1804C73.8613 81.7432 74.2418 81.0335 74.2418 80.0739C74.2418 75.5599 66.4099 67.3667 56.7833 61.8137C51.5128 58.7703 46.549 57.0612 43.3344 57.0612Z" fill="#CFC9C2"/>
<path d="M54.7216 72.0623C54.4036 71.7954 54.3127 71.892 53.8697 71.7727C52.643 71.9033 51.3083 71.415 50.9391 71.0232C52.4328 71.0857 52.9497 70.6201 52.9497 70.6201C52.9497 70.6201 52.5691 70.0069 52.5123 69.9274C52.4556 69.8536 52.2454 69.371 52.2454 69.371C52.2454 69.371 54.3184 71.4491 54.7216 72.0623Z" fill="#55667D"/>
<path d="M44.6349 57.9299C47.1396 59.0542 47.9404 62.2622 48.9399 63.1366C49.6783 63.7782 49.4511 64.2949 48.372 63.9145C48.372 63.9145 48.6957 65.7768 44.8735 67.1679C44.9246 66.3106 46.8897 63.8123 46.458 62.7335C46.4069 61.8363 45.6345 59.7639 44.6406 57.9299H44.6349Z" fill="#55667D"/>
<path d="M46.8159 62.5858C46.9749 62.7335 47.2475 62.9435 47.7019 63.2161C47.7757 63.2615 48.5595 64.0394 48.6276 64.1132C50.9391 66.5604 50.7915 68.1105 53.5801 70.8359C53.8186 71.0687 54.5342 71.7046 56.0449 72.9083C57.1354 73.777 57.993 74.782 59.9921 76.0312C61.4461 76.9453 62.8773 77.5699 64.1836 78.0014C67.2788 79.0234 69.6528 78.9383 69.9198 78.9155C69.8403 78.5578 69.1701 78.8133 68.5794 77.8651C68.7214 77.8311 69.2837 77.7232 69.6074 77.5131C69.6585 77.4847 69.6983 77.4506 69.738 77.4166C69.7494 77.4052 69.7721 77.4052 69.7835 77.4052C69.8175 77.3939 69.8403 77.3882 69.8403 77.3882C69.8403 77.3882 68.5965 74.5322 66.1657 71.9942C65.8419 71.6592 65.5012 71.3298 65.1434 71.0119C62.2526 68.4852 59.8729 66.9124 57.5046 65.9472C57.3285 65.8733 57.1524 65.8052 56.9707 65.7428C52.4556 64.0734 49.4114 63.3183 49.2524 63.358C49.0877 63.3978 48.7128 63.1082 48.355 62.9946C47.6394 62.7675 47.0942 62.495 46.8102 62.3644C46.7591 62.3417 46.708 62.336 46.6909 62.3474C46.6569 62.3701 46.6853 62.4439 46.8329 62.5858H46.8159Z" fill="#6C818F"/>
<path d="M63.2407 75.9005C63.2805 76.2071 63.3373 76.5137 63.4565 76.7976C63.5474 77.019 63.678 77.2178 63.8087 77.4222C63.9336 77.6152 64.0529 77.8083 64.1778 77.9957C65.0695 78.2909 65.9044 78.4953 66.6484 78.6316C68.4715 78.9723 69.7266 78.9268 69.9197 78.9098C69.8402 78.5521 69.17 78.8076 68.5794 77.8594C68.7214 77.8253 69.2836 77.7174 69.6074 77.5073C69.6585 77.479 69.6982 77.4449 69.738 77.4108C69.7493 77.3995 69.7721 77.3995 69.7834 77.3995C69.8175 77.3881 69.8402 77.3824 69.8402 77.3824C69.8402 77.3824 68.5964 74.5264 66.1656 71.9884C66.177 72.0225 66.1883 72.0509 66.1997 72.0849C66.2622 72.2496 66.3587 72.3972 66.4553 72.5392C66.5007 72.6016 66.5518 72.6925 66.5064 72.7549C66.4723 72.806 66.3985 72.8174 66.336 72.8174C66.1259 72.8231 65.9782 72.7663 65.7794 72.7322C65.5239 72.6868 65.2626 72.6414 65.007 72.5959C64.8423 72.5676 64.6776 72.5392 64.5129 72.5675C64.3653 72.5959 64.2403 72.647 64.1267 72.7209C63.7746 72.9537 63.6042 73.3909 63.4452 73.7883C63.1783 74.4469 63.1555 75.1908 63.2407 75.8891V75.9005Z" fill="#6C818F"/>
<path d="M63.2407 75.9006C63.2805 76.2072 63.3373 76.5138 63.4565 76.7977C63.5474 77.0191 63.678 77.2179 63.8087 77.4223C63.9336 77.6153 64.0529 77.8084 64.1778 77.9957C65.0695 78.291 65.9044 78.4954 66.6484 78.6317C66.4269 78.2967 66.2111 77.9617 66.1316 77.5699C66.0861 77.3541 66.0861 77.1384 66.052 76.9169C65.9839 76.4059 65.7681 75.9119 65.4387 75.5202C64.99 74.9808 64.3141 74.5833 64.1154 73.9076C64.0018 73.5386 64.1097 73.2376 64.1438 72.8742C64.1438 72.8118 64.1438 72.7664 64.1267 72.7323C63.7746 72.9651 63.6042 73.4023 63.4452 73.7998C63.1783 74.4584 63.1555 75.2022 63.2407 75.9006Z" fill="#6C818F"/>
<path d="M53.7561 66.4979C56.3346 68.0877 58.7824 69.882 61.0769 71.8636C62.2298 72.8572 61.6448 73.7997 62.7523 74.8388C62.8716 74.9523 62.9909 75.0602 63.0988 75.1795C61.2246 75.0091 61.1223 74.4413 59.4583 73.5613C57.7942 72.6812 56.2607 71.5853 54.7273 70.4895C54.3127 70.1942 53.8981 69.899 53.5403 69.5413C53.0689 69.0757 52.6998 68.5079 52.234 68.0366C51.7286 67.5199 51.1152 67.1111 50.6097 66.5944C49.8998 65.862 49.4398 64.9365 48.9854 64.0223C50.6836 64.6128 52.2965 65.4532 53.7618 66.4979H53.7561Z" fill="#6C818F"/>
<path d="M53.0462 69.3538C53.5119 70.4213 54.2786 71.3922 55.051 72.2609C54.75 71.9259 54.449 71.7272 54.1025 71.4547C53.6709 71.1083 53.279 70.6882 52.9042 70.285C52.1488 69.4674 51.4786 68.576 50.888 67.6334C49.8827 66.0379 49.0024 64.5333 48.7128 64.2096C48.7014 64.1983 48.6957 64.1926 48.6844 64.1813C48.4231 63.9144 47.6961 63.2217 47.6961 63.2217C47.3043 62.9832 47.0487 62.7958 46.884 62.6539C46.8499 62.6255 46.8272 62.6028 46.8102 62.5914C46.6625 62.4552 46.6341 62.3757 46.6682 62.353C46.6909 62.3359 46.7363 62.3416 46.7874 62.37C47.0714 62.5006 47.6166 62.7731 48.3322 63.0002C48.69 63.1138 49.0649 63.4034 49.2296 63.3636C49.3886 63.3239 52.4328 64.0847 56.9479 65.7484C57.124 65.8165 57.3 65.8846 57.4818 65.9528C57.4761 66.6512 57.3398 67.0543 57.9021 67.5767C58.4246 68.0877 58.9868 68.5703 59.5377 69.0472C59.7422 69.2233 59.9807 69.3595 60.1625 69.5526C60.418 69.8251 60.6168 70.1828 60.8326 70.4838C60.9122 70.5973 60.9973 70.7222 60.9746 70.8585C60.9519 70.9948 60.8156 71.0913 60.6793 71.1083C60.543 71.131 60.401 71.0913 60.2704 71.0515C59.0777 70.7052 57.9589 70.1374 56.857 69.5526C56.0279 69.1097 55.21 68.6555 54.4319 68.1331C53.8867 67.7697 53.3245 67.4177 52.7792 67.0543C52.2454 66.7023 51.7683 66.2707 51.2628 65.879C50.5359 65.2657 49.7578 64.7547 49.0819 64.0563C49.6101 64.6014 49.985 65.2657 50.4052 65.8846C50.8369 66.5206 51.3423 67.1338 51.8819 67.6845C52.7338 68.5533 53.6539 69.3652 54.7045 69.9955C54.3979 69.933 54.0969 69.8308 53.8072 69.7116C53.6595 69.6491 53.5119 69.5753 53.3642 69.5128C53.2847 69.4788 53.0689 69.4277 53.0348 69.3482L53.0462 69.3538Z" fill="#6C818F"/>
<path d="M58.3281 70.3305C58.0384 70.1715 57.7488 70.0069 57.4591 69.8365C56.948 69.5299 56.4539 69.1325 55.9825 68.7691C55.7837 68.6158 55.5849 68.4511 55.4032 68.2751C55.1362 68.0196 54.8863 67.7414 54.6819 67.4291C55.0794 67.5199 55.46 67.7243 55.8291 67.9003C56.2494 68.1047 56.6697 68.3148 57.0956 68.5192C57.5841 68.7577 58.0668 68.9962 58.5552 69.2347C58.7995 69.3539 59.0437 69.4731 59.2879 69.5924C59.4753 69.6832 59.6684 69.8195 59.8615 69.8876C60.0944 69.9728 60.367 69.9898 60.6055 70.0466C60.8554 70.1091 61.0996 70.1772 61.3438 70.251C61.8323 70.3986 62.3207 70.569 62.7978 70.745C63.326 70.9437 63.8485 71.1595 64.371 71.3752C64.8708 71.5853 65.3762 71.8011 65.8136 72.1304C66.0578 72.3121 66.2736 72.5279 66.5462 72.6698C66.8188 72.8117 67.0119 72.9707 67.1993 73.2206C67.6082 73.7656 67.9263 74.3732 68.1364 75.0261C67.8865 75.0375 67.648 74.9353 67.4208 74.8274C66.7847 74.5208 66.2168 74.1177 65.5807 73.8224C64.7856 73.4477 63.9961 73.0786 63.201 72.7039C62.4002 72.3291 61.5426 72.0112 60.7475 71.6024C60.3613 71.4036 60.0092 71.1765 59.6116 70.9891C59.18 70.7791 58.7484 70.5633 58.3281 70.3305Z" fill="#6C818F"/>
<path d="M54.0571 70.7337C54.4717 71.1368 55.6985 72.9424 60.4692 75.929C64.5186 78.467 68.5851 78.8247 69.88 78.8304C69.897 78.8531 69.9084 78.8815 69.9141 78.9156C69.5279 78.9383 64.8935 79.1029 59.9864 76.0312C55.2157 73.0446 53.989 71.239 53.5744 70.8359C52.217 69.5129 51.5639 68.5022 50.9846 67.537C51.8762 68.5193 52.836 69.547 54.0571 70.7393V70.7337Z" fill="#55667D"/>
<path d="M46.6739 62.3474C46.6739 62.3474 46.7193 62.3701 46.7193 62.3757C48.3039 63.2558 49.8884 64.028 51.3481 65.1068C51.7797 65.4248 52.2056 65.686 52.6486 65.9755C52.9553 66.1743 53.2052 66.4128 53.4892 66.6342C54.6592 67.5427 55.8916 68.3773 57.1695 69.1211C57.8056 69.4902 58.4644 69.8195 59.1175 70.1602C59.7593 70.4952 60.3499 70.8983 61.0201 71.1879C62.5706 71.8636 64.1665 72.3973 65.7965 72.8458C66.1941 72.9537 66.6371 73.1013 67.0573 73.0786C67.0233 72.8856 66.8756 72.7891 66.7506 72.6528C66.5746 72.4654 66.4099 72.2667 66.2338 72.0793C65.8817 71.7046 65.5125 71.3469 65.1263 71.0119C65.0923 70.9778 65.0525 70.9494 65.0184 70.9153C61.9629 68.2581 59.4753 66.6683 56.9593 65.7371C55.4827 65.192 54.1594 64.7434 53.0462 64.3857C51.3651 63.852 50.1554 63.5284 49.5874 63.4034C49.383 63.358 49.2637 63.341 49.2353 63.3467C49.0706 63.3864 48.6958 63.0968 48.338 62.9833C48.1733 62.9322 48.0142 62.8754 47.8666 62.8186C47.3838 62.6369 47.0147 62.4552 46.7932 62.353C46.742 62.3303 46.6909 62.3246 46.6739 62.336V62.3474Z" fill="#8798A3"/>
<path d="M47.8723 62.83C48.3266 62.9038 48.8945 63.341 49.3148 63.5398C49.9623 63.8521 50.6552 64.0054 51.2969 64.3404C51.9444 64.6753 52.5975 64.9876 53.2279 65.3624C54.0969 65.8791 54.9715 66.3958 55.8291 66.9352C57.0502 67.7017 58.2713 68.4625 59.5151 69.1836C60.6623 69.8536 61.8266 70.4952 63.0079 71.1028C63.8655 71.54 64.7174 72.0453 65.6318 72.3406C65.7851 72.3917 65.9328 72.4314 66.0918 72.4711C66.1713 72.4939 66.2452 72.5109 66.3247 72.5279C66.3701 72.5393 66.5008 72.545 66.5348 72.579C66.3644 72.4144 66.2054 72.2327 66.0691 72.0396C65.9158 71.8239 65.7908 71.6365 65.575 71.4775C65.3705 71.3299 65.2002 71.0857 65.0184 70.9097C61.9629 68.2524 59.4753 66.6626 56.9593 65.7314C55.4827 65.1864 54.1594 64.7378 53.0462 64.3801C51.6264 63.9826 50.1838 63.6022 49.8714 63.5C49.7805 63.4716 49.6897 63.4376 49.5931 63.3978C49.0649 63.1934 48.4516 62.9038 47.8723 62.813V62.83Z" fill="#8798A3"/>
<path d="M68.5396 77.8708C68.585 78.1206 68.7725 78.5181 69.0735 78.6941C69.3745 78.8758 69.6528 78.9496 69.9595 78.9269C70.4081 78.8928 70.5388 78.467 70.2434 78.149C69.9481 77.831 69.6017 77.7004 69.6017 77.7004L68.5453 77.8651L68.5396 77.8708Z" fill="#6C818F"/>
<path d="M69.613 77.7402C70.0276 78.0298 70.3286 78.45 70.0844 78.5806C69.7152 78.7736 69.2439 78.484 69.0905 78.3875C68.8065 78.2058 68.5453 77.8879 68.5453 77.8879L69.613 77.7402Z" fill="#6C818F"/>
<path d="M62.1048 77.0929C62.1048 77.0929 61.889 77.0418 61.8209 77.0645C61.5483 77.1611 60.8895 77.6721 58.2712 76.7409C58.4643 75.946 60.0943 75.8211 60.0943 75.8211L59.1572 75.1113C59.1572 75.1113 61.7243 76.8658 62.1048 77.0872V77.0929Z" fill="#55667D"/>
<path d="M59.2254 70.8643C59.8729 71.3355 61.0996 72.7437 61.6562 73.567C62.2128 74.3903 62.2128 74.4073 62.2128 74.4073C62.2128 74.4073 62.5479 74.7366 62.5649 74.8388C62.173 74.748 61.0485 74.0382 60.509 73.6919C60.4124 73.6294 60.367 73.442 60.4408 73.4023C60.509 73.3625 60.5657 73.3114 60.5544 73.2603C60.526 73.1411 60.4408 72.7323 60.2988 72.4484C60.1568 72.1645 59.5491 71.222 59.2254 70.8643Z" fill="#6C818F"/>
<path d="M67.5741 75.6961C67.3186 75.5769 67.063 75.6961 67.0062 75.9516C66.9494 76.2071 67.1084 76.5137 67.364 76.633C67.6196 76.7522 67.8751 76.633 67.9319 76.3775C67.9887 76.122 67.8297 75.8153 67.5741 75.6961Z" fill="#55667D"/>
<path d="M69.738 77.1895C69.9766 77.286 70.1753 77.4677 70.0731 77.6323C69.8289 78.0128 69.0281 77.7913 68.4488 77.8992C68.6646 77.6891 69.3064 77.5245 69.4768 77.4677C69.738 77.3768 69.7664 77.2973 69.7664 77.2973L69.738 77.1895Z" fill="#6C818F"/>
<path d="M68.6135 77.8311C68.6362 77.8765 68.6532 77.9276 68.6703 77.973C68.6816 78.0014 68.6873 78.0241 68.6987 78.0525C68.6987 78.0582 68.6987 78.0639 68.6987 78.0752C68.6987 78.0922 68.6759 78.0922 68.6589 78.0922C68.4942 78.0922 68.3295 78.0411 68.1989 77.9446C68.1818 77.9333 68.1591 77.9105 68.1591 77.8878C68.1591 77.8651 68.1818 77.8481 68.2046 77.8424C68.233 77.8311 68.2727 77.8424 68.2954 77.814C68.3238 77.7856 68.3068 77.7743 68.3011 77.7459C68.3011 77.7061 68.3352 77.6664 68.3749 77.655C68.4828 77.6323 68.5737 77.7459 68.6135 77.8367V77.8311Z" fill="#6C818F"/>
<path d="M63.9847 72.8516C62.8545 74.3392 63.2294 77.1043 64.1722 77.6267C62.7523 77.0589 62.9 74.0837 63.9847 72.8516Z" fill="#6C818F"/>
<path d="M52.4044 61.8931C54.6989 63.4772 55.1987 64.9535 55.4032 65.1806C55.6587 65.3055 55.6644 65.544 55.6644 65.544C55.6644 65.544 55.4713 65.6973 54.4377 65.3225C53.5517 65.0046 53.1314 64.6128 53.1314 64.6128C53.1314 64.6128 53.4608 64.6525 53.5233 64.6128C53.5857 64.573 53.5857 64.2437 53.3131 63.9258C53.421 63.8122 53.0178 63.216 53.0178 63.216C53.0178 63.216 53.0689 63.0798 52.7963 62.7448C52.8588 62.4722 52.3987 61.8987 52.3987 61.8987L52.4044 61.8931Z" fill="#55667D"/>
<path d="M62.6217 68.8373C62.599 68.7975 62.5706 68.7578 62.5479 68.718C62.4911 68.6272 62.4797 68.5136 62.4513 68.3944C62.3945 68.1219 62.315 67.8663 62.2241 67.6222C62.0254 67.0828 61.7812 66.5888 61.4972 66.1289C61.3552 65.8961 61.2075 65.6747 61.0485 65.4589C61.0144 65.4078 60.5828 64.9138 60.5942 64.8911C60.3727 65.317 60.0149 65.6747 59.64 65.8336C59.5491 65.8734 59.4526 65.9075 59.3844 65.9983C59.339 66.0608 59.3163 66.1346 59.2879 66.2084C59.2538 66.2936 59.2254 66.3503 59.197 66.4298C59.1345 66.6229 59.0323 66.7024 58.8903 66.8103C58.8903 66.8103 58.879 66.8216 58.8733 66.8273C58.8733 66.833 58.8733 66.8386 58.8733 66.8443C58.9244 67.0828 59.1459 67.1623 59.2992 67.2815C59.4356 67.3894 59.5832 67.4973 59.7593 67.52C59.8331 67.5257 59.9126 67.52 59.9751 67.5541C60.0205 67.5768 60.0603 67.6222 60.0944 67.6619C60.242 67.8436 60.4011 68.014 60.5714 68.1673C60.685 68.2695 60.8327 68.3433 60.9576 68.4228C61.0996 68.5193 61.2473 68.6102 61.4006 68.6896C61.7016 68.8486 62.014 68.9792 62.3491 69.0701C62.4911 69.1098 62.6387 69.1382 62.7978 69.1268C62.7353 69.0303 62.6785 68.9338 62.616 68.8373H62.6217Z" fill="#55667D"/>
</g>
<defs>
<linearGradient id="paint0_linear_974_11984" x1="177.534" y1="32.9952" x2="179.45" y2="30.4962" gradientUnits="userSpaceOnUse">
<stop offset="0.02" stop-color="#2E2E3B"/>
<stop offset="0.14" stop-color="#393945"/>
<stop offset="0.3" stop-color="#40404B"/>
<stop offset="0.77" stop-color="#42424D"/>
</linearGradient>
<linearGradient id="paint1_linear_974_11984" x1="114.373" y1="106.352" x2="117.718" y2="105.609" gradientUnits="userSpaceOnUse">
<stop offset="0.02" stop-color="#2E2E3B"/>
<stop offset="0.14" stop-color="#393945"/>
<stop offset="0.3" stop-color="#40404B"/>
<stop offset="0.77" stop-color="#42424D"/>
</linearGradient>
<clipPath id="clip0_974_11984">
<rect width="148" height="121.36" fill="white" transform="translate(1 22)"/>
</clipPath>
</defs>
</svg>
