<svg width="150" height="150" viewBox="0 0 150 150" fill="none" xmlns="http://www.w3.org/2000/svg">
<g clip-path="url(#clip0_974_11985)">
<path d="M22.5136 130.656C51.3197 146.724 98.1749 146.642 127.168 130.475C156.156 114.307 156.304 88.1778 127.498 72.1094C98.6917 56.0411 51.8365 56.1234 22.8431 72.2905C-6.14471 88.4576 -6.29238 114.587 22.5136 130.656Z" fill="#0A4069"/>
<path fill-rule="evenodd" clip-rule="evenodd" d="M1 83.9542C11.1966 94.6983 45.3763 111.906 74.1686 125.218C98.708 111.499 123.247 97.7803 147.787 84.0614C142.538 81.1295 136.329 73.9675 131.081 71.038C124.807 67.5344 114.292 66.0339 108.817 61.4157C87.1828 43.162 87.2484 50.2524 74.2658 43C68.0939 46.4607 61.0039 50.2858 54.1325 51.4981C39.6246 54.0609 40.8658 63.9618 32.9402 66.7127C21.245 70.776 12.241 77.6497 1 83.9542Z" fill="#86C634"/>
<path fill-rule="evenodd" clip-rule="evenodd" d="M74.1663 140.168L147.784 99.0141V84.0638C123.247 97.7804 98.7129 111.497 74.176 125.213C74.1711 130.453 74.1687 135.474 74.1663 140.168Z" fill="#2C1B10"/>
<path fill-rule="evenodd" clip-rule="evenodd" d="M1 98.9045L74.1687 140.171C74.1711 135.188 74.1735 130.205 74.1784 125.22C70.9892 123.422 64.3121 120.667 61.6597 118.166C48.563 105.812 45.1261 108.836 35.3837 103.344C29.6393 100.105 27.1546 97.8065 21.4126 92.8763C16.4503 88.6153 8.15559 89.2465 1 83.9542V98.9021L1 98.9045Z" fill="#4C3318"/>
<path fill-rule="evenodd" clip-rule="evenodd" d="M74.1711 140.166L147.787 99.0117V90.0778C127.015 107.462 103.117 121.8 74.1784 131.227C74.1784 134.288 74.1736 137.275 74.1711 140.166Z" fill="#4F667F"/>
<path fill-rule="evenodd" clip-rule="evenodd" d="M74.1711 140.166L147.787 99.0116V92.4523C126.985 109.36 102.883 123.005 74.176 132.961L74.1711 140.164V140.166Z" fill="#6D6E71"/>
<path fill-rule="evenodd" clip-rule="evenodd" d="M74.1663 140.168L74.176 131.234H74.1735C74.1735 134.316 74.1687 137.303 74.1687 140.168H74.1663Z" fill="#939598"/>
<path fill-rule="evenodd" clip-rule="evenodd" d="M1 98.9045L74.1662 140.171C74.1662 137.191 74.1711 134.214 74.1711 131.234C68.9975 130.282 66.7969 129.234 60.9529 125.463C56.3186 122.472 48.9395 114.872 44.1303 112.159C34.5117 106.736 27.7569 106.471 18.821 100.022C9.49149 93.2836 6.40191 92.4214 1 89.9706V98.9045Z" fill="#647B98"/>
<path fill-rule="evenodd" clip-rule="evenodd" d="M1 98.9045L74.1662 140.171L74.1711 132.966C69.4055 132.03 67.1175 130.522 61.4581 126.871C56.763 123.841 48.614 116.984 43.7416 114.238C33.9968 108.743 22.457 104.716 13.402 98.1828C4.1163 91.4758 6.29746 93.4264 1 91.0399V98.9045Z" fill="#939598"/>
<path fill-rule="evenodd" clip-rule="evenodd" d="M74.1759 140.164L147.787 99.014V96.1869L74.1783 137.336L74.1759 140.164Z" fill="#894235"/>
<path fill-rule="evenodd" clip-rule="evenodd" d="M1 98.9045L74.1662 140.168L74.1686 137.339L1 96.0774V98.9045Z" fill="#A25641"/>
<path fill-rule="evenodd" clip-rule="evenodd" d="M124.751 69.9066C121.865 69.9066 119.524 71.3666 119.524 73.1672C119.524 74.9678 121.865 76.4279 124.751 76.4279C127.636 76.4279 129.978 74.9678 129.978 73.1672C129.978 71.3666 127.636 69.9066 124.751 69.9066Z" fill="#689F1B"/>
<path fill-rule="evenodd" clip-rule="evenodd" d="M123.893 73.0196V73.0101V72.9863C124.134 70.4402 124.112 64.2429 124.35 61.6944C124.406 61.1061 124.858 62.2184 124.914 61.6325C125.193 64.7692 125.334 69.8567 125.613 72.9934V73.0506L125.608 73.0744L125.603 73.0959L125.594 73.1197L125.584 73.1411L125.569 73.1649L125.557 73.184L125.538 73.2102L125.523 73.2292L125.499 73.2554L125.48 73.2721L125.446 73.3007L125.431 73.315L125.373 73.3531L125.3 73.3912H125.295L125.278 73.3983L125.212 73.4245L125.2 73.4293L125.186 73.4341L125.14 73.4483L125.118 73.4555H125.106L125.067 73.4674L125.042 73.4745H125.03L124.994 73.4841L124.967 73.4888H124.95L124.918 73.4936L124.894 73.4984H124.838L124.819 73.5031H124.676L124.659 73.5007H124.637L124.588 73.4936H124.571L124.557 73.4888L124.481 73.4769H124.464L124.457 73.4722L124.389 73.4555H124.372L124.289 73.4269L124.251 73.4102L124.207 73.3912L124.161 73.3674L124.098 73.3269H124.095L124.081 73.315L124.044 73.2864H124.042V73.284L124.037 73.2792L124.008 73.2507L123.998 73.2411L123.993 73.2316H123.988L123.981 73.2149L123.964 73.1935L123.957 73.1816L123.952 73.1673L123.94 73.1459L123.935 73.1363L123.93 73.1244L123.92 73.103V73.0935L123.918 73.0887V73.0792L123.91 73.0601V73.0506L123.908 73.0435V73.0292V73.0149L123.893 73.0196Z" fill="#56321A"/>
<path fill-rule="evenodd" clip-rule="evenodd" d="M119.939 48.6305C123.274 45.1674 128.132 46.1058 130.789 50.7264C133.446 55.347 132.9 61.8992 129.565 65.3623C126.232 68.8254 121.372 67.887 118.715 63.2664C116.058 58.6481 116.604 52.0936 119.939 48.6305Z" fill="#446616"/>
<path fill-rule="evenodd" clip-rule="evenodd" d="M120.527 48.9067C123.218 46.1129 127.139 46.8703 129.286 50.5978C131.43 54.3276 130.988 59.6175 128.297 62.4113C125.606 65.205 121.683 64.4477 119.538 60.7178C117.394 56.988 117.836 51.6981 120.527 48.9043V48.9067Z" fill="#4E7F16"/>
<path fill-rule="evenodd" clip-rule="evenodd" d="M120.464 48.8019C122.65 46.532 125.837 47.1465 127.578 50.1761C129.322 53.2057 128.963 57.5048 126.776 59.7746C124.59 62.0444 121.404 61.4299 119.66 58.4003C117.916 55.3707 118.275 51.074 120.461 48.8019H120.464Z" fill="#6DA51C"/>
<path fill-rule="evenodd" clip-rule="evenodd" d="M133.41 75.78C131.012 75.78 129.069 76.9923 129.069 78.4881C129.069 79.9838 131.012 81.1961 133.41 81.1961C135.807 81.1961 137.75 79.9838 137.75 78.4881C137.75 76.9923 135.807 75.78 133.41 75.78Z" fill="#689F1B"/>
<path fill-rule="evenodd" clip-rule="evenodd" d="M132.698 78.3643V78.3572V78.3381C132.898 76.2231 132.881 71.0785 133.077 68.9635C133.123 68.4753 133.5 69.3994 133.544 68.9111C133.774 71.5168 133.893 75.7396 134.124 78.3429V78.3905L134.119 78.412V78.431L134.107 78.4524L134.1 78.4715L134.088 78.4929L134.078 78.5096L134.061 78.531L134.049 78.5477L134.029 78.5692L134.015 78.5834L133.988 78.6073L133.976 78.6192L133.927 78.6501L133.867 78.6835H133.862L133.85 78.6906L133.794 78.7121L133.782 78.7168L133.77 78.7216L133.731 78.7335L133.711 78.7383H133.702L133.667 78.7478L133.648 78.7525H133.638L133.609 78.7597L133.587 78.7645H133.573L133.546 78.7692H133.527L133.507 78.7716H133.48L133.466 78.7764H133.347L133.332 78.774H133.313L133.274 78.7692H133.259L133.247 78.7668L133.187 78.7573H133.172L133.167 78.7525L133.109 78.7383H133.097L133.029 78.7144L132.995 78.7001L132.958 78.6859L132.919 78.6668L132.868 78.6335H132.866L132.854 78.6239L132.825 78.6001V78.5977H132.822L132.798 78.5715L132.791 78.5644L132.786 78.5572H132.781L132.774 78.5453L132.759 78.5263L132.752 78.5168L132.747 78.5048L132.737 78.4882L132.732 78.4786L132.73 78.4691L132.723 78.4501V78.4429L132.72 78.4382V78.4286L132.715 78.4143V78.4072V78.4V78.3881V78.3762L132.698 78.3643Z" fill="#56321A"/>
<path fill-rule="evenodd" clip-rule="evenodd" d="M129.414 62.4184C132.181 60.3368 136.215 60.9012 138.423 63.6784C140.631 66.4579 140.174 70.3997 137.408 72.4813C134.639 74.563 130.607 73.9985 128.399 71.2214C126.191 68.4419 126.648 64.5001 129.414 62.4184Z" fill="#446616"/>
<path fill-rule="evenodd" clip-rule="evenodd" d="M129.903 62.5851C132.137 60.9036 135.392 61.3609 137.175 63.6021C138.955 65.8457 138.588 69.0277 136.354 70.7093C134.119 72.3908 130.864 71.9335 129.082 69.6923C127.301 67.4486 127.668 64.2666 129.903 62.5851Z" fill="#4E7F16"/>
<path fill-rule="evenodd" clip-rule="evenodd" d="M129.852 62.5209C131.666 61.1562 134.311 61.5253 135.759 63.3474C137.206 65.1694 136.908 67.756 135.093 69.1207C133.279 70.4855 130.634 70.1163 129.186 68.2943C127.738 66.4722 128.037 63.8856 129.852 62.5209Z" fill="#6DA51C"/>
<path fill-rule="evenodd" clip-rule="evenodd" d="M142.7 86.9076C133.845 82.2703 114.702 72.6337 106.876 76.4684C96.228 81.6844 97.7072 85.7334 81.6229 85.5142C41.5725 84.9712 56.8917 103.532 75.9101 119.709C77.0663 120.693 78.2564 121.533 79.4757 122.253C80.6343 122.458 81.7929 122.662 82.9515 122.87L136.13 92.6833C139.842 90.4969 141.45 89.094 142.703 86.9076H142.7Z" fill="#C19F51"/>
<path fill-rule="evenodd" clip-rule="evenodd" d="M136.351 92.55C129.164 86.2002 117.52 80.2959 107.654 82.78C97.8116 85.2594 96.9178 90.9399 83.2041 90.2706C44.6524 88.3914 69.0848 112.116 82.9491 122.867L136.351 92.55Z" fill="#A18B58"/>
<path fill-rule="evenodd" clip-rule="evenodd" d="M82.9492 122.87C92.6309 129.846 134.901 102.558 136.128 92.6833L82.9492 122.87Z" fill="#0095DA"/>
<path fill-rule="evenodd" clip-rule="evenodd" d="M52.2963 97.735C49.8334 97.735 47.8368 98.9806 47.8368 100.517C47.8368 102.053 49.8334 103.299 52.2963 103.299C54.7592 103.299 56.7558 102.053 56.7558 100.517C56.7558 98.9806 54.7592 97.735 52.2963 97.735Z" fill="#689F1B"/>
<path fill-rule="evenodd" clip-rule="evenodd" d="M48.7793 91.9283C51.0479 90.2206 54.3537 90.6827 56.1632 92.962C57.9727 95.239 57.5987 98.471 55.3301 100.179C53.0615 101.886 49.7533 101.422 47.9462 99.145C46.1366 96.8681 46.5107 93.636 48.7793 91.9283Z" fill="#446616"/>
<path fill-rule="evenodd" clip-rule="evenodd" d="M49.1775 92.0665C51.0089 90.6874 53.6783 91.0614 55.1381 92.9001C56.5979 94.7388 56.2967 97.3468 54.4653 98.7259C52.6339 100.105 49.9645 99.731 48.5047 97.8922C47.045 96.0535 47.3461 93.4455 49.1775 92.0665Z" fill="#4E7F16"/>
<path fill-rule="evenodd" clip-rule="evenodd" d="M49.1364 92.0141C50.6253 90.8947 52.7919 91.1972 53.9796 92.6929C55.1649 94.1863 54.922 96.306 53.4331 97.4255C51.9442 98.5449 49.7776 98.2424 48.5899 96.7467C47.4045 95.2533 47.6474 93.1335 49.1364 92.0141Z" fill="#6DA51C"/>
<path fill-rule="evenodd" clip-rule="evenodd" d="M54.8733 102.472C52.9108 102.472 51.3174 103.465 51.3174 104.69C51.3174 105.914 52.9108 106.907 54.8733 106.907C56.8359 106.907 58.4292 105.914 58.4292 104.69C58.4292 103.465 56.8359 102.472 54.8733 102.472Z" fill="#689F1B"/>
<path fill-rule="evenodd" clip-rule="evenodd" d="M52.0679 97.8398C53.8775 96.4799 56.5129 96.8467 57.9556 98.6639C59.3984 100.481 59.0996 103.058 57.2925 104.418C55.483 105.781 52.8476 105.411 51.4048 103.594C49.9621 101.777 50.2608 99.1998 52.0679 97.8398Z" fill="#446616"/>
<path fill-rule="evenodd" clip-rule="evenodd" d="M52.3886 97.9493C53.8484 96.8513 55.9785 97.1491 57.142 98.6138C58.3054 100.081 58.0674 102.16 56.6052 103.258C55.1454 104.356 53.0153 104.059 51.8518 102.594C50.6884 101.127 50.9288 99.0473 52.3886 97.9493Z" fill="#4E7F16"/>
<path fill-rule="evenodd" clip-rule="evenodd" d="M52.3545 97.9089C53.5398 97.0157 55.2692 97.2587 56.2165 98.4495C57.1614 99.6404 56.9671 101.331 55.7817 102.222C54.5964 103.115 52.867 102.872 51.9198 101.682C50.9749 100.491 51.1692 98.7997 52.3545 97.9089Z" fill="#6DA51C"/>
<path fill-rule="evenodd" clip-rule="evenodd" d="M45.1748 101.329C43.3895 101.329 41.9395 102.232 41.9395 103.346C41.9395 104.461 43.3871 105.364 45.1748 105.364C46.9624 105.364 48.4101 104.461 48.4101 103.346C48.4101 102.232 46.9624 101.329 45.1748 101.329Z" fill="#689F1B"/>
<path fill-rule="evenodd" clip-rule="evenodd" d="M42.6219 97.1157C44.2687 95.8772 46.6661 96.213 47.9777 97.866C49.2893 99.5189 49.0197 101.863 47.3729 103.101C45.7261 104.34 43.3287 104.004 42.0147 102.351C40.7031 100.698 40.9727 98.3542 42.6195 97.1157H42.6219Z" fill="#446616"/>
<path fill-rule="evenodd" clip-rule="evenodd" d="M42.9135 97.2158C44.2421 96.2155 46.1779 96.487 47.2369 97.8208C48.2959 99.1545 48.0773 101.046 46.7487 102.046C45.4201 103.046 43.4843 102.775 42.4253 101.441C41.3663 100.107 41.5849 98.2161 42.9135 97.2158Z" fill="#4E7F16"/>
<path fill-rule="evenodd" clip-rule="evenodd" d="M42.8817 97.1777C43.9602 96.3655 45.5341 96.5846 46.394 97.6683C47.2538 98.752 47.0765 100.291 45.998 101.103C44.9196 101.915 43.3457 101.693 42.4858 100.61C41.626 99.5261 41.8033 97.9898 42.8817 97.1777Z" fill="#6DA51C"/>
<path fill-rule="evenodd" clip-rule="evenodd" d="M10.8031 94.4696C10.6622 94.6197 10.4412 94.8316 10.3489 94.9841C10.1837 95.258 10.0696 95.2699 10.0696 95.6033C10.0696 95.7343 10.1546 96.2416 10.2445 96.325C10.4096 96.4798 10.1813 96.5655 10.5238 96.5655H11.5731C11.9593 96.5655 11.8184 96.2369 11.8184 95.9129C11.8184 95.7415 11.9374 95.2913 11.9228 95.227C11.8767 95.0031 10.9707 94.472 10.8031 94.472V94.4696Z" fill="#A25641"/>
<path fill-rule="evenodd" clip-rule="evenodd" d="M26.9458 105.45C26.7491 105.383 26.4625 105.269 26.2827 105.247C25.9597 105.207 25.9038 105.109 25.5929 105.242C25.4715 105.295 25.0294 105.573 24.9881 105.688C24.9104 105.9 24.7379 105.728 24.874 106.035L25.2942 106.979C25.4472 107.326 25.6998 107.067 26.001 106.938C26.1613 106.869 26.6276 106.798 26.6859 106.76C26.8778 106.629 27.0138 105.602 26.9458 105.45Z" fill="#58595B"/>
<path fill-rule="evenodd" clip-rule="evenodd" d="M29.134 103.835C28.913 104.068 28.5705 104.397 28.4272 104.635C28.1697 105.061 27.9924 105.078 27.9924 105.597C27.9924 105.8 28.126 106.59 28.2645 106.719C28.5219 106.96 28.1673 107.093 28.6992 107.093H30.3315C30.9314 107.093 30.7128 106.581 30.7128 106.078C30.7128 105.814 30.8974 105.114 30.8756 105.011C30.8027 104.661 29.3963 103.837 29.134 103.837V103.835Z" fill="#58595B"/>
<path fill-rule="evenodd" clip-rule="evenodd" d="M17.5556 105.642C17.7305 105.533 18.0001 105.383 18.1288 105.257C18.3595 105.033 18.4737 105.049 18.5587 104.728C18.5927 104.602 18.6389 104.09 18.5757 103.987C18.4543 103.797 18.6996 103.77 18.3668 103.685L17.3515 103.425C16.9775 103.33 17.0285 103.682 16.9459 103.997C16.9022 104.161 16.6714 104.568 16.6666 104.635C16.6544 104.864 17.3928 105.602 17.5556 105.645V105.642Z" fill="#58595B"/>
<path fill-rule="evenodd" clip-rule="evenodd" d="M4.81348 96.9253C4.76247 96.6109 4.71147 96.1441 4.60945 95.8845C4.42728 95.4224 4.52201 95.2748 4.10909 94.9556C3.94636 94.8317 3.23226 94.4459 3.0428 94.4721C2.69061 94.5221 2.80234 94.1649 2.47443 94.5769L1.46643 95.8345C1.09481 96.2965 1.64132 96.4442 2.04452 96.7562C2.25826 96.9205 2.70275 97.4945 2.79991 97.5422C3.12538 97.7018 4.6556 97.1278 4.81834 96.9277L4.81348 96.9253Z" fill="#58595B"/>
<path fill-rule="evenodd" clip-rule="evenodd" d="M48.2837 119.426C48.4585 119.316 48.7282 119.166 48.8569 119.04C49.0876 118.816 49.2018 118.833 49.2868 118.511C49.3208 118.385 49.367 117.873 49.3038 117.77C49.1824 117.58 49.4277 117.554 49.0949 117.468L48.0796 117.208C47.7056 117.113 47.7566 117.465 47.674 117.777C47.6303 117.942 47.3995 118.349 47.3947 118.416C47.3825 118.644 48.1209 119.383 48.2837 119.426Z" fill="#58595B"/>
<path fill-rule="evenodd" clip-rule="evenodd" d="M15.8042 94.4554C15.5346 94.8412 15.0804 95.308 14.9031 95.6867C14.7355 96.0464 14.8764 95.9988 15.3257 96.2155C15.7313 96.4108 16.9944 96.83 17.604 96.6728C18.0947 96.5466 18.6412 95.1461 18.1335 94.8769C17.7133 94.6531 16.613 94.322 15.8042 94.4554Z" fill="#58595B"/>
<path fill-rule="evenodd" clip-rule="evenodd" d="M40.4044 116.036C40.0619 116.525 39.4887 117.115 39.2652 117.596C39.0539 118.054 39.2312 117.992 39.802 118.266C40.3145 118.513 41.9127 119.042 42.6827 118.844C43.3045 118.685 43.9967 116.913 43.3531 116.572C42.8212 116.291 41.4294 115.87 40.4044 116.036Z" fill="#58595B"/>
<path fill-rule="evenodd" clip-rule="evenodd" d="M67.0664 130.832C67.647 130.67 68.4728 130.575 68.9586 130.344C69.4176 130.124 69.2428 130.063 68.9804 129.493C68.7448 128.984 67.8583 127.576 67.1393 127.245C66.5588 126.978 64.8707 127.912 65.1452 128.576C65.3711 129.127 66.1702 130.32 67.0664 130.832Z" fill="#58595B"/>
<path fill-rule="evenodd" clip-rule="evenodd" d="M6.21002 90.0015C6.15901 90.2159 6.02056 90.4064 5.97684 90.616C5.90397 90.9637 5.45948 90.8804 5.24574 90.6684C5.14372 90.5684 4.50978 89.599 4.92512 89.599C5.24817 89.599 6.17601 89.73 6.21002 90.0015Z" fill="#A7A9AC"/>
<path fill-rule="evenodd" clip-rule="evenodd" d="M27.5092 104.004C27.2979 103.935 27.1157 103.782 26.9068 103.72C26.5595 103.618 26.6858 103.192 26.9214 103.001C27.0331 102.911 28.0751 102.382 28.0363 102.787C28.0071 103.101 27.7885 103.994 27.5068 104.006L27.5092 104.004Z" fill="#A7A9AC"/>
<path fill-rule="evenodd" clip-rule="evenodd" d="M38.138 116.51C38.07 116.796 37.8854 117.051 37.8271 117.332C37.73 117.799 37.1349 117.685 36.8483 117.401C36.7123 117.268 35.8646 115.972 36.4184 115.972C36.8483 115.972 38.0895 116.146 38.138 116.51Z" fill="#A7A9AC"/>
<path fill-rule="evenodd" clip-rule="evenodd" d="M62.097 123.56C62.029 123.846 61.8444 124.101 61.7861 124.382C61.689 124.849 61.0939 124.735 60.8073 124.454C60.6713 124.32 59.8236 123.022 60.3774 123.022C60.8073 123.022 62.0485 123.196 62.097 123.56Z" fill="#A7A9AC"/>
<path fill-rule="evenodd" clip-rule="evenodd" d="M40.7711 114.017C40.4189 113.902 40.1202 113.65 39.7753 113.548C39.1996 113.376 39.4109 112.671 39.7995 112.357C39.9841 112.207 41.7111 111.332 41.648 112.002C41.5994 112.523 41.235 114.002 40.7735 114.019L40.7711 114.017Z" fill="#A25641"/>
<path fill-rule="evenodd" clip-rule="evenodd" d="M66.1678 125.952C65.8156 125.837 65.5169 125.585 65.172 125.482C64.5963 125.311 64.8076 124.606 65.1963 124.292C65.3809 124.142 67.1078 123.267 67.0447 123.937C66.9961 124.458 66.6318 125.937 66.1703 125.954L66.1678 125.952Z" fill="#A25641"/>
<path fill-rule="evenodd" clip-rule="evenodd" d="M17.7352 100.927C17.9586 100.786 18.3011 100.595 18.4639 100.434C18.7578 100.148 18.9035 100.169 19.0128 99.7595C19.0565 99.5999 19.1172 98.9449 19.0346 98.8163C18.8816 98.5734 19.1901 98.54 18.7675 98.4305L17.4729 98.0994C16.9968 97.9779 17.0624 98.4281 16.9555 98.8258C16.8996 99.0354 16.6057 99.5523 16.6009 99.6404C16.5863 99.931 17.5263 100.872 17.7327 100.927H17.7352Z" fill="#A7A9AC"/>
<path fill-rule="evenodd" clip-rule="evenodd" d="M46.6125 114.865C46.3016 114.688 46.0684 114.391 45.7623 114.226C45.2523 113.952 45.5947 113.326 46.0247 113.102C46.2287 112.995 48.0431 112.502 47.8463 113.124C47.6958 113.607 47.0521 114.941 46.61 114.867L46.6125 114.865Z" fill="#A7A9AC"/>
<path fill-rule="evenodd" clip-rule="evenodd" d="M54.6062 124.323C54.1326 124.218 53.71 123.922 53.246 123.832C52.4736 123.677 52.6582 122.732 53.127 122.272C53.3481 122.055 55.4928 120.702 55.4952 121.581C55.4952 122.267 55.211 124.244 54.6087 124.323H54.6062Z" fill="#A25641"/>
<path fill-rule="evenodd" clip-rule="evenodd" d="M97.9453 125.435C98.1202 125.325 98.3898 125.175 98.5185 125.049C98.7493 124.825 98.8634 124.842 98.9484 124.52C98.9824 124.394 99.0286 123.882 98.9654 123.779C98.844 123.589 99.0893 123.563 98.7566 123.477L97.7413 123.217C97.3672 123.122 97.4182 123.475 97.3356 123.787C97.2919 123.951 97.0612 124.358 97.0587 124.425C97.0466 124.654 97.785 125.392 97.9477 125.435H97.9453Z" fill="#58595B"/>
<path fill-rule="evenodd" clip-rule="evenodd" d="M80.9818 128.269C80.6393 128.757 80.0661 129.348 79.8426 129.829C79.6313 130.284 79.8086 130.224 80.3794 130.498C80.8919 130.746 82.4901 131.275 83.2601 131.077C83.8819 130.918 84.5741 129.146 83.9305 128.805C83.3985 128.524 82.0068 128.102 80.9818 128.269Z" fill="#58595B"/>
<path fill-rule="evenodd" clip-rule="evenodd" d="M78.7157 128.743C78.6477 129.029 78.4631 129.284 78.4048 129.565C78.3076 130.032 77.7125 129.917 77.4259 129.634C77.2899 129.501 76.4422 128.205 76.996 128.205C77.4259 128.205 78.6671 128.381 78.7157 128.745V128.743Z" fill="#808285"/>
<path fill-rule="evenodd" clip-rule="evenodd" d="M81.3485 126.249C80.9963 126.135 80.6976 125.883 80.3527 125.78C79.777 125.609 79.9883 124.904 80.3769 124.589C80.5615 124.439 82.2885 123.565 82.2253 124.234C82.1768 124.754 81.8124 126.235 81.3509 126.252L81.3485 126.249Z" fill="#894235"/>
<path fill-rule="evenodd" clip-rule="evenodd" d="M87.1901 127.097C86.8792 126.921 86.646 126.623 86.34 126.459C85.8299 126.185 86.1724 125.559 86.6023 125.335C86.8063 125.23 88.6207 124.735 88.424 125.356C88.271 125.84 87.6297 127.173 87.1877 127.1L87.1901 127.097Z" fill="#808285"/>
<path fill-rule="evenodd" clip-rule="evenodd" d="M137.15 99.5023C136.976 99.3927 136.706 99.2427 136.577 99.1165C136.347 98.8926 136.232 98.9092 136.147 98.5877C136.113 98.4615 136.065 97.9494 136.13 97.847C136.252 97.6564 136.006 97.6302 136.339 97.5445L137.355 97.2849C137.729 97.1896 137.678 97.5421 137.76 97.8565C137.804 98.0209 138.035 98.4281 138.039 98.4948C138.052 98.7235 137.313 99.4618 137.15 99.5047V99.5023Z" fill="#58595B"/>
<path fill-rule="evenodd" clip-rule="evenodd" d="M145.03 96.113C145.372 96.6013 145.946 97.192 146.169 97.6731C146.38 98.128 146.203 98.0685 145.632 98.3424C145.12 98.5901 143.521 99.1188 142.752 98.9211C142.13 98.7615 141.438 96.9895 142.081 96.6489C142.613 96.3679 144.005 95.9463 145.03 96.113Z" fill="#58595B"/>
<path fill-rule="evenodd" clip-rule="evenodd" d="M130.145 105.219C130.213 105.504 130.398 105.759 130.456 106.04C130.553 106.507 131.149 106.393 131.435 106.109C131.571 105.976 132.419 104.678 131.865 104.678C131.435 104.678 130.194 104.854 130.145 105.216V105.219Z" fill="#808285"/>
<path fill-rule="evenodd" clip-rule="evenodd" d="M146.473 89.942C146.283 89.63 145.967 89.3965 145.79 89.0893C145.496 88.5772 144.838 88.9297 144.61 89.3704C144.5 89.5799 144.002 91.421 144.653 91.2162C145.161 91.0566 146.558 90.3897 146.473 89.942Z" fill="#58595B"/>
<path fill-rule="evenodd" clip-rule="evenodd" d="M138.822 94.9413C139.133 94.765 139.366 94.4673 139.672 94.303C140.182 94.0291 139.839 93.4003 139.409 93.1788C139.205 93.0716 137.391 92.5786 137.588 93.2002C137.738 93.6837 138.382 95.0175 138.824 94.9413H138.822Z" fill="#894235"/>
<path fill-rule="evenodd" clip-rule="evenodd" d="M30.8562 80.646L32.0755 80.5412L33.6616 80.7341L34.4291 82.9991H34.4607L36.892 83.8351L37.2466 84.5282L37.5211 84.5544L37.5454 85.7905L38.7769 86.3169L38.3275 88.2557L37.2005 88.4319L36.1221 88.8654L35.0266 88.8154L35.0776 89.0893L33.8486 89.1179L32.9232 88.7177L31.0019 88.7296L30.8562 88.6653V82.2656V80.6507V80.646ZM29.921 80.8079L30.2805 80.696L30.8586 80.646V82.2608V88.6606L29.9235 88.2461V85.2832V80.8079H29.921ZM29.1826 81.039L29.921 80.8079V85.2832V88.2461L29.4935 88.058L27.3512 88.2104L25.6971 87.765L26.0663 86.7671L25.7166 86.8171L25.7992 86.9266L24.779 87.1434L23.1735 87.4792L23.0108 87.4697V87.01V75.2894L23.839 75.399L23.8633 75.3942L23.873 75.4037H23.8925L23.8779 75.4085L24.4584 75.9563L25.7117 80.2196L27.8006 80.9127L28.369 82.6276L28.4418 82.2941L29.1851 81.0366L29.1826 81.039ZM23.0108 87.4697L21.0944 87.3649L19.9139 88.2128L19.739 88.1675V87.7126L19.9139 88.2128L19.739 87.6221V76.2278V75.5204L19.7487 75.4942L22.5201 75.2251L23.0108 75.2894V87.01V87.4697ZM19.7366 88.1675L18.5634 87.8603L17.7619 88.4653L14.4998 88.2557L13.7105 88.0056L11.8499 87.1267L11.9131 86.86L10.9342 86.9886L9.14166 87.0243L9.12223 87.0362V86.729V79.1478C9.75618 78.7596 10.3853 78.3738 11.0119 77.9903L12.5591 78.1237L13.7542 78.4976L13.9121 78.7644L14.0068 78.2666L15.1192 76.6327L16.0714 76.4255L16.4794 76.1183L17.6502 75.9777L18.918 76.2088L19.7366 76.2278V75.5204L19.4573 76.2207L19.7366 76.2278V87.6221L19.5909 87.1315L19.5617 87.2148L19.7366 87.715V88.1699V88.1675ZM9.12709 87.0362L8.20896 87.6174C8.1118 87.584 8.01465 87.5483 7.91749 87.5149L7.51915 87.353L7.48757 87.3601C6.55487 87.0148 5.61973 86.6289 4.68946 86.1764V82.9968L5.54444 83.0777L5.8019 84.3901L5.54687 83.0777L4.69189 82.9968V81.9464L6.31683 81.4558L7.87134 81.7273L7.93935 81.7463L7.71346 81.6034L8.39356 79.6004C8.63888 79.4503 8.88663 79.3003 9.12952 79.1502V86.7313V87.0386L9.12709 87.0362ZM4.68703 86.174C3.9705 85.8263 3.25883 85.4404 2.55444 85.0046L3.57459 82.8872L3.80776 82.8396L4.08952 82.1774L4.27654 82.0655L4.6846 81.9416V82.992V86.1716L4.68703 86.174Z" fill="#689F1B"/>
<path fill-rule="evenodd" clip-rule="evenodd" d="M37.3025 82.6061L39.8067 82.3727L43.9091 82.3822L47.5282 82.7061L49.9668 85.8L48.2812 86.1787L41.711 86.4812L34.9027 85.0736L35.6047 83.7374L37.3025 82.6061Z" fill="#689F1B"/>
<path fill-rule="evenodd" clip-rule="evenodd" d="M39.9598 80.0267L41.6989 79.6909L44.5505 79.7052L47.0644 80.1696L45.6411 82.0798L40.4845 80.8723L39.9598 80.0267Z" fill="#D1D3D4"/>
<path fill-rule="evenodd" clip-rule="evenodd" d="M39.9599 80.0267L38.7795 81.663L38.2913 83.5922L43.0228 85.6286L43.6592 82.711L42.4034 82.8777L42.7386 81.351L39.9599 80.0267Z" fill="#A7A9AC"/>
<path fill-rule="evenodd" clip-rule="evenodd" d="M47.5891 85.188L48.7623 84.6426L47.0645 80.1697L45.9618 80.8294L44.1644 80.4912L43.6276 81.2462L45.2598 84.3949L47.5891 85.188Z" fill="#A7A9AC"/>
<path fill-rule="evenodd" clip-rule="evenodd" d="M43.0228 85.6286L47.5891 85.188L46.1123 82.3156L44.3004 81.4106L44.1643 80.4912L42.7386 81.351L42.4034 82.8777L43.6591 82.711L43.0228 85.6286Z" fill="#808285"/>
<path fill-rule="evenodd" clip-rule="evenodd" d="M28.2015 76.2421L29.1706 75.7253L30.7616 75.4943L32.1655 75.7848L31.8133 77.2377L28.4929 77.121L28.2015 76.2421Z" fill="#D1D3D4"/>
<path fill-rule="evenodd" clip-rule="evenodd" d="M17.8227 76.7494L19.0274 80.0791L17.3126 81.8773L15.9888 80.6698L17.8227 76.7494Z" fill="#916245"/>
<path fill-rule="evenodd" clip-rule="evenodd" d="M17.4923 84.7069L19.8678 85.238L20.1034 82.9039L20.6183 83.0539V78.2071L17.8809 77.1758L18.289 80.1911L17.043 80.9342L17.4923 84.7069Z" fill="#808285"/>
<path fill-rule="evenodd" clip-rule="evenodd" d="M13.3437 84.9426L16.8219 85.0498L17.0429 80.9342L17.8226 76.7494L15.0877 75.1274L13.4943 79.9314L13.3437 84.9426Z" fill="#808285"/>
<path fill-rule="evenodd" clip-rule="evenodd" d="M8.01721 82.0488L9.70288 83.4969L11.8112 74.7654L11.0266 76.3731L10.2421 76.6541L10.0696 78.3332L9.31425 78.8477L8.01721 82.0488Z" fill="#BF6C11"/>
<path fill-rule="evenodd" clip-rule="evenodd" d="M9.70294 83.4969L12.3407 84.028L11.8865 80.4482L12.6395 76.0992L11.8112 74.7654L9.70294 83.4969Z" fill="#A05912"/>
<path fill-rule="evenodd" clip-rule="evenodd" d="M22.2725 77.7498L21.7308 84.2353L24.3784 85.1213L23.2951 78.0761L22.2725 77.7498Z" fill="#808285"/>
<path fill-rule="evenodd" clip-rule="evenodd" d="M19.8679 85.238L21.7309 84.2353L22.4523 80.9937L22.2725 77.7498L20.6185 78.2071V80.0029L19.5352 81.1247L20.1011 82.9039L19.8679 85.238Z" fill="#A7A9AC"/>
<path fill-rule="evenodd" clip-rule="evenodd" d="M26.421 84.6187L28.1577 82.1178L26.9748 76.0563L25.2625 76.6112L24.405 75.8372L23.4821 76.0944L24.1379 77.633L23.7784 78.9715L24.8665 83.7874L26.421 84.6187Z" fill="#A7A9AC"/>
<path fill-rule="evenodd" clip-rule="evenodd" d="M24.3782 85.1213L26.4209 84.6187L24.9174 81.0556L24.3175 80.5817L24.1378 77.6331L23.2949 78.0761L24.3782 85.1213Z" fill="#808285"/>
<path fill-rule="evenodd" clip-rule="evenodd" d="M15.457 72.7767L12.5908 73.4222L13.1835 74.1153L11.8112 74.7655L12.6394 76.0993L14.5728 77.4926L16.788 78.2047L17.881 77.1758L20.6184 78.2071L22.2725 77.7498L23.2951 78.0761L24.2108 78.8597L24.9637 78.3667L26.1102 77.9666L26.9749 76.0564L25.124 75.0132L22.9162 74.5154L21.1431 74.1582L19.574 73.0006L15.8432 73.2459L15.457 72.7767Z" fill="#D1D3D4"/>
<path fill-rule="evenodd" clip-rule="evenodd" d="M20.6184 78.2071L21.8669 79.941L21.2256 79.7457L21.6701 81.8083L20.9293 82.8991L21.024 84.6163L21.7309 84.2353L22.4522 80.9937L22.2725 77.7498L20.6184 78.2071Z" fill="#A7A9AC"/>
<path fill-rule="evenodd" clip-rule="evenodd" d="M12.5908 73.4221L12.1997 74.582L13.1834 74.1152L12.5908 73.4221Z" fill="#BF6C11"/>
<path fill-rule="evenodd" clip-rule="evenodd" d="M16.788 78.2047L16.7297 79.9577L16.1614 79.7338L16.6617 83.0539L15.9816 83.8113L16.822 85.0499L17.4924 84.7069L18.2891 80.1911L17.881 77.1758L17.2131 77.2377L16.788 78.2047Z" fill="#A7A9AC"/>
<path fill-rule="evenodd" clip-rule="evenodd" d="M12.6395 76.0992L12.2728 77.4378L11.7724 79.6219L11.9983 81.3153L11.8866 80.4483L13.2638 77.7831L12.6395 76.0992Z" fill="#84460F"/>
<path fill-rule="evenodd" clip-rule="evenodd" d="M19.2412 76.0945L20.7009 76.5732C20.956 75.0632 21.1624 71.6763 21.1624 69.9186L19.4452 71.2238C19.1926 73.7341 17.077 74.5797 19.2412 76.0945Z" fill="#808285"/>
<path fill-rule="evenodd" clip-rule="evenodd" d="M21.1623 69.9186L19.5471 73.7318L19.8774 73.6389L19.6977 75.3895L19.8701 76.2993L19.241 76.0945L18.3375 75.4609L18.4055 74.5201L18.5561 73.1244L18.7892 73.0482L19.4451 71.2238L21.1623 69.9186Z" fill="#808285"/>
<path fill-rule="evenodd" clip-rule="evenodd" d="M16.6932 75.9707L19.2411 76.0945L18.9642 73.7461L19.4451 71.2238L17.7643 70.052L16.7855 72.9006L16.6932 75.9707Z" fill="#A7A9AC"/>
<path fill-rule="evenodd" clip-rule="evenodd" d="M15.7509 69.6161L17.7645 70.0519L17.2471 72.3694L17.2641 73.8199L16.6933 75.9706L16.0764 75.3418L15.3064 73.3959L15.7509 69.6161Z" fill="#808285"/>
<path fill-rule="evenodd" clip-rule="evenodd" d="M13.9753 74.4844L14.9056 75.2275L16.0763 75.3418L15.797 73.1125L16.5499 71.4596L15.7508 69.6161L14.7671 72.0764L14.6214 73.3697L13.9753 74.4844Z" fill="#808285"/>
<path fill-rule="evenodd" clip-rule="evenodd" d="M17.9903 68.63L16.9556 68.842L16.5937 69.3064L15.7509 69.616L16.55 71.4595L17.3491 71.9144L19.4452 71.2237L21.1625 69.9185L22.1802 72.1288L22.8069 72.3932L23.3242 72.1764L22.921 71.1904L23.4894 71.0904L22.5737 70.1829L21.4855 69.8471L20.5212 69.0349L19.1125 68.9777L17.9903 68.63Z" fill="#D1D3D4"/>
<path fill-rule="evenodd" clip-rule="evenodd" d="M24.9637 78.3666L25.5078 79.3097L26.0543 79.4217V80.9627L27.2591 82.4775L26.1102 77.9664L24.9637 78.3666Z" fill="#A7A9AC"/>
<path fill-rule="evenodd" clip-rule="evenodd" d="M31.2765 82.0321L30.4167 84.2376L31.6433 85.7881L32.593 85.1236L31.2765 82.0321Z" fill="#916245"/>
<path d="M31.6382 85.824L31.6236 85.8049L30.3873 84.2425L30.3922 84.2282L31.2787 81.9631L32.6268 85.1309L31.6407 85.8216L31.6382 85.824ZM30.4456 84.2329L31.6504 85.7525L32.5612 85.1142L31.2812 82.1013L30.4481 84.2329H30.4456Z" fill="#6E452B"/>
<path fill-rule="evenodd" clip-rule="evenodd" d="M31.5143 87.7889L29.8117 87.8056L29.8724 86.5004L29.2725 86.124V82.8301L32.0171 82.1036L31.8058 84.976L31.5143 87.7889Z" fill="#A7A9AC"/>
<path fill-rule="evenodd" clip-rule="evenodd" d="M28.4346 82.0083L28.4759 86.8028L26.5789 87.0314L26.7514 81.701L28.4346 82.0083Z" fill="#A7A9AC"/>
<path fill-rule="evenodd" clip-rule="evenodd" d="M29.8117 87.8055L28.4758 86.8028L27.9584 84.3686L28.4345 82.0083L29.3939 83.4254L29.581 85.3261L30.3339 85.5452L29.8117 87.8055Z" fill="#808285"/>
<path fill-rule="evenodd" clip-rule="evenodd" d="M26.579 87.0314L25.1143 86.3598L25.9183 82.6799L26.6883 82.7443L26.7514 81.701L27.157 83.3897L26.579 87.0314Z" fill="#808285"/>
<path fill-rule="evenodd" clip-rule="evenodd" d="M35.0267 80.4482L35.3716 81.5915L33.8729 81.2628L35.0267 80.4482Z" fill="#A7A9AC"/>
<path fill-rule="evenodd" clip-rule="evenodd" d="M34.3465 88.0128L31.5144 87.7889L31.8059 84.976L32.0172 82.1036L33.2389 81.2891L34.3805 84.976L34.3465 88.0128Z" fill="#808285"/>
<path fill-rule="evenodd" clip-rule="evenodd" d="M35.588 81.532L33.4967 82.1203L33.2635 83.8328L33.8197 85.8715L34.3468 88.0127L35.3013 87.3673L35.5758 85.3166L35.588 81.532Z" fill="#A7A9AC"/>
<path fill-rule="evenodd" clip-rule="evenodd" d="M36.2995 87.0981L35.3036 87.3625L35.5319 85.5929L34.6551 83.3826L35.5878 81.532L35.6097 83.3897L36.6978 84.1829L36.2995 87.0981Z" fill="#A7A9AC"/>
<path fill-rule="evenodd" clip-rule="evenodd" d="M32.8746 79.1954L35.0266 80.4482L34.0089 81.2819L35.5877 81.5319L33.4114 82.749L32.0172 82.1036L31.082 82.8633L32.9839 84.3734L31.8058 84.976L29.3939 83.4254L28.4345 82.0083L26.7513 81.7011L27.2201 80.6983L26.5594 80.372L28.041 80.0029L28.3714 79.4765L30.1882 78.7524L32.8746 79.1954Z" fill="#D1D3D4"/>
<path fill-rule="evenodd" clip-rule="evenodd" d="M9.61297 86.155L10.4558 85.2499L10.4242 84.3592L10.9367 80.4197L9.21948 79.5647L9.61297 86.155Z" fill="#808285"/>
<path fill-rule="evenodd" clip-rule="evenodd" d="M11.6558 79.5385L12.0444 85.1952L13.2468 84.9284L13.0986 79.2098L11.6558 79.5385Z" fill="#A7A9AC"/>
<path fill-rule="evenodd" clip-rule="evenodd" d="M10.4557 85.25L12.0442 85.1952L12.0636 82.0704L11.6556 79.5386L9.84601 80.3531L10.5115 82.3038L10.4022 83.7614L10.4557 85.25Z" fill="#A7A9AC"/>
<path fill-rule="evenodd" clip-rule="evenodd" d="M14.546 84.876L14.189 80.0553L14.9249 79.7886L14.5728 77.4926L12.6976 78.1332L13.0984 79.2098L12.8798 80.2983L14.308 85.3523L14.546 84.876Z" fill="#808285"/>
<path fill-rule="evenodd" clip-rule="evenodd" d="M13.2466 84.9284L14.308 85.3524L14.0093 82.3728L13.1543 80.3269L13.0984 79.2098L12.7511 81.0224L13.2466 84.9284Z" fill="#A7A9AC"/>
<path fill-rule="evenodd" clip-rule="evenodd" d="M6.00348 77.864L5.73145 78.9549L7.7013 78.2784L6.00348 77.864Z" fill="#808285"/>
<path fill-rule="evenodd" clip-rule="evenodd" d="M5.52512 79.0264L7.26665 79.3098L7.51683 81.4962L7.03833 83.6827L6.46754 86.6027L5.85059 86.0621L5.08063 83.9328L5.52512 79.0264Z" fill="#808285"/>
<path fill-rule="evenodd" clip-rule="evenodd" d="M4.51453 85.6572L5.85043 86.0621L5.5711 83.3826L6.32407 81.0128L5.52496 79.0264L4.54124 82.4966L4.78899 83.7327L4.51453 85.6572Z" fill="#808285"/>
<path fill-rule="evenodd" clip-rule="evenodd" d="M7.94908 76.8685L6.00352 77.8641L6.71762 78.6168L5.52502 79.0264L7.26656 79.3098L9.94565 79.4313L10.0404 80.465L11.522 80.696L11.7528 80.1363L12.9624 79.8862L13.0984 79.2098L12.6976 78.1333L14.5727 77.4926L12.6393 76.0992L10.3464 77.7665L9.32628 77.2782L7.94908 76.8685Z" fill="#D1D3D4"/>
<path fill-rule="evenodd" clip-rule="evenodd" d="M25.1143 86.3598L25.9183 82.68L25.945 80.7984L26.5595 80.3721L27.2202 80.6984L26.7514 81.7011L27.0089 82.7157L26.5134 84.7997L25.1143 86.3598Z" fill="#808285"/>
<path fill-rule="evenodd" clip-rule="evenodd" d="M18.3182 82.1775L19.1537 83.8328L17.9611 84.9975L17.0406 84.4997L18.3182 82.1775Z" fill="#916245"/>
<path d="M17.9661 85.0309L17.0042 84.5093L18.3158 82.1204L19.1829 83.8376L17.9636 85.0285L17.9661 85.0309ZM17.0771 84.4902L17.9588 84.9666L19.1247 83.8281L18.3183 82.2323L17.0771 84.4878V84.4902Z" fill="#6E452B"/>
<path fill-rule="evenodd" clip-rule="evenodd" d="M18.7991 86.5075L19.9941 87.0386L19.6832 85.5358L20.2662 82.7777L18.3206 82.1775C18 84.7188 15.8431 85.9121 18.8015 86.5075H18.7991Z" fill="#808285"/>
<path fill-rule="evenodd" clip-rule="evenodd" d="M21.415 82.2061L21.0385 85.762L22.8796 85.9335L22.1267 82.2632L21.415 82.2061Z" fill="#808285"/>
<path fill-rule="evenodd" clip-rule="evenodd" d="M19.9917 87.0386L21.0386 85.762L21.5414 83.9328L21.4151 82.2061L20.2638 82.7777L19.7829 84.0948L19.6566 85.1166L19.9917 87.0386Z" fill="#A7A9AC"/>
<path fill-rule="evenodd" clip-rule="evenodd" d="M24.3031 85.4286L25.2066 85.1023L23.4942 81.2486L22.8992 80.9294L22.2555 81.1748L22.7121 81.9274L22.462 82.6896L23.2198 85.1594L24.3031 85.4286Z" fill="#A7A9AC"/>
<path fill-rule="evenodd" clip-rule="evenodd" d="M22.8796 85.9335L24.3029 85.4285L23.6155 83.173L22.7751 82.711L22.712 81.9274L22.1266 82.2632L22.8796 85.9335Z" fill="#A7A9AC"/>
<path fill-rule="evenodd" clip-rule="evenodd" d="M14.6771 80.9866L14.4026 81.6558L15.0876 81.2914L14.6771 80.9866Z" fill="#808285"/>
<path fill-rule="evenodd" clip-rule="evenodd" d="M18.9182 82.3633L18.4324 84.3473L18.8064 84.1734L18.6024 85.7573L18.7967 86.5075L18.0851 87.4197C16.3581 85.3643 17.4414 84.2758 18.3158 82.1775L18.9157 82.3633H18.9182Z" fill="#A7A9AC"/>
<path fill-rule="evenodd" clip-rule="evenodd" d="M15.1995 87.1052L18.0874 87.4196L17.7741 84.521L18.3182 82.1774L16.4139 81.6177L15.3039 84.39L15.1995 87.1052Z" fill="#A7A9AC"/>
<path fill-rule="evenodd" clip-rule="evenodd" d="M14.1332 81.8011L16.4139 81.6177L15.8285 83.7946L15.848 85.0617L15.1995 87.1052L14.4999 86.7265L13.6304 85.2379L14.1332 81.8011Z" fill="#808285"/>
<path fill-rule="evenodd" clip-rule="evenodd" d="M14.4998 86.7266L14.1865 84.8522L15.0391 83.1921L14.1331 81.8011L13.0182 84.2305L12.853 85.4047L14.4998 86.7266Z" fill="#808285"/>
<path fill-rule="evenodd" clip-rule="evenodd" d="M14.6771 80.9865L15.0876 81.2914L14.1331 81.8011L16.1636 82.2441L18.3181 82.1774L20.2636 82.7776L21.4149 82.206L22.1266 82.2631L22.712 81.9273L22.2553 81.1747L22.899 80.9293L21.8619 80.3887L20.968 80.3982L17.689 78.8929L14.6771 80.9865Z" fill="#D1D3D4"/>
<path fill-rule="evenodd" clip-rule="evenodd" d="M22.1801 69.3993L21.9202 76.0992L23.4722 76.7923L23.4771 73.4173L22.8067 69.8209L22.1801 69.3993Z" fill="#808285"/>
<path fill-rule="evenodd" clip-rule="evenodd" d="M20.7009 76.5731L21.9202 76.0992L22.2894 72.5766L22.1801 69.3993L21.1624 69.9185L20.7374 72.0883L20.6281 73.877L20.7009 76.5731Z" fill="#A7A9AC"/>
<path fill-rule="evenodd" clip-rule="evenodd" d="M24.7282 76.516L25.2091 75.499L24.0165 68.5967L23.4894 67.7535L22.9211 67.9107L23.3243 69.4755L23.1057 70.7426L23.7736 75.5466L24.7282 76.516Z" fill="#A7A9AC"/>
<path fill-rule="evenodd" clip-rule="evenodd" d="M23.4724 76.7923L24.7282 76.516L24.1234 72.1312L23.3801 70.9213L23.3242 69.4756L22.8069 69.8209L23.4651 73.5079L23.4724 76.7923Z" fill="#A7A9AC"/>
<path fill-rule="evenodd" clip-rule="evenodd" d="M21.415 69.7899L22.1801 69.3993L22.8067 69.8209L23.3241 69.4755L22.9549 67.9012L23.5136 67.7702L22.3015 67.4987L19.8459 67.9036L20.5211 69.0349L21.415 69.7899Z" fill="#D1D3D4"/>
<path fill-rule="evenodd" clip-rule="evenodd" d="M19.8461 67.9036L19.5911 68.9968L20.5213 69.0349L19.8461 67.9036Z" fill="#808285"/>
<path fill-rule="evenodd" clip-rule="evenodd" d="M28.2015 76.2422L27.5408 78.1357L27.2712 80.284L30.7494 81.4153L30.2636 78.855L29.5641 79.1479L29.8434 76.6233L28.2015 76.2422Z" fill="#808285"/>
<path fill-rule="evenodd" clip-rule="evenodd" d="M32.4593 81.2248L33.1127 80.527L32.1654 75.7849L31.5509 76.5995L30.5478 76.3875L30.249 77.2592L31.1574 80.5579L32.4593 81.2248Z" fill="#A7A9AC"/>
<path fill-rule="evenodd" clip-rule="evenodd" d="M30.7493 81.4153L32.4592 81.2248L31.6334 78.2119L30.623 77.3806L30.5477 76.3875L29.8433 76.6232L29.564 79.1479L30.2635 78.8549L30.7493 81.4153Z" fill="#A7A9AC"/>
<path fill-rule="evenodd" clip-rule="evenodd" d="M31.8059 84.976L31.5144 87.7888L32.3329 88.389L33.4211 88.3462L32.9839 84.3734L31.8059 84.976Z" fill="#A7A9AC"/>
<path fill-rule="evenodd" clip-rule="evenodd" d="M31.8059 84.976L32.3329 88.389L31.5144 87.7888L31.8059 84.976Z" fill="#808285"/>
<path fill-rule="evenodd" clip-rule="evenodd" d="M6.46741 86.6027L9.01534 85.7405L9.35782 80.615L9.2558 78.993L7.26652 79.3098L7.49484 81.2867L6.46741 86.6027Z" fill="#A7A9AC"/>
<path fill-rule="evenodd" clip-rule="evenodd" d="M9.94572 79.4313L10.0939 81.0652L9.65182 82.4156L9.61295 86.155L9.01544 85.7405L9.2559 78.993L9.94572 79.4313Z" fill="#808285"/>
<path fill-rule="evenodd" clip-rule="evenodd" d="M14.5412 72.4218L13.4846 71.8573L11.7479 71.6049L10.2177 71.9216L10.6039 73.5079L14.223 73.3793L14.5412 72.4218Z" fill="#D1D3D4"/>
<path fill-rule="evenodd" clip-rule="evenodd" d="M14.5412 72.4218L15.2602 74.4844L15.5565 76.8304L11.765 78.0617L12.292 75.2703L13.0547 75.5895L12.7511 72.8386L14.5412 72.4218Z" fill="#A7A9AC"/>
<path fill-rule="evenodd" clip-rule="evenodd" d="M9.89965 77.8546L9.18555 77.0924L10.2178 71.9216L10.8882 72.8124L11.9837 72.579L12.3091 73.5293L11.3181 77.1281L9.89965 77.8546Z" fill="#808285"/>
<path fill-rule="evenodd" clip-rule="evenodd" d="M11.7649 78.0618L9.89954 77.8546L10.7982 74.5701L11.901 73.6627L11.9835 72.579L12.7511 72.8386L13.0547 75.5895L12.292 75.2704L11.7649 78.0618Z" fill="#808285"/>
<path fill-rule="evenodd" clip-rule="evenodd" d="M50.0788 61.7777L48.7696 62.2469L47.0305 62.3565L47.1033 62.0969L45.5513 62.266L44.0211 61.9873V61.9849L42.4253 61.9468L41.7889 60.2105L43.5304 59.5889L43.5668 58.448L43.9555 58.3932L44.4607 57.7168L47.9049 56.6808L52.1992 56.0758L55.1042 56.2949L55.6337 56.576L58.0019 56.6188L58.9832 56.8046L59.0293 57.955L60.3118 60.1081L57.9703 60.7012L54.9366 60.7964L52.8016 61.5777L50.0788 61.7777Z" fill="#689F1B"/>
<path fill-rule="evenodd" clip-rule="evenodd" d="M51.2713 53.325L52.3181 55.9973L50.8268 57.8812L49.6755 57.0738L51.2713 53.325Z" fill="#916245"/>
<path d="M50.8317 57.9145L49.6439 57.0833L51.2737 53.2534L52.3473 56.002L52.3376 56.0139L50.8317 57.9145ZM49.7071 57.0642L50.8195 57.8431L52.2866 55.9924L51.2689 53.3916L49.7071 57.0642Z" fill="#6E452B"/>
<path fill-rule="evenodd" clip-rule="evenodd" d="M50.9847 60.3082L53.0492 60.3296L52.9764 58.7458L53.7026 58.2885V54.2919L50.375 53.4106L50.63 56.8951L50.9847 60.3082Z" fill="#808285"/>
<path fill-rule="evenodd" clip-rule="evenodd" d="M54.7203 53.2939L54.6717 59.1125L56.9719 59.3912L56.763 52.9224L54.7203 53.2939Z" fill="#808285"/>
<path fill-rule="evenodd" clip-rule="evenodd" d="M53.0492 60.3296L54.6718 59.1126L55.2984 56.1568L54.7203 53.2939L53.5569 55.0136L53.331 57.3191L52.4177 57.5859L53.0492 60.3296Z" fill="#A7A9AC"/>
<path fill-rule="evenodd" clip-rule="evenodd" d="M56.9719 59.3912L58.7499 58.5743L57.7759 54.1109L56.8408 54.1871L56.763 52.9224L56.27 54.9731L56.9719 59.3912Z" fill="#808285"/>
<path fill-rule="evenodd" clip-rule="evenodd" d="M46.7194 51.4028L46.3016 52.789L48.1209 52.3889L46.7194 51.4028Z" fill="#808285"/>
<path fill-rule="evenodd" clip-rule="evenodd" d="M47.5478 60.5822L50.9847 60.3083L50.6301 56.8952L50.3751 53.4107L48.891 52.4199L47.5065 56.8952L47.5478 60.5822Z" fill="#A7A9AC"/>
<path fill-rule="evenodd" clip-rule="evenodd" d="M46.0417 52.7152L48.58 53.4297L48.8617 55.509L48.1865 57.9813L47.5477 60.5821L46.3867 59.7985L46.0539 57.3072L46.0417 52.7152Z" fill="#808285"/>
<path fill-rule="evenodd" clip-rule="evenodd" d="M45.1771 59.4722L46.3867 59.7914L46.1073 57.6431L47.1736 54.9612L46.0418 52.7152L46.015 54.9707L44.6913 55.933L45.1771 59.4722Z" fill="#808285"/>
<path fill-rule="evenodd" clip-rule="evenodd" d="M49.3329 49.8809L46.7194 51.4029L47.9557 52.4127L46.0417 52.7152L48.682 54.1943L50.3749 53.4107L51.5092 54.33L49.2018 56.164L50.63 56.8952L53.5568 55.0136L54.7203 53.294L56.763 52.9224L56.1922 51.7053L56.9962 51.31L55.1988 50.8598L54.798 50.2215L52.5925 49.3427L49.3329 49.8809Z" fill="#D1D3D4"/>
<path fill-rule="evenodd" clip-rule="evenodd" d="M58.75 58.5743L57.776 54.1109L57.742 51.8244L56.9964 51.3099L56.1924 51.7053L56.7632 52.9224L56.4523 54.1537L57.0522 56.6808L58.75 58.5743Z" fill="#A7A9AC"/>
<path fill-rule="evenodd" clip-rule="evenodd" d="M50.6299 56.8951L50.9846 60.3082L49.9911 61.0394L48.6698 60.987L49.2017 56.1639L50.6299 56.8951Z" fill="#808285"/>
<path fill-rule="evenodd" clip-rule="evenodd" d="M50.6301 56.8951L49.9913 61.0394L50.9847 60.3082L50.6301 56.8951Z" fill="#A7A9AC"/>
<path fill-rule="evenodd" clip-rule="evenodd" d="M136.128 92.6834C128.941 86.3336 117.52 81.6106 107.654 84.0972C97.8116 86.5766 99.1403 91.3996 85.4096 91.3996C52.4176 91.3996 71.385 111.93 82.9515 122.87L136.13 92.6834H136.128Z" fill="url(#paint0_linear_974_11985)"/>
<path fill-rule="evenodd" clip-rule="evenodd" d="M131.931 84.8474L130.962 86.9457L132.341 88.2533L133.405 87.5602L131.931 84.8474Z" fill="#916245"/>
<path d="M132.339 88.2866L130.932 86.9505L131.931 84.7878L133.441 87.5673L133.422 87.5793L132.341 88.2866H132.339ZM130.993 86.9386L132.344 88.2223L133.371 87.5531L131.933 84.9069L130.996 86.9409L130.993 86.9386Z" fill="#6E452B"/>
<path fill-rule="evenodd" clip-rule="evenodd" d="M132.195 90.0991L130.284 90.2706L130.352 89.0702L129.679 88.7796V85.7596L132.759 84.845L132.523 87.4959L132.195 90.0991Z" fill="#808285"/>
<path fill-rule="evenodd" clip-rule="evenodd" d="M128.739 85.0832L128.785 89.4728L126.658 89.8539L126.85 84.9546L128.739 85.0832Z" fill="#A7A9AC"/>
<path fill-rule="evenodd" clip-rule="evenodd" d="M130.284 90.2706L128.785 89.4727L128.205 87.2886L128.739 85.0831L129.815 86.2931L130.024 88.0174L130.869 88.1508L130.284 90.2706Z" fill="#808285"/>
<path fill-rule="evenodd" clip-rule="evenodd" d="M126.658 89.8539L125.013 89.3727L125.914 85.9263L126.779 85.9168L126.849 84.9546L127.306 86.4646L126.658 89.8539Z" fill="#808285"/>
<path fill-rule="evenodd" clip-rule="evenodd" d="M136.14 83.054L136.526 84.071L134.843 83.9042L136.14 83.054Z" fill="#808285"/>
<path fill-rule="evenodd" clip-rule="evenodd" d="M135.375 90.0491L132.195 90.0991L132.523 87.4959L132.759 84.845L134.131 83.9875L135.414 87.2625L135.375 90.0491Z" fill="#808285"/>
<path fill-rule="evenodd" clip-rule="evenodd" d="M136.767 83.9948L134.42 84.726L134.158 86.317L134.785 88.1342L135.375 90.0492L136.446 89.3704L136.755 87.465L136.767 83.9948Z" fill="#A7A9AC"/>
<path fill-rule="evenodd" clip-rule="evenodd" d="M137.568 89.0322L136.448 89.3632L136.706 87.7222L135.72 85.7763L136.767 83.9948L136.791 85.6953L138.015 86.3241L137.568 89.0322Z" fill="#A7A9AC"/>
<path fill-rule="evenodd" clip-rule="evenodd" d="M133.721 82.1012L136.14 83.0539L134.996 83.9089L136.767 83.9947L134.323 85.3094L132.759 84.8449L131.71 85.6238L133.845 86.8361L132.523 87.4958L129.815 86.2931L128.739 85.0831L126.849 84.9545L127.377 83.9923L126.633 83.7541L128.297 83.2801L128.669 82.7681L130.707 81.9392L133.721 82.1012Z" fill="#D1D3D4"/>
<path fill-rule="evenodd" clip-rule="evenodd" d="M125.013 89.3727L125.914 85.9263L125.946 84.1995L126.633 83.7542L127.376 83.9923L126.849 84.9546L127.138 85.8596L126.585 87.815L125.013 89.3727Z" fill="#808285"/>
<path fill-rule="evenodd" clip-rule="evenodd" d="M132.523 87.4959L132.195 90.0992L133.116 90.5755L134.335 90.4374L133.845 86.8362L132.523 87.4959Z" fill="#A7A9AC"/>
<path fill-rule="evenodd" clip-rule="evenodd" d="M132.523 87.4958L133.116 90.5755L132.195 90.0991L132.523 87.4958Z" fill="#808285"/>
</g>
<defs>
<linearGradient id="paint0_linear_974_11985" x1="68.2469" y1="61.6086" x2="143.379" y2="149.749" gradientUnits="userSpaceOnUse">
<stop stop-color="#0076BC"/>
<stop offset="1" stop-color="white"/>
</linearGradient>
<clipPath id="clip0_974_11985">
<rect width="148" height="99.6533" fill="white" transform="translate(1 43)"/>
</clipPath>
</defs>
</svg>
