<svg width="150" height="150" viewBox="0 0 150 150" fill="none" xmlns="http://www.w3.org/2000/svg">
<g clip-path="url(#clip0_974_11986)">
<path d="M23.5136 129.527C52.3197 146.232 99.1749 146.146 128.168 129.339C157.156 112.532 157.304 85.3688 128.498 68.6645C99.6917 51.9603 52.8365 52.0459 23.843 68.8527C-5.14471 85.6596 -5.29237 112.823 23.5136 129.527Z" fill="#0A77A2"/>
<path d="M20.123 67.0677C19.8902 68.6189 18.7032 70.0618 19.8902 70.615C21.0488 71.1568 22.5368 71.8525 26.8588 74.9094C26.9497 74.9721 27.0406 75.0405 27.1314 75.1033C31.6636 78.3369 38.5471 88.494 51.269 98.2862C63.8035 107.941 73.3278 112.11 83.8007 115.384C83.954 115.435 84.1131 115.481 84.2721 115.532C94.1202 118.583 96.5794 118.196 96.3068 118.002C96.0342 117.808 93.0127 115.458 93.6715 115.327C94.336 115.196 97.17 115.897 96.8974 115.099C96.6191 114.295 92.6151 107.206 88.7134 103.139C86.152 100.47 86.3337 98.1778 83.6814 95.9764C72.5895 86.7603 61.3386 81.4394 54.9663 78.143C48.9972 75.0576 32.8165 70.3983 26.8986 67.5182C26.6884 67.4156 26.4953 67.3129 26.3306 67.2274C22.7128 65.2541 22.2415 64.604 21.5486 64.0622C18.493 61.6726 20.2821 65.3282 20.123 67.062V67.0677Z" fill="url(#paint0_linear_974_11986)"/>
<path d="M22.9684 66.6228C22.0541 64.4671 23.2013 65.6419 23.7522 65.7218C24.3713 66.121 25.2005 66.6057 26.3363 67.2274C26.501 67.3186 26.6941 67.4156 26.9043 67.5182C29.7894 68.9212 35.1167 70.7462 40.5122 72.611C40.8813 72.8392 41.2505 73.0673 41.6197 73.2954C45.3283 75.6166 48.9348 78.0974 52.5355 80.5839C62.2757 87.3021 72.2261 94.2883 78.8312 104.126C66.8079 99.8317 51.712 89.6461 38.7686 80.9717C37.4055 80.0592 36.0482 79.1353 34.7078 78.1829C32.277 76.4549 29.8973 74.647 27.654 72.6795C25.581 70.8602 24.3656 69.0352 22.9684 66.6228Z" fill="url(#paint1_linear_974_11986)"/>
<path d="M77.9282 100.14C76.6219 101.822 76.5595 106.744 79.8535 111.7C82.8693 116.245 85.851 115.384 85.851 115.384L77.9282 100.14Z" fill="#707C8A"/>
<path d="M77.8486 106.048C79.3821 111.711 81.8015 114.146 83.8063 115.39C83.9597 115.441 84.1187 115.487 84.2777 115.538C94.1259 118.589 96.585 118.201 96.3124 118.007C96.0398 117.813 92.6151 116.017 93.2739 115.88C93.9384 115.749 97.1814 115.903 96.9031 115.099C96.6248 114.295 94.2338 106.864 90.5421 102.603C88.117 99.8032 86.3394 98.1778 83.6928 95.9764C86.0327 100.488 74.7988 94.7902 77.8486 106.042V106.048Z" fill="url(#paint2_linear_974_11986)"/>
<path d="M77.3602 103.527C78.1213 103.584 79.0357 103.989 79.5809 104.223C80.5691 104.656 81.4778 105.267 82.2389 106.037C82.6307 106.436 82.9885 106.875 83.2441 107.371C84.0563 108.934 83.8007 110.816 84.1187 112.549C84.3402 113.747 84.84 114.865 85.4761 115.909C85.0842 115.789 84.6867 115.669 84.2664 115.544C84.1074 115.492 83.9484 115.447 83.795 115.395C81.7902 114.152 79.3708 111.717 77.8373 106.054C77.5761 105.096 77.4227 104.263 77.3546 103.533L77.3602 103.527Z" fill="#EEF2F4"/>
<path d="M20.123 67.0676C20.265 65.5506 18.919 62.5679 20.6171 63.4405C20.7364 64.2503 21.0033 65.2997 20.9352 66.0183C20.7023 67.5695 19.5153 69.0124 20.7023 69.5655C21.8609 70.1073 23.5193 71.881 27.8357 74.9435C27.9265 75.0063 28.0174 75.0747 28.1083 75.1374C32.6405 78.3711 37.5361 87.3876 50.258 97.1854C62.7925 106.841 74.5319 112.184 85.0104 115.458C85.1637 115.509 85.3228 115.555 85.4818 115.606C90.4967 117.157 93.1944 116.707 94.9891 116.952C95.5968 117.465 96.1932 117.927 96.3067 118.013C96.5794 118.207 94.1202 118.595 84.2721 115.544C84.113 115.492 83.954 115.447 83.8007 115.395C73.3221 112.122 63.8034 107.953 51.2689 98.2975C38.547 88.4997 31.6636 78.3425 27.1314 75.1146C27.0405 75.0519 26.9497 74.9834 26.8588 74.9207C22.5424 71.8582 21.0544 71.1681 19.8902 70.6263C18.7088 70.0731 19.8902 68.6245 20.123 67.079V67.0676Z" fill="#858E98"/>
<path d="M12.2968 62.8816C12.6773 61.8322 12.0355 59.5282 10.15 56.2603C8.26441 52.9925 9.22991 50.0953 9.22991 50.0953C9.22991 50.0953 15.1535 53.3347 18.6975 58.6214C20.5547 61.3874 21.5883 63.834 24.1611 65.9897C25.1209 67.5524 25.9728 72.5026 24.3428 73.1071C20.1628 72.1547 12.3252 73.5748 6.82184 69.7252C7.25915 65.8186 11.5812 65.1685 12.3025 62.8873L12.2968 62.8816Z" fill="url(#paint3_linear_974_11986)"/>
<path d="M78.5927 99.7576C78.5188 99.7063 78.4393 99.6492 78.3655 99.5922C80.2226 97.7159 83.9143 98.6398 84.0108 97.0771C84.3345 97.1456 84.6412 97.2425 84.8968 97.3908C85.868 97.944 86.6631 98.7595 87.498 99.4895C87.6684 99.6378 87.8671 99.7804 88.0659 99.9173C88.5316 100.385 89.003 100.881 89.4915 101.417C89.7073 101.805 89.889 102.221 90.0083 102.598C90.1048 102.894 90.1559 103.248 89.9572 103.487C89.7527 103.733 89.3892 103.738 89.0712 103.71C88.242 103.636 87.4185 103.459 86.6177 103.225C85.2887 102.843 83.9654 102.438 82.6932 101.891C81.2733 101.28 79.8762 100.619 78.5927 99.7519V99.7576Z" fill="url(#paint4_linear_974_11986)"/>
<path d="M23.3433 66.0297C24.6723 68.0086 27.0519 68.9839 29.1363 69.8849C31.4989 70.9001 33.9581 71.8525 36.3094 72.7935C38.2688 73.5805 40.1714 74.4017 42.0683 75.3142C46.7255 77.5498 51.3655 79.8082 55.9432 82.232C60.9467 84.884 65.6947 87.9978 70.6756 90.6668C74.1968 92.5546 77.0479 95.3547 80.5634 97.2425C81.9435 97.9839 83.352 98.6682 84.8116 99.2385C85.0502 99.3298 86.3337 99.5693 86.4246 99.7461C85.7487 98.4344 85.1467 97.1911 83.6871 95.9707C72.5952 86.7546 61.3443 81.4393 54.972 78.1429C49.0029 75.0576 32.8222 70.3982 26.9043 67.5182C26.6941 67.4155 26.501 67.3186 26.3363 67.2273C24.2747 66.1038 23.0934 65.659 23.3433 66.024V66.0297Z" fill="#666E7D"/>
<path d="M74.5035 104.668C75.0487 105.843 70.704 106.875 69.3807 106.732C66.9101 105.461 66.6659 105.09 66.0923 104.195C65.513 103.299 66.6148 102.221 66.8533 101.868C67.0975 101.514 72.652 102.506 74.5035 104.668Z" fill="url(#paint5_linear_974_11986)"/>
<path d="M49.656 97.0258C43.3234 94.9442 39.1264 90.4958 37.4566 88.226C37.9337 87.8154 32.6177 80.4299 32.6177 80.4299C32.6177 80.4299 43.738 91.5908 49.6503 97.0258H49.656Z" fill="url(#paint6_linear_974_11986)"/>
<path d="M71.8739 88.3514C71.8739 88.3514 64.4169 84.4391 63.6899 84.0399C62.9629 83.635 56.8007 80.4014 52.4276 78.4566C48.0544 76.5119 38.2631 72.2802 38.2631 72.2802C38.2631 72.2802 40.5917 71.7841 43.704 72.0464C46.8163 72.3144 58.0559 75.6051 65.3256 79.6543C67.0975 80.6409 69.375 85.3231 71.8739 88.3514Z" fill="url(#paint7_linear_974_11986)"/>
<path d="M93.3705 115.886C93.4898 116.547 93.9895 117.614 94.7903 118.093C95.5911 118.572 96.3295 118.777 97.153 118.714C98.3513 118.618 98.6978 117.483 97.9027 116.633C97.1132 115.783 96.1875 115.441 96.1875 115.441L93.3705 115.886Z" fill="#99A4AE"/>
<path d="M96.2386 115.526C97.3518 116.308 98.1469 117.426 97.4995 117.768C96.5169 118.292 95.2504 117.505 94.8585 117.255C94.1032 116.77 93.4046 115.926 93.4046 115.926L96.2443 115.526H96.2386Z" fill="#707C8A"/>
<path d="M96.568 114.061C97.2041 114.317 97.738 114.808 97.4653 115.241C96.8179 116.262 94.6824 115.669 93.1376 115.966C93.7056 115.407 95.4264 114.962 95.8751 114.808C96.5737 114.574 96.6418 114.352 96.6418 114.352L96.568 114.066V114.061Z" fill="#C0C7CD"/>
<path d="M93.5693 115.777C93.6261 115.903 93.6715 116.028 93.7113 116.159C93.734 116.228 93.7567 116.296 93.7794 116.365C93.7851 116.382 93.7908 116.399 93.7851 116.416C93.7737 116.456 93.7226 116.467 93.6829 116.467C93.2455 116.467 92.8026 116.331 92.4504 116.068C92.3993 116.034 92.3482 115.983 92.3482 115.92C92.3482 115.857 92.4107 115.812 92.4732 115.794C92.5527 115.772 92.6492 115.777 92.7117 115.72C92.7855 115.652 92.7401 115.618 92.7344 115.538C92.7287 115.429 92.8196 115.321 92.9275 115.298C93.2228 115.241 93.4614 115.544 93.5636 115.777H93.5693Z" fill="#C0C7CD"/>
<path d="M85.3398 105.997C85.1354 106.846 85.5897 107.867 86.3621 108.278C87.1289 108.694 87.9183 108.341 88.1228 107.491C88.3272 106.641 87.8729 105.62 87.1005 105.21C86.3337 104.799 85.5443 105.147 85.3398 105.997Z" fill="#707C8A"/>
<path d="M85.7317 106.054C85.5613 106.75 85.9418 107.594 86.5723 107.936C87.2083 108.278 87.8558 107.987 88.0262 107.286C88.1966 106.59 87.8217 105.746 87.1856 105.404C86.5495 105.061 85.9021 105.352 85.7317 106.054Z" fill="#DFE7EB"/>
<path d="M86.3167 106.367C86.2315 106.71 86.4189 107.126 86.7312 107.291C87.0436 107.457 87.3617 107.314 87.4468 106.972C87.532 106.63 87.3446 106.213 87.0323 106.048C86.7199 105.883 86.4018 106.025 86.3167 106.367Z" fill="#707C8A"/>
<path d="M81.3131 77.6354C80.1659 76.6602 79.8137 77.0195 78.2122 76.5804C73.7481 77.0594 68.8809 75.2687 67.5519 73.8372C72.9871 74.0767 74.8727 72.3715 74.8727 72.3715C74.8727 72.3715 73.4869 70.1245 73.2767 69.8451C73.0666 69.5656 72.2999 67.8091 72.2999 67.8091C72.2999 67.8091 79.8421 75.4112 81.3074 77.6411L81.3131 77.6354Z" fill="url(#paint8_linear_974_11986)"/>
<path d="M45.9928 26C54.3756 29.7868 57.0449 42.6016 60.4072 45.5443C62.8777 47.7058 62.128 49.4395 58.4989 48.1677C58.4989 48.1677 59.5893 52.388 46.7822 57.0588C46.9583 54.1788 53.5237 45.7839 52.0811 42.151C51.9164 39.1455 49.3209 32.1707 45.9928 26.0057V26Z" fill="url(#paint9_linear_974_11986)"/>
<path d="M52.5355 43.0008C53.1204 43.5483 54.0973 44.3068 55.75 45.3162C56.0283 45.4873 58.868 48.3217 59.1179 48.5841C67.5348 57.5207 66.9839 63.201 77.133 73.1471C78.0076 74.0082 80.6088 76.3123 86.0952 80.7264C90.0594 83.9144 93.1887 87.5701 100.464 92.1439C105.763 95.4745 110.971 97.7672 115.713 99.3412C126.97 103.071 135.614 102.757 136.597 102.695C136.307 101.389 133.865 102.312 131.712 98.8621C132.223 98.731 134.268 98.3375 135.461 97.5846C135.637 97.4763 135.796 97.3565 135.926 97.2254C135.972 97.1797 136.046 97.1911 136.091 97.1797C136.216 97.1455 136.29 97.1284 136.29 97.1284C136.29 97.1284 131.763 86.6861 122.909 77.413C121.739 76.1868 120.495 74.9892 119.178 73.8315C108.654 64.5982 99.9984 58.8381 91.377 55.308C90.7352 55.0456 90.0878 54.7947 89.446 54.5552C73.0211 48.4586 61.9292 45.6983 61.3556 45.8352C60.7479 45.9778 59.3905 44.917 58.0842 44.5007C55.4831 43.6737 53.501 42.6757 52.4559 42.1966C52.2628 42.1054 52.0925 42.0826 52.0186 42.1396C51.8937 42.2252 51.9902 42.4989 52.5298 43.0065L52.5355 43.0008Z" fill="url(#paint10_linear_974_11986)"/>
<path d="M112.306 91.6648C112.442 92.7883 112.646 93.9119 113.089 94.9555C113.43 95.7596 113.896 96.4953 114.362 97.231C114.81 97.9325 115.259 98.6397 115.713 99.3354C118.968 100.413 122.006 101.155 124.698 101.662C131.326 102.906 135.898 102.734 136.597 102.689C136.307 101.383 133.865 102.307 131.712 98.8564C132.223 98.7252 134.268 98.3317 135.461 97.5789C135.637 97.4706 135.796 97.3508 135.926 97.2196C135.972 97.174 136.046 97.1854 136.091 97.174C136.216 97.1398 136.29 97.1227 136.29 97.1227C136.29 97.1227 131.763 86.6804 122.909 77.4072C122.943 77.527 122.983 77.6411 123.028 77.7551C123.256 78.3482 123.602 78.8957 123.966 79.409C124.136 79.6485 124.318 79.9622 124.159 80.2074C124.034 80.4013 123.767 80.4298 123.54 80.4412C122.779 80.4698 122.233 80.2645 121.523 80.139C120.586 79.9736 119.655 79.8082 118.718 79.6428C118.121 79.5402 117.514 79.4318 116.917 79.5345C116.378 79.6314 115.918 79.8253 115.52 80.0877C114.237 80.9431 113.623 82.54 113.044 83.9828C112.067 86.4009 111.993 89.1099 112.306 91.6648Z" fill="url(#paint11_linear_974_11986)"/>
<path d="M125.999 91.8531C125.789 92.7998 126.368 93.9119 127.299 94.3453C128.231 94.7787 129.162 94.3624 129.372 93.4157C129.583 92.469 129.003 91.3569 128.072 90.9235C127.14 90.4901 126.209 90.9064 125.999 91.8531Z" fill="#707C8A"/>
<path d="M112.306 91.6648C112.442 92.7883 112.646 93.9118 113.089 94.9555C113.43 95.7596 113.896 96.4953 114.362 97.231C114.81 97.9325 115.259 98.6397 115.713 99.3354C118.968 100.413 122.006 101.155 124.698 101.662C123.886 100.442 123.114 99.2043 122.818 97.7785C122.654 96.9972 122.642 96.1931 122.54 95.4003C122.29 93.5297 121.506 91.7333 120.308 90.2847C118.672 88.3114 116.224 86.8515 115.486 84.3934C115.077 83.0418 115.458 81.9354 115.583 80.6066C115.605 80.3842 115.583 80.2131 115.526 80.0876C114.242 80.9431 113.629 82.54 113.05 83.9828C112.073 86.4009 111.999 89.1099 112.311 91.6648H112.306Z" fill="url(#paint12_linear_974_11986)"/>
<path d="M77.7919 57.2984C87.1743 63.1041 96.091 69.6683 104.428 76.9054C108.614 80.544 106.49 83.9886 110.528 87.7926C110.96 88.1975 111.391 88.6024 111.783 89.0472C104.968 88.4256 104.582 86.3497 98.5331 83.1275C92.4845 79.9052 86.896 75.9017 81.3245 71.9096C79.8251 70.8317 78.3144 69.7481 77.0024 68.4478C75.2816 66.7369 73.9412 64.6781 72.2488 62.9444C70.4029 61.051 68.1652 59.5682 66.3308 57.6634C63.7523 54.9886 62.0655 51.5953 60.4185 48.259C66.5977 50.4262 72.4702 53.483 77.7975 57.3041L77.7919 57.2984Z" fill="url(#paint13_linear_974_11986)"/>
<path d="M75.2021 67.735C76.9002 71.6472 79.6945 75.1888 82.5001 78.354C81.404 77.1222 80.3022 76.4036 79.0584 75.4055C77.4852 74.1452 76.0654 72.6111 74.708 71.1283C71.9705 68.1399 69.5227 64.8834 67.3588 61.4445C63.6956 55.6103 60.4924 50.1125 59.4474 48.932C59.4133 48.8978 59.3792 48.8636 59.3508 48.8236C58.408 47.8598 55.7557 45.3106 55.7557 45.3106C54.3302 44.4437 53.4045 43.7593 52.8024 43.2347C52.6832 43.1377 52.5923 43.0579 52.5412 42.9951C52.0016 42.4876 51.9051 42.2138 52.03 42.1283C52.1096 42.0712 52.2743 42.094 52.4674 42.1853C53.5124 42.6643 55.4945 43.6624 58.0957 44.4893C59.4019 44.9056 60.7593 45.9664 61.367 45.8238C61.9406 45.687 73.0325 48.4529 89.4574 54.5438C90.1049 54.7833 90.7466 55.0343 91.3884 55.2966C91.3657 57.8573 90.883 59.3287 92.9162 61.2335C94.8074 63.1098 96.8577 64.8549 98.8625 66.6114C99.6009 67.2559 100.481 67.7521 101.14 68.4592C102.066 69.4516 102.793 70.7519 103.588 71.8583C103.883 72.2632 104.19 72.7365 104.099 73.2327C104.008 73.7289 103.514 74.0767 103.014 74.1566C102.514 74.2364 102.009 74.0996 101.526 73.957C97.1814 72.6852 93.1093 70.6207 89.1167 68.4763C86.1066 66.8624 83.1249 65.1914 80.2852 63.2923C78.2917 61.9578 76.2584 60.6746 74.2707 59.3515C72.3283 58.0569 70.5847 56.4942 68.7559 55.0514C66.1036 52.8101 63.2696 50.9338 60.8218 48.3845C62.7358 50.3749 64.1045 52.7987 65.6493 55.0742C67.2282 57.4067 69.0569 59.6309 71.0334 61.6498C74.14 64.8264 77.4795 67.792 81.3018 70.096C80.1773 69.8736 79.0925 69.4972 78.0361 69.0581C77.4909 68.8299 76.9627 68.5676 76.4175 68.3395C76.1335 68.2197 75.3497 68.0315 75.2134 67.7292L75.2021 67.735Z" fill="url(#paint14_linear_974_11986)"/>
<path d="M94.4383 71.3108C93.3762 70.729 92.3255 70.1245 91.2862 69.5029C89.4347 68.3908 87.6343 66.9365 85.9191 65.5963C85.1922 65.026 84.4766 64.4272 83.8064 63.7884C82.8295 62.8531 81.9322 61.8323 81.1882 60.6974C82.6421 61.0339 84.0222 61.7696 85.3569 62.4254C86.8903 63.1782 88.4238 63.9367 89.9572 64.6895C91.7292 65.5621 93.5012 66.4347 95.2675 67.3015C96.1534 67.7349 97.0394 68.1741 97.9254 68.6075C98.6126 68.944 99.3112 69.4345 100.021 69.6968C100.862 70.0048 101.867 70.0732 102.736 70.2899C103.639 70.5123 104.536 70.7576 105.428 71.0256C107.217 71.5617 108.978 72.1776 110.721 72.8392C112.641 73.5692 114.543 74.3505 116.44 75.1489C118.263 75.9131 120.104 76.7058 121.682 77.8978C122.563 78.565 123.358 79.3521 124.346 79.8653C125.346 80.3843 126.039 80.9603 126.72 81.8728C128.214 83.8632 129.361 86.0874 130.122 88.4769C129.213 88.5226 128.344 88.1405 127.527 87.7469C125.204 86.6234 123.142 85.1578 120.831 84.0685C117.945 82.7055 115.06 81.3481 112.175 79.9851C109.267 78.6107 106.138 77.4586 103.241 75.9644C101.833 75.2402 100.544 74.4132 99.1124 73.7231C97.5335 72.9589 95.9717 72.1548 94.4326 71.3108H94.4383Z" fill="url(#paint15_linear_974_11986)"/>
<path d="M78.888 72.7879C80.3987 74.2707 84.8627 80.8691 102.219 91.7847C116.963 101.064 131.763 102.375 136.466 102.387C136.523 102.472 136.568 102.575 136.597 102.689C135.199 102.78 118.326 103.385 100.458 92.144C83.1021 81.2284 78.6381 74.6299 77.1274 73.1472C72.1976 68.311 69.8123 64.6268 67.6938 61.0852C70.9311 64.6724 74.4296 68.4193 78.888 72.7879Z" fill="#858E98"/>
<path d="M52.0244 42.1282C52.0244 42.1282 52.1834 42.2194 52.1947 42.2251C57.965 45.4416 63.7296 48.2589 69.0456 52.2169C70.6131 53.386 72.1749 54.3327 73.7765 55.3878C74.884 56.1177 75.7984 56.9846 76.8434 57.8001C81.0973 61.125 85.5841 64.1648 90.2469 66.8851C92.5697 68.2367 94.9494 69.4458 97.3291 70.6947C99.6577 71.9152 101.822 73.3866 104.252 74.4473C109.903 76.9111 115.696 78.8615 121.631 80.4983C123.08 80.8975 124.698 81.445 126.215 81.348C126.09 80.6409 125.556 80.293 125.09 79.8025C124.448 79.1238 123.852 78.3996 123.21 77.7152C121.927 76.3522 120.586 75.0462 119.178 73.8143C119.042 73.6945 118.911 73.5805 118.78 73.4664C107.654 63.7541 98.607 57.937 89.4461 54.5437C84.0676 52.5476 79.2629 50.9109 75.2134 49.6163C69.091 47.6601 64.6895 46.4796 62.6335 46.0291C61.8952 45.8694 61.4579 45.8009 61.3556 45.8237C60.7479 45.9663 59.3906 44.9056 58.0843 44.4892C57.4766 44.2953 56.903 44.0957 56.3634 43.8904C54.6085 43.2232 53.2568 42.5559 52.456 42.1909C52.2629 42.0997 52.0925 42.0768 52.0187 42.1339L52.0244 42.1282Z" fill="url(#paint16_linear_974_11986)"/>
<path d="M56.3691 43.8905C58.0161 44.1528 60.0891 45.7554 61.6112 46.4911C63.9738 47.6317 66.4955 48.202 68.8184 49.4168C71.1696 50.6429 73.5607 51.7892 75.8381 53.1523C79.0072 55.0514 82.1934 56.922 85.3114 58.8952C89.747 61.7011 94.2054 64.4728 98.7376 67.1247C102.918 69.5713 107.149 71.9267 111.454 74.1452C114.566 75.7477 117.667 77.5898 121.007 78.6791C121.557 78.8559 122.114 79.0156 122.671 79.1639C122.949 79.238 123.233 79.3064 123.511 79.3806C123.687 79.4262 124.159 79.449 124.284 79.5688C123.659 78.97 123.091 78.3084 122.597 77.5955C122.046 76.7971 121.58 76.1241 120.802 75.5481C120.058 75.0006 119.439 74.1224 118.78 73.4665C107.654 63.7542 98.6069 57.9371 89.446 54.5438C84.0676 52.5477 79.2628 50.911 75.2134 49.6164C70.0565 48.1678 64.8087 46.7648 63.6558 46.3941C63.3264 46.2858 62.9856 46.166 62.6335 46.0291C60.7025 45.2877 58.4705 44.227 56.3691 43.8905Z" fill="url(#paint17_linear_974_11986)"/>
<path d="M131.582 98.8793C131.746 99.7861 132.428 101.24 133.518 101.896C134.609 102.552 135.62 102.831 136.75 102.74C138.386 102.609 138.857 101.058 137.772 99.9001C136.693 98.7424 135.427 98.269 135.427 98.269L131.582 98.8793Z" fill="#99A4AE"/>
<path d="M135.5 98.3888C137.017 99.4553 138.102 100.978 137.221 101.451C135.881 102.17 134.154 101.092 133.615 100.75C132.581 100.088 131.627 98.9306 131.627 98.9306L135.5 98.3888Z" fill="#707C8A"/>
<path d="M108.086 96.119C108.086 96.119 107.387 96.0334 107.166 96.1247C106.223 96.5353 103.877 98.3831 95.5627 96.387C96.4771 93.8093 101.901 92.8169 101.901 92.8169L99.0726 90.9121C99.0726 90.9121 106.91 95.543 108.086 96.119Z" fill="url(#paint18_linear_974_11986)"/>
<path d="M97.6982 73.2726C100.061 74.9892 104.525 80.1334 106.541 83.1503C108.557 86.1672 108.563 86.2242 108.563 86.2242C108.563 86.2242 109.778 87.4218 109.852 87.7982C108.432 87.4618 104.332 84.8783 102.367 83.6065C102.02 83.3784 101.856 82.694 102.117 82.54C102.372 82.3918 102.577 82.2093 102.531 82.0325C102.429 81.5933 102.111 80.0934 101.6 79.0669C101.089 78.0403 98.8682 74.59 97.6982 73.2783V73.2726Z" fill="url(#paint19_linear_974_11986)"/>
<path d="M126.476 91.9045C126.3 92.6858 126.783 93.604 127.549 93.9576C128.316 94.3112 129.083 93.969 129.259 93.1934C129.435 92.4178 128.952 91.4939 128.185 91.1403C127.419 90.7867 126.652 91.1289 126.476 91.9045Z" fill="#DFE7EB"/>
<path d="M127.18 92.2295C127.095 92.6116 127.333 93.0679 127.708 93.239C128.089 93.4158 128.464 93.2447 128.549 92.8626C128.634 92.4805 128.396 92.0242 128.021 91.8531C127.64 91.6763 127.265 91.8474 127.18 92.2295Z" fill="#707C8A"/>
<path d="M135.955 96.387C136.824 96.7348 137.551 97.4078 137.176 97.9952C136.29 99.3925 133.376 98.5769 131.269 98.9819C132.047 98.2176 134.387 97.6074 135.006 97.4021C135.96 97.0827 136.057 96.7805 136.057 96.7805L135.955 96.3927V96.387Z" fill="#C0C7CD"/>
<path d="M131.854 98.7309C131.928 98.902 131.991 99.0788 132.053 99.2556C132.087 99.3468 132.116 99.4438 132.15 99.535C132.155 99.5579 132.167 99.5864 132.161 99.6092C132.15 99.6662 132.076 99.6776 132.019 99.6776C131.417 99.6776 130.815 99.4894 130.332 99.1301C130.264 99.0788 130.19 99.0104 130.196 98.9305C130.196 98.845 130.281 98.7822 130.366 98.7537C130.474 98.7195 130.61 98.7366 130.696 98.6511C130.798 98.5541 130.73 98.5142 130.724 98.4058C130.713 98.2576 130.843 98.1093 130.985 98.0808C131.389 98.0009 131.712 98.4173 131.854 98.7366V98.7309Z" fill="#C0C7CD"/>
<path d="M115.015 80.5326C110.892 85.9676 112.266 96.0848 115.691 97.9839C110.534 95.9137 111.056 85.0323 115.015 80.5326Z" fill="#626868"/>
<path d="M66.6431 47.3123C66.6431 47.3123 66.0354 46.5139 65.5129 46.1432C65.5811 46.6793 64.9223 46.9701 64.9223 46.9701C64.9223 46.9701 64.661 47.0329 65.3653 47.2382C66.3364 47.5233 66.6431 47.3123 66.6431 47.3123Z" fill="url(#paint20_linear_974_11986)"/>
<path d="M68.6878 48.0309C68.6878 48.0309 67.9665 47.0044 67.4894 46.6736C67.5462 47.1583 66.7908 47.5918 66.7908 47.5918C66.7908 47.5918 66.5239 47.6716 67.3077 47.9283C68.3243 48.2647 68.6878 48.0252 68.6878 48.0252V48.0309Z" fill="url(#paint21_linear_974_11986)"/>
<path d="M71.1753 48.8464C71.1753 48.8464 70.3405 47.5975 69.9145 47.3009C69.9543 47.7286 69.1137 48.3103 69.1137 48.3103C69.1137 48.3103 68.8468 48.4073 69.6987 48.721C70.7607 49.1145 71.1753 48.8464 71.1753 48.8464Z" fill="url(#paint22_linear_974_11986)"/>
<path d="M74.0435 49.7874C74.0435 49.7874 73.1007 48.3103 72.7145 48.0537C72.7429 48.4301 71.8114 49.1544 71.8114 49.1544C71.8114 49.1544 71.5445 49.2628 72.4646 49.6335C73.5721 50.0726 74.0435 49.7874 74.0435 49.7874Z" fill="url(#paint23_linear_974_11986)"/>
<path d="M77.2467 50.8595C77.2467 50.8595 76.1903 49.16 75.8495 48.9376C75.8666 49.257 74.8443 50.1296 74.8443 50.1296C74.8443 50.1296 74.5716 50.255 75.5712 50.6771C76.7185 51.1675 77.2467 50.8595 77.2467 50.8595Z" fill="url(#paint24_linear_974_11986)"/>
<path d="M80.7111 52.0686C80.7111 52.0686 79.5411 50.141 79.2515 49.9585C79.2515 50.2265 78.1383 51.2417 78.1383 51.2417C78.1383 51.2417 77.8657 51.3786 78.9334 51.8633C80.1261 52.4051 80.7054 52.0743 80.7054 52.0743L80.7111 52.0686Z" fill="url(#paint25_linear_974_11986)"/>
<path d="M84.3913 53.4032C84.3913 53.4032 83.1135 51.2531 82.8636 51.1049C82.8522 51.3216 81.6482 52.4736 81.6482 52.4736C81.6482 52.4736 81.3756 52.6219 82.5171 53.1637C83.7552 53.7511 84.3913 53.3975 84.3913 53.3975V53.4032Z" fill="url(#paint26_linear_974_11986)"/>
<path d="M88.2079 54.8746C88.2079 54.8746 86.8165 52.4964 86.6177 52.3881C86.595 52.5477 85.3001 53.848 85.3001 53.848C85.3001 53.848 85.0274 54.0077 86.2372 54.6122C87.5207 55.251 88.2079 54.8746 88.2079 54.8746Z" fill="url(#paint27_linear_974_11986)"/>
<path d="M92.1154 56.4828C92.1154 56.4828 90.616 53.8822 90.457 53.8081C90.4172 53.9165 89.0371 55.3593 89.0371 55.3593C89.0371 55.3593 88.7645 55.5304 90.048 56.192C91.377 56.8763 92.121 56.4828 92.121 56.4828H92.1154Z" fill="url(#paint28_linear_974_11986)"/>
<path d="M96.0512 58.2279C96.0512 58.2279 94.4382 55.3992 94.3303 55.365C94.2792 55.4163 92.8026 57.0075 92.8026 57.0075C92.8026 57.0075 92.5299 57.19 93.8816 57.9085C95.2617 58.6385 96.0512 58.2279 96.0512 58.2279Z" fill="url(#paint29_linear_974_11986)"/>
<path d="M99.9416 60.1042C99.9416 60.1042 98.215 57.0531 98.1526 57.0531C98.0901 57.0531 96.5226 58.7868 96.5226 58.7868C96.5226 58.7868 96.25 58.9807 97.6698 59.762C99.0954 60.5434 99.9416 60.1099 99.9416 60.1099V60.1042Z" fill="url(#paint30_linear_974_11986)"/>
<path d="M72.8678 40.4744C81.2279 46.2687 83.034 51.6637 83.7893 52.4964C84.7151 52.9526 84.7378 53.8252 84.7378 53.8252C84.7378 53.8252 84.0449 54.3784 80.2794 53.0211C77.0479 51.8577 75.5314 50.4148 75.5314 50.4148C75.5314 50.4148 76.7298 50.5574 76.9627 50.4148C77.1955 50.2722 77.1898 49.0632 76.2016 47.894C76.5992 47.4891 75.1282 45.2934 75.1282 45.2934C75.1282 45.2934 75.3043 44.7916 74.3274 43.5768C74.5546 42.5788 72.8792 40.4744 72.8792 40.4744H72.8678Z" fill="url(#paint31_linear_974_11986)"/>
<path d="M109.79 66.3319C109.687 66.2065 109.58 66.0867 109.477 65.9612C109.239 65.6818 109.148 65.351 109.006 65.0088C108.682 64.2218 108.29 63.4633 107.87 62.7276C106.944 61.125 105.871 59.608 104.701 58.1766C104.116 57.458 103.508 56.7622 102.878 56.0836C102.736 55.9296 101.049 54.3327 101.077 54.2643C100.544 55.3536 99.5099 56.1805 98.3286 56.4485C98.0446 56.5113 97.7323 56.5626 97.5505 56.785C97.4256 56.939 97.3858 57.1386 97.3234 57.3268C97.2495 57.5435 97.1814 57.6918 97.1246 57.9085C97.0053 58.4104 96.7043 58.5929 96.2783 58.821C96.2613 58.8324 96.2443 58.8438 96.2386 58.8609C96.2386 58.878 96.2386 58.8952 96.2443 58.9123C96.5226 59.6023 97.3177 59.9331 97.897 60.3437C98.4138 60.7144 98.9477 61.0908 99.5667 61.2334C99.8166 61.2904 100.084 61.3132 100.311 61.433C100.481 61.5243 100.623 61.6611 100.759 61.798C101.35 62.3797 101.963 62.9386 102.611 63.4519C103.037 63.7884 103.571 64.0678 104.031 64.3644C104.559 64.7009 105.098 65.0259 105.644 65.3282C106.723 65.9213 107.847 66.4403 109.006 66.8623C109.506 67.0448 110.017 67.1988 110.539 67.2444C110.289 66.9422 110.04 66.6399 109.79 66.3433V66.3319Z" fill="url(#paint32_linear_974_11986)"/>
<g style="mix-blend-mode:screen">
<path d="M104.281 71.1967C104.281 71.7214 104.707 72.1491 105.229 72.1491C105.752 72.1491 106.178 71.7214 106.178 71.1967C106.178 70.672 105.752 70.2443 105.229 70.2443C104.707 70.2443 104.281 70.672 104.281 71.1967Z" fill="#324561"/>
</g>
<g style="mix-blend-mode:screen">
<path d="M116.582 74.7383C116.883 75.0348 117.326 75.0691 117.576 74.8181C117.826 74.5672 117.781 74.1223 117.48 73.8201C117.179 73.5235 116.736 73.4893 116.486 73.7402C116.236 73.9912 116.281 74.436 116.582 74.7383Z" fill="#324561"/>
</g>
<g style="mix-blend-mode:screen">
<path d="M92.9673 66.1894C92.9673 66.5544 93.2626 66.8509 93.6261 66.8509C93.9896 66.8509 94.2849 66.5544 94.2849 66.1894C94.2849 65.8244 93.9896 65.5278 93.6261 65.5278C93.2626 65.5278 92.9673 65.8244 92.9673 66.1894Z" fill="#324561"/>
</g>
<g style="mix-blend-mode:screen">
<path d="M82.4888 71.7442C82.4888 72.1092 82.7841 72.4057 83.1476 72.4057C83.5111 72.4057 83.8064 72.1092 83.8064 71.7442C83.8064 71.3792 83.5111 71.0826 83.1476 71.0826C82.7841 71.0826 82.4888 71.3792 82.4888 71.7442Z" fill="#0F1929"/>
</g>
<g style="mix-blend-mode:screen">
<path d="M118.422 96.387C118.422 96.752 118.718 97.0486 119.081 97.0486C119.445 97.0486 119.74 96.752 119.74 96.387C119.74 96.022 119.445 95.7255 119.081 95.7255C118.718 95.7255 118.422 96.022 118.422 96.387Z" fill="#0F1929"/>
</g>
<g style="mix-blend-mode:screen">
<path d="M100.828 87.6043C100.828 87.9693 101.123 88.2659 101.486 88.2659C101.85 88.2659 102.145 87.9693 102.145 87.6043C102.145 87.2393 101.85 86.9427 101.486 86.9427C101.123 86.9427 100.828 87.2393 100.828 87.6043Z" fill="#324561"/>
</g>
<g style="mix-blend-mode:screen">
<path d="M109.511 68.6531C109.511 69.0181 109.807 69.3147 110.17 69.3147C110.534 69.3147 110.829 69.0181 110.829 68.6531C110.829 68.2881 110.534 67.9916 110.17 67.9916C109.807 67.9916 109.511 68.2881 109.511 68.6531Z" fill="#0F1929"/>
</g>
<g style="mix-blend-mode:screen">
<path d="M120.961 78.6847C120.961 79.0497 121.256 79.3463 121.62 79.3463C121.983 79.3463 122.279 79.0497 122.279 78.6847C122.279 78.3197 121.983 78.0232 121.62 78.0232C121.256 78.0232 120.961 78.3197 120.961 78.6847Z" fill="#0F1929"/>
</g>
<g style="mix-blend-mode:screen">
<path d="M109.511 75.4854C109.511 75.8504 109.807 76.147 110.17 76.147C110.534 76.147 110.829 75.8504 110.829 75.4854C110.829 75.1204 110.534 74.8239 110.17 74.8239C109.807 74.8239 109.511 75.1204 109.511 75.4854Z" fill="#0F1929"/>
</g>
<g style="mix-blend-mode:screen">
<path d="M73.7708 62.8018C73.7708 63.1668 74.0661 63.4634 74.4296 63.4634C74.7931 63.4634 75.0884 63.1668 75.0884 62.8018C75.0884 62.4368 74.7931 62.1403 74.4296 62.1403C74.0661 62.1403 73.7708 62.4368 73.7708 62.8018Z" fill="#324561"/>
</g>
<g style="mix-blend-mode:screen">
<path d="M87.339 57.0532C87.339 57.4182 87.6343 57.7147 87.9978 57.7147C88.3613 57.7147 88.6566 57.4182 88.6566 57.0532C88.6566 56.6882 88.3613 56.3916 87.9978 56.3916C87.6343 56.3916 87.339 56.6882 87.339 57.0532Z" fill="#324561"/>
</g>
<g style="mix-blend-mode:screen">
<path d="M69.9316 51.3044C70.1076 51.5838 70.5052 51.6466 70.8119 51.4469C71.1186 51.2473 71.2208 50.8595 71.0447 50.5858C70.8687 50.3063 70.4711 50.2436 70.1644 50.4432C69.8577 50.6428 69.7555 51.0306 69.9316 51.3044Z" fill="#0F1929"/>
</g>
<g style="mix-blend-mode:screen">
<path d="M78.2746 58.6386C78.2746 59.0036 78.5699 59.3002 78.9334 59.3002C79.2969 59.3002 79.5922 59.0036 79.5922 58.6386C79.5922 58.2736 79.2969 57.9771 78.9334 57.9771C78.5699 57.9771 78.2746 58.2736 78.2746 58.6386Z" fill="#0F1929"/>
</g>
<g style="mix-blend-mode:screen">
<path d="M94.603 60.1213C94.2281 60.4977 94.1827 61.0566 94.5007 61.376C94.8188 61.6954 95.3754 61.644 95.7445 61.2733C96.1194 60.8969 96.1648 60.338 95.8468 60.0244C95.5287 59.705 94.9721 59.7563 94.5973 60.127L94.603 60.1213Z" fill="#0F1929"/>
</g>
<g style="mix-blend-mode:screen">
<path d="M86.8732 62.1345C86.8732 62.3912 87.0834 62.6022 87.3389 62.6022C87.5945 62.6022 87.8047 62.3912 87.8047 62.1345C87.8047 61.8779 87.5945 61.6669 87.3389 61.6669C87.0834 61.6669 86.8732 61.8779 86.8732 62.1345Z" fill="#324561"/>
</g>
<g style="mix-blend-mode:screen">
<path d="M99.4759 63.4634C99.4759 63.72 99.686 63.931 99.9416 63.931C100.197 63.931 100.407 63.72 100.407 63.4634C100.407 63.2067 100.197 62.9957 99.9416 62.9957C99.686 62.9957 99.4759 63.2067 99.4759 63.4634Z" fill="#324561"/>
</g>
<g style="mix-blend-mode:screen">
<path d="M90.3661 80.9318C90.5876 81.0687 90.8716 81.0002 91.0079 80.7835C91.1442 80.5611 91.076 80.2759 90.8602 80.1391C90.6387 80.0022 90.3547 80.0706 90.2184 80.2874C90.0821 80.5041 90.1503 80.7949 90.3661 80.9318Z" fill="#0F1929"/>
</g>
<g style="mix-blend-mode:screen">
<path d="M105.133 76.8883C105.354 77.0252 105.638 76.9568 105.774 76.7401C105.911 76.5176 105.843 76.2325 105.627 76.0956C105.405 75.9587 105.121 76.0272 104.985 76.2439C104.849 76.4606 104.917 76.7515 105.133 76.8883Z" fill="#324561"/>
</g>
<g style="mix-blend-mode:screen">
<path d="M110.88 81.7644C111.102 81.9013 111.386 81.8329 111.522 81.6162C111.658 81.3937 111.59 81.1086 111.374 80.9717C111.153 80.8348 110.869 80.9033 110.733 81.12C110.596 81.3424 110.664 81.6276 110.88 81.7644Z" fill="#324561"/>
</g>
<g style="mix-blend-mode:screen">
<path d="M108.483 94.3454C108.705 94.4822 108.989 94.4138 109.125 94.1971C109.262 93.9747 109.193 93.6895 108.978 93.5526C108.756 93.4158 108.472 93.4842 108.336 93.7009C108.199 93.9233 108.268 94.2085 108.483 94.3454Z" fill="#324561"/>
</g>
<g style="mix-blend-mode:screen">
<path d="M76.3663 53.7738C75.9177 53.9677 75.6735 54.4924 75.8268 54.9486C75.9745 55.4049 76.4629 55.6159 76.9116 55.422C77.3602 55.2281 77.6045 54.7034 77.4511 54.2471C77.3034 53.7909 76.815 53.5799 76.3663 53.7738Z" fill="#324561"/>
</g>
</g>
<defs>
<linearGradient id="paint0_linear_974_11986" x1="837.637" y1="561.514" x2="848.1" y2="543.518" gradientUnits="userSpaceOnUse">
<stop offset="0.01" stop-color="#FEFEFE"/>
<stop offset="0.24" stop-color="#EAEFF2"/>
<stop offset="0.51" stop-color="#CFDBE1"/>
<stop offset="0.59" stop-color="#BBC6CE"/>
<stop offset="0.75" stop-color="#89929E"/>
<stop offset="0.86" stop-color="#666E7D"/>
</linearGradient>
<linearGradient id="paint1_linear_974_11986" x1="49.1392" y1="87.9294" x2="52.8781" y2="80.5907" gradientUnits="userSpaceOnUse">
<stop offset="0.14" stop-color="#E4EBEE"/>
<stop offset="0.4" stop-color="#BFC7CD"/>
<stop offset="0.8" stop-color="#8D96A1"/>
<stop offset="0.99" stop-color="#7A8390"/>
</linearGradient>
<linearGradient id="paint2_linear_974_11986" x1="868.147" y1="576.228" x2="876.534" y2="561.802" gradientUnits="userSpaceOnUse">
<stop offset="0.01" stop-color="#FEFEFE"/>
<stop offset="0.29" stop-color="#EAEFF2"/>
<stop offset="0.61" stop-color="#CFDBE1"/>
<stop offset="0.69" stop-color="#BBC6CE"/>
<stop offset="0.86" stop-color="#89929E"/>
<stop offset="0.96" stop-color="#666E7D"/>
</linearGradient>
<linearGradient id="paint3_linear_974_11986" x1="810.713" y1="531.455" x2="793.175" y2="521.343" gradientUnits="userSpaceOnUse">
<stop offset="0.01" stop-color="#C2CDD4"/>
<stop offset="0.1" stop-color="#A5AFB9"/>
<stop offset="0.23" stop-color="#7E8896"/>
<stop offset="0.35" stop-color="#626B7C"/>
<stop offset="0.46" stop-color="#515A6C"/>
<stop offset="0.53" stop-color="#4B5467"/>
<stop offset="1" stop-color="#3C3C43"/>
</linearGradient>
<linearGradient id="paint4_linear_974_11986" x1="82.3638" y1="96.4327" x2="84.9208" y2="102.91" gradientUnits="userSpaceOnUse">
<stop stop-color="#89939F"/>
<stop offset="1" stop-color="#9CA6B0"/>
</linearGradient>
<linearGradient id="paint5_linear_974_11986" x1="846.711" y1="563.89" x2="858.017" y2="564.987" gradientUnits="userSpaceOnUse">
<stop offset="0.02" stop-color="#D9E2E7"/>
<stop offset="1" stop-color="#A0ABB5"/>
</linearGradient>
<linearGradient id="paint6_linear_974_11986" x1="823.656" y1="544.153" x2="823.813" y2="553.152" gradientUnits="userSpaceOnUse">
<stop offset="0.02" stop-color="#4B5467"/>
<stop offset="1" stop-color="#606670"/>
</linearGradient>
<linearGradient id="paint7_linear_974_11986" x1="762.13" y1="473.049" x2="762.553" y2="483.333" gradientUnits="userSpaceOnUse">
<stop offset="0.21" stop-color="#4B5467"/>
<stop offset="1" stop-color="#3C3C43"/>
</linearGradient>
<linearGradient id="paint8_linear_974_11986" x1="77.1279" y1="72.8581" x2="71.2782" y2="77.0465" gradientUnits="userSpaceOnUse">
<stop offset="0.21" stop-color="#4B5467"/>
<stop offset="1" stop-color="#3C3C43"/>
</linearGradient>
<linearGradient id="paint9_linear_974_11986" x1="61.8497" y1="41.5294" x2="45.9928" y2="41.5294" gradientUnits="userSpaceOnUse">
<stop offset="0.21" stop-color="#4B5467"/>
<stop offset="1" stop-color="#3C3C43"/>
</linearGradient>
<linearGradient id="paint10_linear_974_11986" x1="87.1856" y1="85.728" x2="102.693" y2="56.9528" gradientUnits="userSpaceOnUse">
<stop offset="0.01" stop-color="#8094A6"/>
<stop offset="0.18" stop-color="#A8B7C3"/>
<stop offset="0.36" stop-color="#CFD9E0"/>
<stop offset="0.46" stop-color="#DFE7EB"/>
<stop offset="0.78" stop-color="#666E7D"/>
</linearGradient>
<linearGradient id="paint11_linear_974_11986" x1="117.11" y1="102.894" x2="134.078" y2="80.9371" gradientUnits="userSpaceOnUse">
<stop offset="0.01" stop-color="#8094A6"/>
<stop offset="0.12" stop-color="#94A6B5"/>
<stop offset="0.36" stop-color="#BBCAD2"/>
<stop offset="0.48" stop-color="#CBD8DE"/>
<stop offset="0.95" stop-color="#F7F9FA"/>
</linearGradient>
<linearGradient id="paint12_linear_974_11986" x1="120.984" y1="89.1669" x2="113.385" y2="101.058" gradientUnits="userSpaceOnUse">
<stop stop-color="#CBD8DE"/>
<stop offset="0.2" stop-color="#C5D2D8"/>
<stop offset="0.46" stop-color="#B6C2C9"/>
<stop offset="0.75" stop-color="#9EA8B1"/>
<stop offset="0.99" stop-color="#858E98"/>
</linearGradient>
<linearGradient id="paint13_linear_974_11986" x1="66.6772" y1="75.5595" x2="112.018" y2="59.5612" gradientUnits="userSpaceOnUse">
<stop offset="0.01" stop-color="#92ADB9"/>
<stop offset="0.12" stop-color="#9BB4BF"/>
<stop offset="0.46" stop-color="#B5C7D0"/>
<stop offset="0.76" stop-color="#C5D3DA"/>
<stop offset="1" stop-color="#CBD8DE"/>
</linearGradient>
<linearGradient id="paint14_linear_974_11986" x1="94.177" y1="69.155" x2="51.3349" y2="54.7429" gradientUnits="userSpaceOnUse">
<stop offset="0.16" stop-color="#A7B2BC"/>
<stop offset="0.52" stop-color="#828C9A"/>
<stop offset="1" stop-color="#4B5467"/>
</linearGradient>
<linearGradient id="paint15_linear_974_11986" x1="81.0291" y1="52.696" x2="133.848" y2="96.0293" gradientUnits="userSpaceOnUse">
<stop offset="0.01" stop-color="#A4AFB9"/>
<stop offset="0.28" stop-color="#BCC9D0"/>
<stop offset="0.48" stop-color="#CBD8DE"/>
<stop offset="0.95" stop-color="#F7F9FA"/>
</linearGradient>
<linearGradient id="paint16_linear_974_11986" x1="115.072" y1="91.4025" x2="71.8701" y2="42.1519" gradientUnits="userSpaceOnUse">
<stop stop-color="#AEB6BE"/>
<stop offset="1" stop-color="#529093"/>
</linearGradient>
<linearGradient id="paint17_linear_974_11986" x1="118.689" y1="94.2313" x2="79.2368" y2="49.2597" gradientUnits="userSpaceOnUse">
<stop stop-color="#849EA6"/>
<stop offset="1" stop-color="#38405E"/>
</linearGradient>
<linearGradient id="paint18_linear_974_11986" x1="105.581" y1="93.0458" x2="100.976" y2="100.292" gradientUnits="userSpaceOnUse">
<stop offset="0.21" stop-color="#4B5467"/>
<stop offset="1" stop-color="#3C3C43"/>
</linearGradient>
<linearGradient id="paint19_linear_974_11986" x1="455.986" y1="149.926" x2="449.671" y2="148.688" gradientUnits="userSpaceOnUse">
<stop offset="0.21" stop-color="#4B5467"/>
<stop offset="1" stop-color="#3C3C43"/>
</linearGradient>
<linearGradient id="paint20_linear_974_11986" x1="66.3904" y1="47.7217" x2="64.8612" y2="46.6302" gradientUnits="userSpaceOnUse">
<stop offset="0.21" stop-color="#747477"/>
<stop offset="1" stop-color="#BABA8D"/>
</linearGradient>
<linearGradient id="paint21_linear_974_11986" x1="69.4764" y1="48.1257" x2="67.7817" y2="46.9037" gradientUnits="userSpaceOnUse">
<stop offset="0.21" stop-color="#747477"/>
<stop offset="1" stop-color="#BABA8D"/>
</linearGradient>
<linearGradient id="paint22_linear_974_11986" x1="72.7972" y1="49.3986" x2="70.9328" y2="48.0383" gradientUnits="userSpaceOnUse">
<stop offset="0.21" stop-color="#747477"/>
<stop offset="1" stop-color="#BABA8D"/>
</linearGradient>
<linearGradient id="paint23_linear_974_11986" x1="76.3172" y1="50.0151" x2="74.2958" y2="48.5082" gradientUnits="userSpaceOnUse">
<stop offset="0.21" stop-color="#747477"/>
<stop offset="1" stop-color="#BABA8D"/>
</linearGradient>
<linearGradient id="paint24_linear_974_11986" x1="79.5217" y1="50.7231" x2="77.3343" y2="49.0793" gradientUnits="userSpaceOnUse">
<stop offset="0.21" stop-color="#747477"/>
<stop offset="1" stop-color="#BABA8D"/>
</linearGradient>
<linearGradient id="paint25_linear_974_11986" x1="83.2297" y1="52.3751" x2="80.8779" y2="50.5804" gradientUnits="userSpaceOnUse">
<stop offset="0.21" stop-color="#747477"/>
<stop offset="1" stop-color="#BABA8D"/>
</linearGradient>
<linearGradient id="paint26_linear_974_11986" x1="86.9485" y1="53.3711" x2="84.4397" y2="51.4291" gradientUnits="userSpaceOnUse">
<stop offset="0.21" stop-color="#747477"/>
<stop offset="1" stop-color="#BABA8D"/>
</linearGradient>
<linearGradient id="paint27_linear_974_11986" x1="90.6029" y1="55.2947" x2="87.9337" y2="53.203" gradientUnits="userSpaceOnUse">
<stop offset="0.21" stop-color="#747477"/>
<stop offset="1" stop-color="#BABA8D"/>
</linearGradient>
<linearGradient id="paint28_linear_974_11986" x1="93.6875" y1="56.549" x2="90.8707" y2="54.3054" gradientUnits="userSpaceOnUse">
<stop offset="0.21" stop-color="#747477"/>
<stop offset="1" stop-color="#BABA8D"/>
</linearGradient>
<linearGradient id="paint29_linear_974_11986" x1="97.0344" y1="58.7655" x2="94.0611" y2="56.3678" gradientUnits="userSpaceOnUse">
<stop offset="0.21" stop-color="#747477"/>
<stop offset="1" stop-color="#BABA8D"/>
</linearGradient>
<linearGradient id="paint30_linear_974_11986" x1="100.135" y1="60.3209" x2="97.012" y2="57.7673" gradientUnits="userSpaceOnUse">
<stop offset="0.21" stop-color="#747477"/>
<stop offset="1" stop-color="#BABA8D"/>
</linearGradient>
<linearGradient id="paint31_linear_974_11986" x1="85.2302" y1="47.5531" x2="72.6584" y2="46.851" gradientUnits="userSpaceOnUse">
<stop offset="0.21" stop-color="#4B5467"/>
<stop offset="1" stop-color="#3C3C43"/>
</linearGradient>
<linearGradient id="paint32_linear_974_11986" x1="110.539" y1="60.7486" x2="96.2272" y2="60.7486" gradientUnits="userSpaceOnUse">
<stop offset="0.21" stop-color="#4B5467"/>
<stop offset="1" stop-color="#3C3C43"/>
</linearGradient>
<clipPath id="clip0_974_11986">
<rect width="148" height="116" fill="white" transform="translate(2 26)"/>
</clipPath>
</defs>
</svg>
